<svg xmlns="http://www.w3.org/2000/svg" viewBox="0 0 640 360" width="640" height="360" role="img" aria-label="Savdo do'koni"><defs><linearGradient id="poq1" x1="0" y1="0" x2="0" y2="1"><stop offset="0" stop-color="#f9f6ef"/><stop offset="1" stop-color="#dedbd4"/></linearGradient><linearGradient id="poq2" x1="0" y1="0" x2="0" y2="1"><stop offset="0" stop-color="#e6e2d9"/><stop offset="1" stop-color="#cbc7be"/></linearGradient><linearGradient id="pyer0" x1="0" y1="0" x2="0" y2="1"><stop offset="0" stop-color="#f3efe5"/><stop offset="1" stop-color="#ebe7dd"/></linearGradient><linearGradient id="pasfalt0" x1="0" y1="0" x2="0" y2="1"><stop offset="0" stop-color="#ccc9c2"/><stop offset="1" stop-color="#c4c1ba"/></linearGradient><linearGradient id="psilikat1" x1="0" y1="0" x2="0" y2="1"><stop offset="0" stop-color="#e6e4db"/><stop offset="1" stop-color="#cbc9c0"/></linearGradient><linearGradient id="psilikat2" x1="0" y1="0" x2="0" y2="1"><stop offset="0" stop-color="#cdcbc1"/><stop offset="1" stop-color="#b2b0a6"/></linearGradient><linearGradient id="psilikat0" x1="0" y1="0" x2="0" y2="1"><stop offset="0" stop-color="#f0eee7"/><stop offset="1" stop-color="#e8e6df"/></linearGradient><linearGradient id="pbeton1" x1="0" y1="0" x2="0" y2="1"><stop offset="0" stop-color="#d8d5cd"/><stop offset="1" stop-color="#bdbab2"/></linearGradient><linearGradient id="pbeton2" x1="0" y1="0" x2="0" y2="1"><stop offset="0" stop-color="#bebbb3"/><stop offset="1" stop-color="#a3a098"/></linearGradient><linearGradient id="pruberoid0" x1="0" y1="0" x2="0" y2="1"><stop offset="0" stop-color="#aeaca5"/><stop offset="1" stop-color="#a6a49d"/></linearGradient><linearGradient id="pbeton0" x1="0" y1="0" x2="0" y2="1"><stop offset="0" stop-color="#e4e1d9"/><stop offset="1" stop-color="#dcd9d1"/></linearGradient><linearGradient id="poyna1" x1="0" y1="0" x2="0" y2="1"><stop offset="0" stop-color="#b0c5ce"/><stop offset="1" stop-color="#95aab3"/></linearGradient><linearGradient id="pmetall1" x1="0" y1="0" x2="0" y2="1"><stop offset="0" stop-color="#c7cbc7"/><stop offset="1" stop-color="#acb0ac"/></linearGradient><linearGradient id="ptunOyna1" x1="0" y1="0" x2="0" y2="1"><stop offset="0" stop-color="#6b7e87"/><stop offset="1" stop-color="#50636c"/></linearGradient><linearGradient id="ptsokol1" x1="0" y1="0" x2="0" y2="1"><stop offset="0" stop-color="#b1aa9e"/><stop offset="1" stop-color="#968f83"/></linearGradient><linearGradient id="ptsokol2" x1="0" y1="0" x2="0" y2="1"><stop offset="0" stop-color="#979186"/><stop offset="1" stop-color="#7c766b"/></linearGradient><linearGradient id="pmkb1" x1="0" y1="0" x2="0" y2="1"><stop offset="0" stop-color="#318155"/><stop offset="1" stop-color="#16663a"/></linearGradient><linearGradient id="pmkb2" x1="0" y1="0" x2="0" y2="1"><stop offset="0" stop-color="#296b47"/><stop offset="1" stop-color="#0e502c"/></linearGradient><linearGradient id="poq0" x1="0" y1="0" x2="0" y2="1"><stop offset="0" stop-color="#fffefa"/><stop offset="1" stop-color="#f8f6f2"/></linearGradient><linearGradient id="pqizil0" x1="0" y1="0" x2="0" y2="1"><stop offset="0" stop-color="#ba5e4e"/><stop offset="1" stop-color="#b25646"/></linearGradient><linearGradient id="pqizil1" x1="0" y1="0" x2="0" y2="1"><stop offset="0" stop-color="#aa594b"/><stop offset="1" stop-color="#8f3e30"/></linearGradient><linearGradient id="poyna2" x1="0" y1="0" x2="0" y2="1"><stop offset="0" stop-color="#98aeb8"/><stop offset="1" stop-color="#7d939d"/></linearGradient><linearGradient id="ptana1" x1="0" y1="0" x2="0" y2="1"><stop offset="0" stop-color="#b3a896"/><stop offset="1" stop-color="#988d7b"/></linearGradient><linearGradient id="ptana2" x1="0" y1="0" x2="0" y2="1"><stop offset="0" stop-color="#988e7e"/><stop offset="1" stop-color="#7d7363"/></linearGradient><linearGradient id="ptana0" x1="0" y1="0" x2="0" y2="1"><stop offset="0" stop-color="#bfb4a1"/><stop offset="1" stop-color="#b7ac99"/></linearGradient><linearGradient id="pmetall0" x1="0" y1="0" x2="0" y2="1"><stop offset="0" stop-color="#d4d8d4"/><stop offset="1" stop-color="#ccd0cc"/></linearGradient><linearGradient id="pqoraMetall0" x1="0" y1="0" x2="0" y2="1"><stop offset="0" stop-color="#838a85"/><stop offset="1" stop-color="#7b827d"/></linearGradient><filter id="soya" x="-30%" y="-30%" width="160%" height="180%"><feGaussianBlur stdDeviation="14.1"/></filter></defs><rect width="640" height="360" fill="#FFFFFF"/><g filter="url(#soya)" opacity="0.17"><polygon points="256,57 571,238 384,346 69,164" fill="#3C3A33" stroke="none" stroke-width="0" stroke-linejoin="round"/></g><polygon points="69,157 384,338 384,334 69,152" fill="url(#poq1)" stroke="#dbd8d1" stroke-width="0.6" stroke-linejoin="round"/><polygon points="384,338 571,231 571,226 384,334" fill="url(#poq2)" stroke="#c8c4bb" stroke-width="0.6" stroke-linejoin="round"/><polygon points="256,44 571,226 384,334 69,152" fill="url(#pyer0)" stroke="#dbd7cd" stroke-width="0.6" stroke-linejoin="round"/><polyline points="256,56 549,226 384,321 91,152 256,56" fill="none" stroke="#8F897C" stroke-width="0.7" opacity="0.3" stroke-dasharray="4 4"/><polygon points="151,122 435,286 384,315 101,152" fill="url(#pasfalt0)" stroke="#b4b1aa" stroke-width="0.5" stroke-linejoin="round"/><polygon points="189,141 386,255 386,195 189,81" fill="url(#psilikat1)" stroke="#c8c6bd" stroke-width="0.7" stroke-linejoin="round"/><polygon points="386,255 485,198 485,138 386,195" fill="url(#psilikat2)" stroke="#afada3" stroke-width="0.7" stroke-linejoin="round"/><polygon points="287,24 485,138 386,195 189,81" fill="url(#psilikat0)" stroke="#d8d6cf" stroke-width="0.7" stroke-linejoin="round"/><polygon points="183,81 386,198 386,195 183,78" fill="url(#pbeton1)" stroke="#bab7af" stroke-width="0.7" stroke-linejoin="round"/><polygon points="386,198 490,138 490,135 386,195" fill="url(#pbeton2)" stroke="#a09d95" stroke-width="0.7" stroke-linejoin="round"/><polygon points="283,24 480,137 480,128 283,14" fill="url(#psilikat1)" stroke="#c8c6bd" stroke-width="0.7" stroke-linejoin="round"/><polygon points="193,80 292,24 292,14 193,71" fill="url(#psilikat2)" stroke="#afada3" stroke-width="0.7" stroke-linejoin="round"/><polygon points="287,26 476,135 386,187 198,78" fill="url(#pruberoid0)" stroke="#96948d" stroke-width="0.7" stroke-linejoin="round"/><polygon points="189,78 386,192 386,182 189,68" fill="url(#psilikat1)" stroke="#c8c6bd" stroke-width="0.7" stroke-linejoin="round"/><polygon points="386,192 390,189 390,180 386,182" fill="url(#psilikat2)" stroke="#afada3" stroke-width="0.7" stroke-linejoin="round"/><polygon points="193,66 390,180 386,182 189,68" fill="url(#pbeton0)" stroke="#ccc9c1" stroke-width="0.7" stroke-linejoin="round"/><polygon points="386,187 390,189 390,180 386,177" fill="url(#psilikat1)" stroke="#c8c6bd" stroke-width="0.7" stroke-linejoin="round"/><polygon points="390,189 485,135 485,125 390,180" fill="url(#psilikat2)" stroke="#afada3" stroke-width="0.7" stroke-linejoin="round"/><polygon points="480,123 485,125 390,180 386,177" fill="url(#pbeton0)" stroke="#ccc9c1" stroke-width="0.7" stroke-linejoin="round"/><polygon points="198,137 377,240 377,205 198,102" fill="url(#poyna1)" stroke="#92a7b0" stroke-width="0.7" stroke-linejoin="round"/><polygon points="234,159 235,159 235,122 234,121" fill="url(#pmetall1)" stroke="#a9ada9" stroke-width="0.7" stroke-linejoin="round"/><polygon points="270,179 271,180 271,142 270,142" fill="url(#pmetall1)" stroke="#a9ada9" stroke-width="0.7" stroke-linejoin="round"/><polygon points="305,200 307,201 307,163 305,162" fill="url(#pmetall1)" stroke="#a9ada9" stroke-width="0.7" stroke-linejoin="round"/><polygon points="341,221 342,221 342,183 341,183" fill="url(#pmetall1)" stroke="#a9ada9" stroke-width="0.7" stroke-linejoin="round"/><polygon points="276,183 292,192 292,154 276,145" fill="url(#pmetall1)" stroke="#a9ada9" stroke-width="0.7" stroke-linejoin="round"/><polygon points="279,183 292,191 292,155 279,148" fill="url(#ptunOyna1)" stroke="#4d6069" stroke-width="0.7" stroke-linejoin="round"/><polygon points="189,141 386,255 386,247 189,133" fill="url(#ptsokol1)" stroke="#938c80" stroke-width="0.7" stroke-linejoin="round"/><polygon points="386,255 485,198 485,190 386,247" fill="url(#ptsokol2)" stroke="#797368" stroke-width="0.7" stroke-linejoin="round"/><polyline points="189,133 386,247" fill="none" stroke="#6F6A60" stroke-width="0.7" opacity="0.22"/><polyline points="386,247 485,190" fill="none" stroke="#6F6A60" stroke-width="0.7" opacity="0.22"/><polygon points="194,96 382,205 382,195 194,87" fill="url(#pmkb1)" stroke="#136337" stroke-width="0.7" stroke-linejoin="round"/><polygon points="391,205 480,153 480,144 391,195" fill="url(#pmkb2)" stroke="#0b4d29" stroke-width="0.7" stroke-linejoin="round"/><polygon points="193,97 204,104 186,119 174,113" fill="url(#poq0)" stroke="#e8e6e2" stroke-width="0" stroke-linejoin="round"/><polygon points="174,113 186,119 186,123 174,117" fill="url(#poq1)" stroke="#dbd8d1" stroke-width="0" stroke-linejoin="round"/><polygon points="204,104 215,110 197,126 186,119" fill="url(#pqizil0)" stroke="#a24636" stroke-width="0" stroke-linejoin="round"/><polygon points="186,119 197,126 197,129 186,123" fill="url(#pqizil1)" stroke="#8c3b2d" stroke-width="0" stroke-linejoin="round"/><polygon points="215,110 226,117 208,132 197,126" fill="url(#poq0)" stroke="#e8e6e2" stroke-width="0" stroke-linejoin="round"/><polygon points="197,126 208,132 208,136 197,129" fill="url(#poq1)" stroke="#dbd8d1" stroke-width="0" stroke-linejoin="round"/><polygon points="226,117 238,123 219,139 208,132" fill="url(#pqizil0)" stroke="#a24636" stroke-width="0" stroke-linejoin="round"/><polygon points="208,132 219,139 219,142 208,136" fill="url(#pqizil1)" stroke="#8c3b2d" stroke-width="0" stroke-linejoin="round"/><polygon points="238,123 249,129 230,145 219,139" fill="url(#poq0)" stroke="#e8e6e2" stroke-width="0" stroke-linejoin="round"/><polygon points="219,139 230,145 230,149 219,142" fill="url(#poq1)" stroke="#dbd8d1" stroke-width="0" stroke-linejoin="round"/><polygon points="249,129 260,136 241,151 230,145" fill="url(#pqizil0)" stroke="#a24636" stroke-width="0" stroke-linejoin="round"/><polygon points="230,145 241,151 241,155 230,149" fill="url(#pqizil1)" stroke="#8c3b2d" stroke-width="0" stroke-linejoin="round"/><polygon points="260,136 271,142 252,158 241,151" fill="url(#poq0)" stroke="#e8e6e2" stroke-width="0" stroke-linejoin="round"/><polygon points="241,151 252,158 252,162 241,155" fill="url(#poq1)" stroke="#dbd8d1" stroke-width="0" stroke-linejoin="round"/><polygon points="271,142 282,149 263,164 252,158" fill="url(#pqizil0)" stroke="#a24636" stroke-width="0" stroke-linejoin="round"/><polygon points="252,158 263,164 263,168 252,162" fill="url(#pqizil1)" stroke="#8c3b2d" stroke-width="0" stroke-linejoin="round"/><polygon points="282,149 293,155 275,171 263,164" fill="url(#poq0)" stroke="#e8e6e2" stroke-width="0" stroke-linejoin="round"/><polygon points="263,164 275,171 275,174 263,168" fill="url(#poq1)" stroke="#dbd8d1" stroke-width="0" stroke-linejoin="round"/><polygon points="293,155 304,161 286,177 275,171" fill="url(#pqizil0)" stroke="#a24636" stroke-width="0" stroke-linejoin="round"/><polygon points="275,171 286,177 286,181 275,174" fill="url(#pqizil1)" stroke="#8c3b2d" stroke-width="0" stroke-linejoin="round"/><polygon points="304,161 315,168 297,184 286,177" fill="url(#poq0)" stroke="#e8e6e2" stroke-width="0" stroke-linejoin="round"/><polygon points="286,177 297,184 297,187 286,181" fill="url(#poq1)" stroke="#dbd8d1" stroke-width="0" stroke-linejoin="round"/><polygon points="315,168 327,174 308,190 297,184" fill="url(#pqizil0)" stroke="#a24636" stroke-width="0" stroke-linejoin="round"/><polygon points="297,184 308,190 308,194 297,187" fill="url(#pqizil1)" stroke="#8c3b2d" stroke-width="0" stroke-linejoin="round"/><polygon points="327,174 338,181 319,196 308,190" fill="url(#poq0)" stroke="#e8e6e2" stroke-width="0" stroke-linejoin="round"/><polygon points="308,190 319,196 319,200 308,194" fill="url(#poq1)" stroke="#dbd8d1" stroke-width="0" stroke-linejoin="round"/><polygon points="338,181 349,187 330,203 319,196" fill="url(#pqizil0)" stroke="#a24636" stroke-width="0" stroke-linejoin="round"/><polygon points="319,196 330,203 330,207 319,200" fill="url(#pqizil1)" stroke="#8c3b2d" stroke-width="0" stroke-linejoin="round"/><polygon points="349,187 360,194 341,209 330,203" fill="url(#poq0)" stroke="#e8e6e2" stroke-width="0" stroke-linejoin="round"/><polygon points="330,203 341,209 341,213 330,207" fill="url(#poq1)" stroke="#dbd8d1" stroke-width="0" stroke-linejoin="round"/><polygon points="360,194 371,200 352,216 341,209" fill="url(#pqizil0)" stroke="#a24636" stroke-width="0" stroke-linejoin="round"/><polygon points="341,209 352,216 352,219 341,213" fill="url(#pqizil1)" stroke="#8c3b2d" stroke-width="0" stroke-linejoin="round"/><polygon points="371,200 382,206 364,222 352,216" fill="url(#poq0)" stroke="#e8e6e2" stroke-width="0" stroke-linejoin="round"/><polygon points="352,216 364,222 364,226 352,219" fill="url(#poq1)" stroke="#dbd8d1" stroke-width="0" stroke-linejoin="round"/><polygon points="414,219 447,200 447,177 414,196" fill="url(#poyna2)" stroke="#7a909a" stroke-width="0.7" stroke-linejoin="round"/><polygon points="263,194 292,211 292,205 263,189" fill="url(#pbeton1)" stroke="#bab7af" stroke-width="0.7" stroke-linejoin="round"/><polygon points="292,211 301,205 301,200 292,205" fill="url(#pbeton2)" stroke="#a09d95" stroke-width="0.7" stroke-linejoin="round"/><polygon points="272,183 301,200 292,205 263,189" fill="url(#pbeton0)" stroke="#ccc9c1" stroke-width="0.7" stroke-linejoin="round"/><polygon points="263,194 292,211 292,208 263,191" fill="url(#pbeton1)" stroke="#bab7af" stroke-width="0.7" stroke-linejoin="round"/><polygon points="292,211 297,208 297,205 292,208" fill="url(#pbeton2)" stroke="#a09d95" stroke-width="0.7" stroke-linejoin="round"/><polygon points="267,189 297,205 292,208 263,191" fill="url(#pbeton0)" stroke="#ccc9c1" stroke-width="0.7" stroke-linejoin="round"/><polygon points="402,259 417,268 417,251 402,242" fill="url(#ptana1)" stroke="#958a78" stroke-width="0.7" stroke-linejoin="round"/><polygon points="417,268 431,259 431,242 417,251" fill="url(#ptana2)" stroke="#7a7060" stroke-width="0.7" stroke-linejoin="round"/><polygon points="417,234 431,242 417,251 402,242" fill="url(#ptana0)" stroke="#a79c89" stroke-width="0.7" stroke-linejoin="round"/><polygon points="381,270 395,278 395,268 381,259" fill="url(#ptana1)" stroke="#958a78" stroke-width="0.7" stroke-linejoin="round"/><polygon points="395,278 410,270 410,259 395,268" fill="url(#ptana2)" stroke="#7a7060" stroke-width="0.7" stroke-linejoin="round"/><polygon points="395,251 410,259 395,268 381,259" fill="url(#ptana0)" stroke="#a79c89" stroke-width="0.7" stroke-linejoin="round"/><polygon points="124,151 124,151 123,151 123,152 122,152 122,152 121,152 120,152 120,152 119,151 119,151 119,151 119,80 119,80 119,81 120,81 120,81 121,81 122,81 122,81 123,81 123,81 124,80 124,80" fill="url(#pmetall1)" stroke="#a9ada9" stroke-width="0.7" stroke-linejoin="round"/><polygon points="123,81 122,81 121,81 121,81 120,81 119,81 119,80 119,80 119,79 119,79 120,79 121,79 122,79 123,79 123,79 124,80 124,80 123,81 123,81" fill="url(#pmetall0)" stroke="#bcc0bc" stroke-width="0.7" stroke-linejoin="round"/><polygon points="115,87 125,93 125,87 115,81" fill="url(#poq1)" stroke="#dbd8d1" stroke-width="0.7" stroke-linejoin="round"/><polygon points="125,93 130,90 130,84 125,87" fill="url(#poq2)" stroke="#c8c4bb" stroke-width="0.7" stroke-linejoin="round"/><polygon points="120,78 130,84 125,87 115,81" fill="url(#poq0)" stroke="#e8e6e2" stroke-width="0.7" stroke-linejoin="round"/><polygon points="125,90 133,97 138,94 130,87" fill="url(#pqoraMetall0)" stroke="#6b726d" stroke-width="0.7" stroke-linejoin="round"/></svg>