<svg xmlns="http://www.w3.org/2000/svg" viewBox="0 0 640 360" width="640" height="360" role="img" aria-label="Chorvachilik fermasi"><defs><linearGradient id="poq1" x1="0" y1="0" x2="0" y2="1"><stop offset="0" stop-color="#f9f6ef"/><stop offset="1" stop-color="#dedbd4"/></linearGradient><linearGradient id="poq2" x1="0" y1="0" x2="0" y2="1"><stop offset="0" stop-color="#e6e2d9"/><stop offset="1" stop-color="#cbc7be"/></linearGradient><linearGradient id="pyer0" x1="0" y1="0" x2="0" y2="1"><stop offset="0" stop-color="#f3efe5"/><stop offset="1" stop-color="#ebe7dd"/></linearGradient><linearGradient id="psuvoq1" x1="0" y1="0" x2="0" y2="1"><stop offset="0" stop-color="#f3ede1"/><stop offset="1" stop-color="#d8d2c6"/></linearGradient><linearGradient id="psuvoq2" x1="0" y1="0" x2="0" y2="1"><stop offset="0" stop-color="#ded6c7"/><stop offset="1" stop-color="#c3bbac"/></linearGradient><linearGradient id="pshifer1" x1="0" y1="0" x2="0" y2="1"><stop offset="0" stop-color="#c1c4be"/><stop offset="1" stop-color="#a6a9a3"/></linearGradient><linearGradient id="pshifer2" x1="0" y1="0" x2="0" y2="1"><stop offset="0" stop-color="#a7aaa4"/><stop offset="1" stop-color="#8c8f89"/></linearGradient><linearGradient id="pbeton0" x1="0" y1="0" x2="0" y2="1"><stop offset="0" stop-color="#e4e1d9"/><stop offset="1" stop-color="#dcd9d1"/></linearGradient><linearGradient id="pqoraMetall1" x1="0" y1="0" x2="0" y2="1"><stop offset="0" stop-color="#787f7a"/><stop offset="1" stop-color="#5d645f"/></linearGradient><linearGradient id="pdarvoza1" x1="0" y1="0" x2="0" y2="1"><stop offset="0" stop-color="#527657"/><stop offset="1" stop-color="#375b3c"/></linearGradient><linearGradient id="pmetall1" x1="0" y1="0" x2="0" y2="1"><stop offset="0" stop-color="#c7cbc7"/><stop offset="1" stop-color="#acb0ac"/></linearGradient><linearGradient id="pmetall0" x1="0" y1="0" x2="0" y2="1"><stop offset="0" stop-color="#d4d8d4"/><stop offset="1" stop-color="#ccd0cc"/></linearGradient><linearGradient id="pkokTom1" x1="0" y1="0" x2="0" y2="1"><stop offset="0" stop-color="#829dac"/><stop offset="1" stop-color="#678291"/></linearGradient><linearGradient id="pkokTom0" x1="0" y1="0" x2="0" y2="1"><stop offset="0" stop-color="#91adbf"/><stop offset="1" stop-color="#89a5b7"/></linearGradient><linearGradient id="psariq1" x1="0" y1="0" x2="0" y2="1"><stop offset="0" stop-color="#cfa24d"/><stop offset="1" stop-color="#b48732"/></linearGradient><linearGradient id="psariq0" x1="0" y1="0" x2="0" y2="1"><stop offset="0" stop-color="#dfaf54"/><stop offset="1" stop-color="#d7a74c"/></linearGradient><linearGradient id="ptana1" x1="0" y1="0" x2="0" y2="1"><stop offset="0" stop-color="#b3a896"/><stop offset="1" stop-color="#988d7b"/></linearGradient><linearGradient id="ptana0" x1="0" y1="0" x2="0" y2="1"><stop offset="0" stop-color="#bfb4a1"/><stop offset="1" stop-color="#b7ac99"/></linearGradient><linearGradient id="ptana2" x1="0" y1="0" x2="0" y2="1"><stop offset="0" stop-color="#988e7e"/><stop offset="1" stop-color="#7d7363"/></linearGradient><linearGradient id="poq0" x1="0" y1="0" x2="0" y2="1"><stop offset="0" stop-color="#fffefa"/><stop offset="1" stop-color="#f8f6f2"/></linearGradient><linearGradient id="pqoraMetall0" x1="0" y1="0" x2="0" y2="1"><stop offset="0" stop-color="#838a85"/><stop offset="1" stop-color="#7b827d"/></linearGradient><linearGradient id="pkok0" x1="0" y1="0" x2="0" y2="1"><stop offset="0" stop-color="#648398"/><stop offset="1" stop-color="#5c7b90"/></linearGradient><filter id="soya" x="-30%" y="-30%" width="160%" height="180%"><feGaussianBlur stdDeviation="14.1"/></filter></defs><rect width="640" height="360" fill="#FFFFFF"/><g filter="url(#soya)" opacity="0.17"><polygon points="226,24 599,239 414,346 41,131" fill="#3C3A33" stroke="none" stroke-width="0" stroke-linejoin="round"/></g><polygon points="41,126 414,342 414,336 41,121" fill="url(#poq1)" stroke="#dbd8d1" stroke-width="0.6" stroke-linejoin="round"/><polygon points="414,342 599,235 599,229 414,336" fill="url(#poq2)" stroke="#c8c4bb" stroke-width="0.6" stroke-linejoin="round"/><polygon points="226,14 599,229 414,336 41,121" fill="url(#pyer0)" stroke="#dbd7cd" stroke-width="0.6" stroke-linejoin="round"/><polyline points="226,21 587,229 414,329 53,121 226,21" fill="none" stroke="#8F897C" stroke-width="0.7" opacity="0.3" stroke-dasharray="4 4"/><polygon points="200,90 426,221 426,193 200,63" fill="url(#psuvoq1)" stroke="#d5cfc3" stroke-width="0.7" stroke-linejoin="round"/><polygon points="426,221 482,188 482,160 426,193" fill="url(#psuvoq2)" stroke="#c0b8a9" stroke-width="0.7" stroke-linejoin="round"/><polygon points="191,63 426,198 458,163 223,27" fill="url(#pshifer1)" stroke="#a3a6a0" stroke-width="0.7" stroke-linejoin="round"/><polygon points="426,198 458,163 491,160" fill="url(#pshifer2)" stroke="#898c86" stroke-width="0.7" stroke-linejoin="round"/><polygon points="191,63 191,65 426,200 426,198" fill="url(#pshifer2)" stroke="#898c86" stroke-width="0.7" stroke-linejoin="round"/><polyline points="195,58 430,194" fill="none" stroke="#6F6A60" stroke-width="0.5" opacity="0.16"/><polyline points="199,54 434,189" fill="none" stroke="#6F6A60" stroke-width="0.5" opacity="0.16"/><polyline points="203,49 438,185" fill="none" stroke="#6F6A60" stroke-width="0.5" opacity="0.16"/><polyline points="207,45 442,180" fill="none" stroke="#6F6A60" stroke-width="0.5" opacity="0.16"/><polyline points="211,40 446,176" fill="none" stroke="#6F6A60" stroke-width="0.5" opacity="0.16"/><polyline points="216,36 450,171" fill="none" stroke="#6F6A60" stroke-width="0.5" opacity="0.16"/><polyline points="220,31 455,167" fill="none" stroke="#6F6A60" stroke-width="0.5" opacity="0.16"/><polygon points="222,28 457,164 457,163 222,27" fill="url(#pshifer1)" stroke="#a3a6a0" stroke-width="0.7" stroke-linejoin="round"/><polygon points="457,164 460,163 460,162 457,163" fill="url(#pshifer2)" stroke="#898c86" stroke-width="0.7" stroke-linejoin="round"/><polygon points="224,26 460,162 457,163 222,27" fill="url(#pbeton0)" stroke="#ccc9c1" stroke-width="0.7" stroke-linejoin="round"/><polygon points="210,83 223,91 223,80 210,73" fill="url(#pqoraMetall1)" stroke="#5a615c" stroke-width="0.7" stroke-linejoin="round"/><polygon points="230,95 243,102 243,92 230,84" fill="url(#pqoraMetall1)" stroke="#5a615c" stroke-width="0.7" stroke-linejoin="round"/><polygon points="249,106 262,113 262,103 249,96" fill="url(#pqoraMetall1)" stroke="#5a615c" stroke-width="0.7" stroke-linejoin="round"/><polygon points="269,117 282,125 282,114 269,107" fill="url(#pqoraMetall1)" stroke="#5a615c" stroke-width="0.7" stroke-linejoin="round"/><polygon points="288,129 301,136 301,126 288,118" fill="url(#pqoraMetall1)" stroke="#5a615c" stroke-width="0.7" stroke-linejoin="round"/><polygon points="308,140 321,147 321,137 308,129" fill="url(#pqoraMetall1)" stroke="#5a615c" stroke-width="0.7" stroke-linejoin="round"/><polygon points="328,151 340,159 340,148 328,141" fill="url(#pqoraMetall1)" stroke="#5a615c" stroke-width="0.7" stroke-linejoin="round"/><polygon points="347,162 360,170 360,159 347,152" fill="url(#pqoraMetall1)" stroke="#5a615c" stroke-width="0.7" stroke-linejoin="round"/><polygon points="367,174 379,181 379,171 367,163" fill="url(#pqoraMetall1)" stroke="#5a615c" stroke-width="0.7" stroke-linejoin="round"/><polygon points="386,185 399,192 399,182 386,175" fill="url(#pqoraMetall1)" stroke="#5a615c" stroke-width="0.7" stroke-linejoin="round"/><polygon points="406,196 418,204 418,193 406,186" fill="url(#pqoraMetall1)" stroke="#5a615c" stroke-width="0.7" stroke-linejoin="round"/><polygon points="301,149 312,155 312,133 301,127" fill="url(#pdarvoza1)" stroke="#345839" stroke-width="0.7" stroke-linejoin="round"/><polygon points="117,138 343,269 343,241 117,110" fill="url(#psuvoq1)" stroke="#d5cfc3" stroke-width="0.7" stroke-linejoin="round"/><polygon points="343,269 399,236 399,208 343,241" fill="url(#psuvoq2)" stroke="#c0b8a9" stroke-width="0.7" stroke-linejoin="round"/><polygon points="108,110 343,246 376,211 141,75" fill="url(#pshifer1)" stroke="#a3a6a0" stroke-width="0.7" stroke-linejoin="round"/><polygon points="343,246 376,211 408,208" fill="url(#pshifer2)" stroke="#898c86" stroke-width="0.7" stroke-linejoin="round"/><polygon points="108,110 108,112 343,248 343,246" fill="url(#pshifer2)" stroke="#898c86" stroke-width="0.7" stroke-linejoin="round"/><polyline points="112,106 347,241" fill="none" stroke="#6F6A60" stroke-width="0.5" opacity="0.16"/><polyline points="116,101 351,237" fill="none" stroke="#6F6A60" stroke-width="0.5" opacity="0.16"/><polyline points="120,97 355,233" fill="none" stroke="#6F6A60" stroke-width="0.5" opacity="0.16"/><polyline points="125,93 359,228" fill="none" stroke="#6F6A60" stroke-width="0.5" opacity="0.16"/><polyline points="129,88 364,224" fill="none" stroke="#6F6A60" stroke-width="0.5" opacity="0.16"/><polyline points="133,84 368,219" fill="none" stroke="#6F6A60" stroke-width="0.5" opacity="0.16"/><polyline points="137,79 372,215" fill="none" stroke="#6F6A60" stroke-width="0.5" opacity="0.16"/><polygon points="139,76 375,212 375,211 139,75" fill="url(#pshifer1)" stroke="#a3a6a0" stroke-width="0.7" stroke-linejoin="round"/><polygon points="375,212 377,211 377,209 375,211" fill="url(#pshifer2)" stroke="#898c86" stroke-width="0.7" stroke-linejoin="round"/><polygon points="142,73 377,209 375,211 139,75" fill="url(#pbeton0)" stroke="#ccc9c1" stroke-width="0.7" stroke-linejoin="round"/><polygon points="128,131 140,139 140,128 128,121" fill="url(#pqoraMetall1)" stroke="#5a615c" stroke-width="0.7" stroke-linejoin="round"/><polygon points="147,143 160,150 160,139 147,132" fill="url(#pqoraMetall1)" stroke="#5a615c" stroke-width="0.7" stroke-linejoin="round"/><polygon points="167,154 179,161 179,151 167,143" fill="url(#pqoraMetall1)" stroke="#5a615c" stroke-width="0.7" stroke-linejoin="round"/><polygon points="186,165 199,172 199,162 186,155" fill="url(#pqoraMetall1)" stroke="#5a615c" stroke-width="0.7" stroke-linejoin="round"/><polygon points="206,176 219,184 219,173 206,166" fill="url(#pqoraMetall1)" stroke="#5a615c" stroke-width="0.7" stroke-linejoin="round"/><polygon points="225,188 238,195 238,185 225,177" fill="url(#pqoraMetall1)" stroke="#5a615c" stroke-width="0.7" stroke-linejoin="round"/><polygon points="245,199 258,206 258,196 245,188" fill="url(#pqoraMetall1)" stroke="#5a615c" stroke-width="0.7" stroke-linejoin="round"/><polygon points="264,210 277,218 277,207 264,200" fill="url(#pqoraMetall1)" stroke="#5a615c" stroke-width="0.7" stroke-linejoin="round"/><polygon points="284,221 297,229 297,218 284,211" fill="url(#pqoraMetall1)" stroke="#5a615c" stroke-width="0.7" stroke-linejoin="round"/><polygon points="303,233 316,240 316,230 303,222" fill="url(#pqoraMetall1)" stroke="#5a615c" stroke-width="0.7" stroke-linejoin="round"/><polygon points="323,244 336,251 336,241 323,234" fill="url(#pqoraMetall1)" stroke="#5a615c" stroke-width="0.7" stroke-linejoin="round"/><polygon points="219,197 229,203 229,181 219,175" fill="url(#pdarvoza1)" stroke="#345839" stroke-width="0.7" stroke-linejoin="round"/><polygon points="491,223 491,223 491,223 491,224 490,224 490,224 489,224 489,224 488,224 488,223 488,223 488,223 488,158 488,158 488,158 488,159 489,159 489,159 490,159 490,159 491,159 491,158 491,158 491,158" fill="url(#pmetall1)" stroke="#a9ada9" stroke-width="0.7" stroke-linejoin="round"/><polygon points="491,159 490,159 490,159 489,159 488,159 488,158 488,158 488,158 488,157 488,157 489,157 489,157 490,157 490,157 491,157 491,158 491,158 491,158 491,159" fill="url(#pmetall0)" stroke="#bcc0bc" stroke-width="0.7" stroke-linejoin="round"/><polygon points="509,233 509,234 509,234 509,234 508,234 508,234 507,234 507,234 506,234 506,234 506,234 506,233 506,168 506,169 506,169 506,169 507,169 507,169 508,169 508,169 509,169 509,169 509,169 509,168" fill="url(#pmetall1)" stroke="#a9ada9" stroke-width="0.7" stroke-linejoin="round"/><polygon points="509,169 508,169 508,169 507,169 507,169 506,169 506,169 506,168 506,168 506,168 507,167 507,167 508,167 508,167 509,168 509,168 509,168 509,169 509,169" fill="url(#pmetall0)" stroke="#bcc0bc" stroke-width="0.7" stroke-linejoin="round"/><polygon points="473,233 473,234 473,234 473,234 472,234 472,234 471,234 471,234 470,234 470,234 470,234 470,233 470,168 470,169 470,169 470,169 471,169 471,169 472,169 472,169 473,169 473,169 473,169 473,168" fill="url(#pmetall1)" stroke="#a9ada9" stroke-width="0.7" stroke-linejoin="round"/><polygon points="473,169 472,169 472,169 471,169 470,169 470,169 470,169 470,168 470,168 470,168 471,167 471,167 472,167 472,167 473,168 473,168 473,168 473,169 473,169" fill="url(#pmetall0)" stroke="#bcc0bc" stroke-width="0.7" stroke-linejoin="round"/><polygon points="512,169 511,173 508,176 504,179 499,181 493,182 486,182 480,181 475,179 471,176 468,173 467,169 467,145 468,148 471,152 475,155 480,157 486,158 493,158 499,157 504,155 508,152 511,148 512,145" fill="url(#pmetall1)" stroke="#a9ada9" stroke-width="0.7" stroke-linejoin="round"/><polygon points="505,154 499,157 491,158 484,157 477,155 471,152 468,148 467,144 469,139 474,136 480,133 488,132 495,132 502,134 508,137 511,142 512,146 510,150 505,154" fill="url(#pmetall0)" stroke="#bcc0bc" stroke-width="0.7" stroke-linejoin="round"/><polygon points="512,145 511,148 508,152 504,155 499,157 493,158 486,158 480,157 475,155 471,152 468,148 467,145 467,144 468,148 471,151 475,154 480,156 486,157 493,157 499,156 504,154 508,151 511,148 512,144" fill="url(#pkokTom1)" stroke="#647f8e" stroke-width="0.7" stroke-linejoin="round"/><polygon points="505,153 499,156 491,157 484,156 477,155 471,151 468,147 467,143 469,139 474,135 480,132 488,131 495,132 502,133 508,137 511,141 512,145 510,149 505,153" fill="url(#pkokTom0)" stroke="#7995a7" stroke-width="0.7" stroke-linejoin="round"/><polygon points="413,274 415,272 416,270 416,267 416,263 414,260 412,257 410,254 407,252 405,250 402,250 400,251 389,257 391,256 394,257 396,258 399,260 401,263 403,266 404,270 405,273 405,276 404,278 402,280" fill="url(#psariq1)" stroke="#b1842f" stroke-width="0.7" stroke-linejoin="round"/><polygon points="405,274 404,270 403,266 400,262 397,259 394,257 391,256 388,257 387,260 386,263 387,267 388,271 391,275 394,278 397,280 400,281 403,280 404,277 405,274" fill="url(#psariq0)" stroke="#c7973c" stroke-width="0.7" stroke-linejoin="round"/><polygon points="391,287 392,285 393,283 394,280 393,276 392,273 390,270 388,267 385,265 382,263 380,263 378,264 366,270 368,269 371,270 374,271 376,273 379,276 380,279 382,283 382,286 382,289 381,291 380,293" fill="url(#psariq1)" stroke="#b1842f" stroke-width="0.7" stroke-linejoin="round"/><polygon points="382,287 382,283 380,279 378,275 375,272 371,270 368,269 366,270 364,273 364,276 364,280 366,284 368,288 371,291 375,293 378,294 380,293 382,290 382,287" fill="url(#psariq0)" stroke="#c7973c" stroke-width="0.7" stroke-linejoin="round"/><polygon points="144,84 144,84 144,84 144,84 144,84 144,84 143,84 143,84 143,84 143,84 143,84 143,84 143,71 143,71 143,71 143,71 143,71 143,71 144,71 144,71 144,71 144,71 144,71 144,71" fill="url(#ptana1)" stroke="#958a78" stroke-width="0.7" stroke-linejoin="round"/><polygon points="144,71 144,71 143,71 143,71 143,71 143,71 143,71 143,71 143,71 143,71 143,71 143,71 144,71 144,71 144,71 144,71 144,71 144,71 144,71" fill="url(#ptana0)" stroke="#a79c89" stroke-width="0.7" stroke-linejoin="round"/><polygon points="151,88 151,88 151,88 151,88 150,88 150,88 150,88 150,88 150,88 150,88 150,88 150,88 150,75 150,75 150,75 150,75 150,75 150,75 150,75 150,75 151,75 151,75 151,75 151,75" fill="url(#ptana1)" stroke="#958a78" stroke-width="0.7" stroke-linejoin="round"/><polygon points="151,75 150,75 150,75 150,75 150,75 150,75 150,75 150,75 150,75 150,75 150,74 150,74 150,74 151,75 151,75 151,75 151,75 151,75 151,75" fill="url(#ptana0)" stroke="#a79c89" stroke-width="0.7" stroke-linejoin="round"/><polygon points="158,92 158,92 157,92 157,92 157,92 157,92 157,92 157,92 157,92 156,92 156,92 156,92 156,79 156,79 156,79 157,79 157,79 157,79 157,79 157,79 157,79 157,79 158,79 158,79" fill="url(#ptana1)" stroke="#958a78" stroke-width="0.7" stroke-linejoin="round"/><polygon points="157,79 157,79 157,79 157,79 157,79 156,79 156,79 156,79 156,79 156,78 157,78 157,78 157,78 157,78 157,79 158,79 158,79 158,79 157,79" fill="url(#ptana0)" stroke="#a79c89" stroke-width="0.7" stroke-linejoin="round"/><polygon points="164,96 164,96 164,96 164,96 164,96 164,96 164,96 163,96 163,96 163,96 163,96 163,96 163,83 163,83 163,83 163,83 163,83 164,83 164,83 164,83 164,83 164,83 164,83 164,83" fill="url(#ptana1)" stroke="#958a78" stroke-width="0.7" stroke-linejoin="round"/><polygon points="164,83 164,83 164,83 164,83 163,83 163,83 163,83 163,83 163,82 163,82 163,82 164,82 164,82 164,82 164,82 164,83 164,83 164,83 164,83" fill="url(#ptana0)" stroke="#a79c89" stroke-width="0.7" stroke-linejoin="round"/><polygon points="171,100 171,100 171,100 171,100 171,100 171,100 170,100 170,100 170,100 170,100 170,100 170,100 170,87 170,87 170,87 170,87 170,87 170,87 171,87 171,87 171,87 171,87 171,87 171,87" fill="url(#ptana1)" stroke="#958a78" stroke-width="0.7" stroke-linejoin="round"/><polygon points="171,87 171,87 171,87 170,87 170,87 170,87 170,87 170,86 170,86 170,86 170,86 170,86 171,86 171,86 171,86 171,86 171,87 171,87 171,87" fill="url(#ptana0)" stroke="#a79c89" stroke-width="0.7" stroke-linejoin="round"/><polygon points="178,103 178,104 178,104 178,104 177,104 177,104 177,104 177,104 177,104 177,104 177,104 177,103 177,90 177,91 177,91 177,91 177,91 177,91 177,91 177,91 178,91 178,91 178,91 178,90" fill="url(#ptana1)" stroke="#958a78" stroke-width="0.7" stroke-linejoin="round"/><polygon points="178,91 178,91 177,91 177,91 177,91 177,91 177,91 177,90 177,90 177,90 177,90 177,90 177,90 178,90 178,90 178,90 178,90 178,91 178,91" fill="url(#ptana0)" stroke="#a79c89" stroke-width="0.7" stroke-linejoin="round"/><polygon points="185,107 185,107 185,108 184,108 184,108 184,108 184,108 184,108 184,108 183,108 183,107 183,107 183,94 183,94 183,95 184,95 184,95 184,95 184,95 184,95 184,95 185,95 185,94 185,94" fill="url(#ptana1)" stroke="#958a78" stroke-width="0.7" stroke-linejoin="round"/><polygon points="184,95 184,95 184,95 184,95 184,95 183,95 183,94 183,94 183,94 184,94 184,94 184,94 184,94 184,94 185,94 185,94 185,94 185,94 184,95" fill="url(#ptana0)" stroke="#a79c89" stroke-width="0.7" stroke-linejoin="round"/><polygon points="191,111 191,111 191,111 191,112 191,112 191,112 191,112 190,112 190,112 190,111 190,111 190,111 190,98 190,98 190,98 190,99 190,99 191,99 191,99 191,99 191,99 191,98 191,98 191,98" fill="url(#ptana1)" stroke="#958a78" stroke-width="0.7" stroke-linejoin="round"/><polygon points="191,99 191,99 191,99 191,99 190,99 190,98 190,98 190,98 190,98 190,98 190,98 191,98 191,98 191,98 191,98 191,98 191,98 191,98 191,99" fill="url(#ptana0)" stroke="#a79c89" stroke-width="0.7" stroke-linejoin="round"/><polygon points="198,115 198,115 198,115 198,115 198,116 198,116 197,116 197,116 197,115 197,115 197,115 197,115 197,102 197,102 197,102 197,102 197,102 197,103 198,103 198,102 198,102 198,102 198,102 198,102" fill="url(#ptana1)" stroke="#958a78" stroke-width="0.7" stroke-linejoin="round"/><polygon points="198,102 198,102 198,103 197,103 197,102 197,102 197,102 197,102 197,102 197,102 197,102 197,102 198,102 198,102 198,102 198,102 198,102 198,102 198,102" fill="url(#ptana0)" stroke="#a79c89" stroke-width="0.7" stroke-linejoin="round"/><polygon points="205,119 205,119 205,119 205,119 205,119 204,119 204,119 204,119 204,119 204,119 204,119 204,119 204,106 204,106 204,106 204,106 204,106 204,106 204,106 205,106 205,106 205,106 205,106 205,106" fill="url(#ptana1)" stroke="#958a78" stroke-width="0.7" stroke-linejoin="round"/><polygon points="205,106 205,106 204,106 204,106 204,106 204,106 204,106 204,106 204,106 204,106 204,106 204,106 204,106 205,106 205,106 205,106 205,106 205,106 205,106" fill="url(#ptana0)" stroke="#a79c89" stroke-width="0.7" stroke-linejoin="round"/><polygon points="212,123 212,123 212,123 211,123 211,123 211,123 211,123 211,123 211,123 211,123 210,123 210,123 210,110 210,110 211,110 211,110 211,110 211,110 211,110 211,110 211,110 212,110 212,110 212,110" fill="url(#ptana1)" stroke="#958a78" stroke-width="0.7" stroke-linejoin="round"/><polygon points="212,110 211,110 211,110 211,110 211,110 211,110 210,110 210,110 210,110 211,110 211,110 211,110 211,110 211,110 212,110 212,110 212,110 212,110 212,110" fill="url(#ptana0)" stroke="#a79c89" stroke-width="0.7" stroke-linejoin="round"/><polygon points="218,127 218,127 218,127 218,127 218,127 218,127 218,127 218,127 217,127 217,127 217,127 217,127 217,114 217,114 217,114 217,114 218,114 218,114 218,114 218,114 218,114 218,114 218,114 218,114" fill="url(#ptana1)" stroke="#958a78" stroke-width="0.7" stroke-linejoin="round"/><polygon points="218,114 218,114 218,114 218,114 217,114 217,114 217,114 217,114 217,114 217,114 218,114 218,113 218,114 218,114 218,114 218,114 218,114 218,114 218,114" fill="url(#ptana0)" stroke="#a79c89" stroke-width="0.7" stroke-linejoin="round"/><polygon points="225,131 225,131 225,131 225,131 225,131 225,131 224,131 224,131 224,131 224,131 224,131 224,131 224,118 224,118 224,118 224,118 224,118 224,118 225,118 225,118 225,118 225,118 225,118 225,118" fill="url(#ptana1)" stroke="#958a78" stroke-width="0.7" stroke-linejoin="round"/><polygon points="225,118 225,118 225,118 224,118 224,118 224,118 224,118 224,118 224,118 224,118 224,117 225,117 225,117 225,117 225,118 225,118 225,118 225,118 225,118" fill="url(#ptana0)" stroke="#a79c89" stroke-width="0.7" stroke-linejoin="round"/><polygon points="143,72 225,120 225,119 143,71" fill="url(#ptana1)" stroke="#958a78" stroke-width="0.7" stroke-linejoin="round"/><polygon points="225,120 226,119 226,118 225,119" fill="url(#ptana2)" stroke="#7a7060" stroke-width="0.7" stroke-linejoin="round"/><polygon points="143,70 226,118 225,119 143,71" fill="url(#ptana0)" stroke="#a79c89" stroke-width="0.7" stroke-linejoin="round"/><polygon points="461,279 461,280 461,280 460,280 460,280 460,280 459,280 459,280 458,280 458,280 458,280 458,279 458,227 458,228 458,228 458,228 459,228 459,228 460,228 460,228 460,228 461,228 461,228 461,227" fill="url(#pmetall1)" stroke="#a9ada9" stroke-width="0.7" stroke-linejoin="round"/><polygon points="460,228 460,228 460,228 459,228 459,228 458,228 458,228 458,227 458,227 458,227 459,227 459,227 460,227 460,227 461,227 461,227 461,227 461,228 460,228" fill="url(#pmetall0)" stroke="#bcc0bc" stroke-width="0.7" stroke-linejoin="round"/><polygon points="456,231 461,235 461,231 456,228" fill="url(#poq1)" stroke="#dbd8d1" stroke-width="0.7" stroke-linejoin="round"/><polygon points="461,235 464,233 464,229 461,231" fill="url(#poq2)" stroke="#c8c4bb" stroke-width="0.7" stroke-linejoin="round"/><polygon points="459,226 464,229 461,231 456,228" fill="url(#poq0)" stroke="#e8e6e2" stroke-width="0.7" stroke-linejoin="round"/><polygon points="461,233 466,237 469,235 464,231" fill="url(#pqoraMetall0)" stroke="#6b726d" stroke-width="0.7" stroke-linejoin="round"/><polygon points="449,220 462,222 450,229 437,227" fill="url(#pkok0)" stroke="#4c6b80" stroke-width="0.7" stroke-linejoin="round"/></svg>