<svg xmlns="http://www.w3.org/2000/svg" viewBox="0 0 640 360" width="640" height="360" role="img" aria-label="Chorvachilik fermasi"><defs><linearGradient id="poq1" x1="0" y1="0" x2="0" y2="1"><stop offset="0" stop-color="#f9f6ef"/><stop offset="1" stop-color="#dedbd4"/></linearGradient><linearGradient id="poq2" x1="0" y1="0" x2="0" y2="1"><stop offset="0" stop-color="#e6e2d9"/><stop offset="1" stop-color="#cbc7be"/></linearGradient><linearGradient id="pyer0" x1="0" y1="0" x2="0" y2="1"><stop offset="0" stop-color="#f3efe5"/><stop offset="1" stop-color="#ebe7dd"/></linearGradient><linearGradient id="psuvoq1" x1="0" y1="0" x2="0" y2="1"><stop offset="0" stop-color="#f3ede1"/><stop offset="1" stop-color="#d8d2c6"/></linearGradient><linearGradient id="psuvoq2" x1="0" y1="0" x2="0" y2="1"><stop offset="0" stop-color="#ded6c7"/><stop offset="1" stop-color="#c3bbac"/></linearGradient><linearGradient id="pshifer1" x1="0" y1="0" x2="0" y2="1"><stop offset="0" stop-color="#c1c4be"/><stop offset="1" stop-color="#a6a9a3"/></linearGradient><linearGradient id="pshifer2" x1="0" y1="0" x2="0" y2="1"><stop offset="0" stop-color="#a7aaa4"/><stop offset="1" stop-color="#8c8f89"/></linearGradient><linearGradient id="pbeton0" x1="0" y1="0" x2="0" y2="1"><stop offset="0" stop-color="#e4e1d9"/><stop offset="1" stop-color="#dcd9d1"/></linearGradient><linearGradient id="pqoraMetall1" x1="0" y1="0" x2="0" y2="1"><stop offset="0" stop-color="#787f7a"/><stop offset="1" stop-color="#5d645f"/></linearGradient><linearGradient id="pdarvoza1" x1="0" y1="0" x2="0" y2="1"><stop offset="0" stop-color="#527657"/><stop offset="1" stop-color="#375b3c"/></linearGradient><linearGradient id="pmetall1" x1="0" y1="0" x2="0" y2="1"><stop offset="0" stop-color="#c7cbc7"/><stop offset="1" stop-color="#acb0ac"/></linearGradient><linearGradient id="pmetall0" x1="0" y1="0" x2="0" y2="1"><stop offset="0" stop-color="#d4d8d4"/><stop offset="1" stop-color="#ccd0cc"/></linearGradient><linearGradient id="pkokTom1" x1="0" y1="0" x2="0" y2="1"><stop offset="0" stop-color="#829dac"/><stop offset="1" stop-color="#678291"/></linearGradient><linearGradient id="pkokTom0" x1="0" y1="0" x2="0" y2="1"><stop offset="0" stop-color="#91adbf"/><stop offset="1" stop-color="#89a5b7"/></linearGradient><linearGradient id="psariq1" x1="0" y1="0" x2="0" y2="1"><stop offset="0" stop-color="#cfa24d"/><stop offset="1" stop-color="#b48732"/></linearGradient><linearGradient id="psariq0" x1="0" y1="0" x2="0" y2="1"><stop offset="0" stop-color="#dfaf54"/><stop offset="1" stop-color="#d7a74c"/></linearGradient><linearGradient id="ptana1" x1="0" y1="0" x2="0" y2="1"><stop offset="0" stop-color="#b3a896"/><stop offset="1" stop-color="#988d7b"/></linearGradient><linearGradient id="ptana0" x1="0" y1="0" x2="0" y2="1"><stop offset="0" stop-color="#bfb4a1"/><stop offset="1" stop-color="#b7ac99"/></linearGradient><linearGradient id="ptana2" x1="0" y1="0" x2="0" y2="1"><stop offset="0" stop-color="#988e7e"/><stop offset="1" stop-color="#7d7363"/></linearGradient><linearGradient id="poq0" x1="0" y1="0" x2="0" y2="1"><stop offset="0" stop-color="#fffefa"/><stop offset="1" stop-color="#f8f6f2"/></linearGradient><linearGradient id="pqoraMetall0" x1="0" y1="0" x2="0" y2="1"><stop offset="0" stop-color="#838a85"/><stop offset="1" stop-color="#7b827d"/></linearGradient><linearGradient id="pkok0" x1="0" y1="0" x2="0" y2="1"><stop offset="0" stop-color="#648398"/><stop offset="1" stop-color="#5c7b90"/></linearGradient><filter id="soya" x="-30%" y="-30%" width="160%" height="180%"><feGaussianBlur stdDeviation="14.1"/></filter></defs><rect width="640" height="360" fill="#FFFFFF"/><g filter="url(#soya)" opacity="0.17"><polygon points="235,24 599,234 405,346 41,136" fill="#3C3A33" stroke="none" stroke-width="0" stroke-linejoin="round"/></g><polygon points="41,132 405,341 405,336 41,126" fill="url(#poq1)" stroke="#dbd8d1" stroke-width="0.6" stroke-linejoin="round"/><polygon points="405,341 599,229 599,224 405,336" fill="url(#poq2)" stroke="#c8c4bb" stroke-width="0.6" stroke-linejoin="round"/><polygon points="235,14 599,224 405,336 41,126" fill="url(#pyer0)" stroke="#dbd7cd" stroke-width="0.6" stroke-linejoin="round"/><polyline points="235,21 586,224 405,328 54,126 235,21" fill="none" stroke="#8F897C" stroke-width="0.7" opacity="0.3" stroke-dasharray="4 4"/><polygon points="207,94 417,215 417,185 207,64" fill="url(#psuvoq1)" stroke="#d5cfc3" stroke-width="0.7" stroke-linejoin="round"/><polygon points="417,215 477,180 477,150 417,185" fill="url(#psuvoq2)" stroke="#c0b8a9" stroke-width="0.7" stroke-linejoin="round"/><polygon points="198,64 417,191 452,153 233,26" fill="url(#pshifer1)" stroke="#a3a6a0" stroke-width="0.7" stroke-linejoin="round"/><polygon points="417,191 452,153 487,150" fill="url(#pshifer2)" stroke="#898c86" stroke-width="0.7" stroke-linejoin="round"/><polygon points="198,64 198,66 417,193 417,191" fill="url(#pshifer2)" stroke="#898c86" stroke-width="0.7" stroke-linejoin="round"/><polyline points="202,59 421,186" fill="none" stroke="#6F6A60" stroke-width="0.5" opacity="0.16"/><polyline points="207,54 426,181" fill="none" stroke="#6F6A60" stroke-width="0.5" opacity="0.16"/><polyline points="211,50 430,176" fill="none" stroke="#6F6A60" stroke-width="0.5" opacity="0.16"/><polyline points="215,45 435,171" fill="none" stroke="#6F6A60" stroke-width="0.5" opacity="0.16"/><polyline points="220,40 439,167" fill="none" stroke="#6F6A60" stroke-width="0.5" opacity="0.16"/><polyline points="224,35 444,162" fill="none" stroke="#6F6A60" stroke-width="0.5" opacity="0.16"/><polyline points="229,31 448,157" fill="none" stroke="#6F6A60" stroke-width="0.5" opacity="0.16"/><polygon points="231,27 451,154 451,153 231,26" fill="url(#pshifer1)" stroke="#a3a6a0" stroke-width="0.7" stroke-linejoin="round"/><polygon points="451,154 454,153 454,152 451,153" fill="url(#pshifer2)" stroke="#898c86" stroke-width="0.7" stroke-linejoin="round"/><polygon points="234,24 454,152 451,153 231,26" fill="url(#pbeton0)" stroke="#ccc9c1" stroke-width="0.7" stroke-linejoin="round"/><polygon points="219,86 232,94 232,83 219,75" fill="url(#pqoraMetall1)" stroke="#5a615c" stroke-width="0.7" stroke-linejoin="round"/><polygon points="239,98 253,106 253,95 239,87" fill="url(#pqoraMetall1)" stroke="#5a615c" stroke-width="0.7" stroke-linejoin="round"/><polygon points="260,110 274,118 274,107 260,99" fill="url(#pqoraMetall1)" stroke="#5a615c" stroke-width="0.7" stroke-linejoin="round"/><polygon points="281,122 295,130 295,119 281,111" fill="url(#pqoraMetall1)" stroke="#5a615c" stroke-width="0.7" stroke-linejoin="round"/><polygon points="302,134 316,142 316,131 302,123" fill="url(#pqoraMetall1)" stroke="#5a615c" stroke-width="0.7" stroke-linejoin="round"/><polygon points="323,147 337,154 337,143 323,135" fill="url(#pqoraMetall1)" stroke="#5a615c" stroke-width="0.7" stroke-linejoin="round"/><polygon points="344,159 358,166 358,155 344,147" fill="url(#pqoraMetall1)" stroke="#5a615c" stroke-width="0.7" stroke-linejoin="round"/><polygon points="365,171 378,179 378,167 365,160" fill="url(#pqoraMetall1)" stroke="#5a615c" stroke-width="0.7" stroke-linejoin="round"/><polygon points="386,183 399,191 399,179 386,172" fill="url(#pqoraMetall1)" stroke="#5a615c" stroke-width="0.7" stroke-linejoin="round"/><polygon points="407,195 420,203 420,192 407,184" fill="url(#pqoraMetall1)" stroke="#5a615c" stroke-width="0.7" stroke-linejoin="round"/><polygon points="302,148 313,155 313,131 302,125" fill="url(#pdarvoza1)" stroke="#345839" stroke-width="0.7" stroke-linejoin="round"/><polygon points="119,145 329,266 329,236 119,115" fill="url(#psuvoq1)" stroke="#d5cfc3" stroke-width="0.7" stroke-linejoin="round"/><polygon points="329,266 389,231 389,201 329,236" fill="url(#psuvoq2)" stroke="#c0b8a9" stroke-width="0.7" stroke-linejoin="round"/><polygon points="109,115 329,242 364,204 144,77" fill="url(#pshifer1)" stroke="#a3a6a0" stroke-width="0.7" stroke-linejoin="round"/><polygon points="329,242 364,204 399,201" fill="url(#pshifer2)" stroke="#898c86" stroke-width="0.7" stroke-linejoin="round"/><polygon points="109,115 109,117 329,244 329,242" fill="url(#pshifer2)" stroke="#898c86" stroke-width="0.7" stroke-linejoin="round"/><polyline points="114,110 333,237" fill="none" stroke="#6F6A60" stroke-width="0.5" opacity="0.16"/><polyline points="118,105 337,232" fill="none" stroke="#6F6A60" stroke-width="0.5" opacity="0.16"/><polyline points="123,101 342,227" fill="none" stroke="#6F6A60" stroke-width="0.5" opacity="0.16"/><polyline points="127,96 346,223" fill="none" stroke="#6F6A60" stroke-width="0.5" opacity="0.16"/><polyline points="131,91 351,218" fill="none" stroke="#6F6A60" stroke-width="0.5" opacity="0.16"/><polyline points="136,86 355,213" fill="none" stroke="#6F6A60" stroke-width="0.5" opacity="0.16"/><polyline points="140,82 360,208" fill="none" stroke="#6F6A60" stroke-width="0.5" opacity="0.16"/><polygon points="143,78 363,205 363,204 143,77" fill="url(#pshifer1)" stroke="#a3a6a0" stroke-width="0.7" stroke-linejoin="round"/><polygon points="363,205 365,204 365,203 363,204" fill="url(#pshifer2)" stroke="#898c86" stroke-width="0.7" stroke-linejoin="round"/><polygon points="145,76 365,203 363,204 143,77" fill="url(#pbeton0)" stroke="#ccc9c1" stroke-width="0.7" stroke-linejoin="round"/><polygon points="130,137 144,145 144,134 130,126" fill="url(#pqoraMetall1)" stroke="#5a615c" stroke-width="0.7" stroke-linejoin="round"/><polygon points="151,149 165,157 165,146 151,138" fill="url(#pqoraMetall1)" stroke="#5a615c" stroke-width="0.7" stroke-linejoin="round"/><polygon points="172,161 186,169 186,158 172,150" fill="url(#pqoraMetall1)" stroke="#5a615c" stroke-width="0.7" stroke-linejoin="round"/><polygon points="193,173 207,181 207,170 193,162" fill="url(#pqoraMetall1)" stroke="#5a615c" stroke-width="0.7" stroke-linejoin="round"/><polygon points="214,185 227,193 227,182 214,174" fill="url(#pqoraMetall1)" stroke="#5a615c" stroke-width="0.7" stroke-linejoin="round"/><polygon points="235,198 248,205 248,194 235,186" fill="url(#pqoraMetall1)" stroke="#5a615c" stroke-width="0.7" stroke-linejoin="round"/><polygon points="256,210 269,217 269,206 256,198" fill="url(#pqoraMetall1)" stroke="#5a615c" stroke-width="0.7" stroke-linejoin="round"/><polygon points="276,222 290,230 290,218 276,211" fill="url(#pqoraMetall1)" stroke="#5a615c" stroke-width="0.7" stroke-linejoin="round"/><polygon points="297,234 311,242 311,230 297,223" fill="url(#pqoraMetall1)" stroke="#5a615c" stroke-width="0.7" stroke-linejoin="round"/><polygon points="318,246 332,254 332,243 318,235" fill="url(#pqoraMetall1)" stroke="#5a615c" stroke-width="0.7" stroke-linejoin="round"/><polygon points="213,199 225,206 225,182 213,176" fill="url(#pdarvoza1)" stroke="#345839" stroke-width="0.7" stroke-linejoin="round"/><polygon points="487,217 487,217 487,218 486,218 486,218 486,218 485,218 485,218 484,218 484,218 484,217 483,217 483,147 484,148 484,148 484,148 485,148 485,149 486,149 486,148 486,148 487,148 487,148 487,147" fill="url(#pmetall1)" stroke="#a9ada9" stroke-width="0.7" stroke-linejoin="round"/><polygon points="487,148 486,148 485,149 485,148 484,148 484,148 484,148 483,147 484,147 484,147 484,147 485,146 486,146 486,147 487,147 487,147 487,148 487,148 487,148" fill="url(#pmetall0)" stroke="#bcc0bc" stroke-width="0.7" stroke-linejoin="round"/><polygon points="506,228 506,228 506,229 506,229 505,229 505,229 504,229 504,229 503,229 503,229 503,228 503,228 503,159 503,159 503,159 503,159 504,160 504,160 505,160 505,160 506,159 506,159 506,159 506,159" fill="url(#pmetall1)" stroke="#a9ada9" stroke-width="0.7" stroke-linejoin="round"/><polygon points="506,159 505,160 505,160 504,160 504,159 503,159 503,159 503,159 503,158 503,158 504,158 504,158 505,158 506,158 506,158 506,158 506,159 506,159 506,159" fill="url(#pmetall0)" stroke="#bcc0bc" stroke-width="0.7" stroke-linejoin="round"/><polygon points="468,228 468,228 468,229 467,229 467,229 466,229 466,229 465,229 465,229 464,229 464,228 464,228 464,159 464,159 464,159 465,159 465,160 466,160 466,160 467,160 467,159 468,159 468,159 468,159" fill="url(#pmetall1)" stroke="#a9ada9" stroke-width="0.7" stroke-linejoin="round"/><polygon points="467,159 467,160 466,160 466,160 465,159 465,159 464,159 464,159 464,158 465,158 465,158 466,158 466,158 467,158 467,158 468,158 468,159 468,159 467,159" fill="url(#pmetall0)" stroke="#bcc0bc" stroke-width="0.7" stroke-linejoin="round"/><polygon points="509,160 508,163 505,167 501,170 495,172 489,173 482,173 475,172 470,170 465,167 462,163 461,160 461,134 462,137 465,141 470,144 475,146 482,147 489,147 495,146 501,144 505,141 508,137 509,134" fill="url(#pmetall1)" stroke="#a9ada9" stroke-width="0.7" stroke-linejoin="round"/><polygon points="502,143 495,146 487,147 479,147 472,145 466,141 462,137 462,132 464,128 468,124 475,121 483,120 491,120 499,122 505,126 508,130 509,135 507,139 502,143" fill="url(#pmetall0)" stroke="#bcc0bc" stroke-width="0.7" stroke-linejoin="round"/><polygon points="509,134 508,137 505,141 501,144 495,146 489,147 482,147 475,146 470,144 465,141 462,137 461,134 461,133 462,137 465,140 470,143 475,145 482,146 489,146 495,145 501,143 505,140 508,137 509,133" fill="url(#pkokTom1)" stroke="#647f8e" stroke-width="0.7" stroke-linejoin="round"/><polygon points="502,142 495,145 487,146 479,146 472,144 466,141 462,136 462,131 464,127 468,123 475,120 483,119 491,119 499,121 505,125 508,129 509,134 507,138 502,142" fill="url(#pkokTom0)" stroke="#7995a7" stroke-width="0.7" stroke-linejoin="round"/><polygon points="404,271 406,269 407,267 407,264 406,260 405,256 403,253 400,250 398,248 395,246 392,246 390,246 378,253 380,253 383,253 386,255 388,257 391,260 393,263 394,267 395,271 395,274 394,276 392,278" fill="url(#psariq1)" stroke="#b1842f" stroke-width="0.7" stroke-linejoin="round"/><polygon points="395,272 394,267 393,263 390,259 387,255 383,253 380,253 377,254 375,256 375,260 375,264 377,269 380,273 383,276 387,278 390,279 393,278 394,275 395,272" fill="url(#psariq0)" stroke="#c7973c" stroke-width="0.7" stroke-linejoin="round"/><polygon points="380,285 382,283 383,281 383,278 382,274 381,270 379,267 376,264 374,262 371,260 368,260 366,260 354,267 356,267 359,267 361,268 364,271 367,274 369,277 370,281 371,285 371,288 370,290 368,292" fill="url(#psariq1)" stroke="#b1842f" stroke-width="0.7" stroke-linejoin="round"/><polygon points="371,285 370,281 368,277 366,273 363,269 359,267 356,267 353,268 351,270 351,274 351,278 353,283 356,287 359,290 363,292 366,293 368,292 370,289 371,285" fill="url(#psariq0)" stroke="#c7973c" stroke-width="0.7" stroke-linejoin="round"/><polygon points="148,87 148,87 148,87 148,87 147,87 147,87 147,87 147,87 147,87 147,87 146,87 146,87 146,73 146,73 147,73 147,73 147,73 147,73 147,73 147,73 148,73 148,73 148,73 148,73" fill="url(#ptana1)" stroke="#958a78" stroke-width="0.7" stroke-linejoin="round"/><polygon points="148,73 147,73 147,73 147,73 147,73 147,73 146,73 146,73 146,73 147,73 147,72 147,72 147,72 147,72 148,73 148,73 148,73 148,73 148,73" fill="url(#ptana0)" stroke="#a79c89" stroke-width="0.7" stroke-linejoin="round"/><polygon points="155,91 155,91 155,91 155,91 155,91 154,91 154,91 154,91 154,91 154,91 154,91 154,91 154,77 154,77 154,77 154,77 154,77 154,77 154,77 155,77 155,77 155,77 155,77 155,77" fill="url(#ptana1)" stroke="#958a78" stroke-width="0.7" stroke-linejoin="round"/><polygon points="155,77 155,77 154,77 154,77 154,77 154,77 154,77 154,77 154,77 154,77 154,77 154,77 155,77 155,77 155,77 155,77 155,77 155,77 155,77" fill="url(#ptana0)" stroke="#a79c89" stroke-width="0.7" stroke-linejoin="round"/><polygon points="162,95 162,95 162,95 162,95 162,95 162,95 161,95 161,95 161,95 161,95 161,95 161,95 161,81 161,81 161,81 161,81 161,82 161,82 162,82 162,82 162,81 162,81 162,81 162,81" fill="url(#ptana1)" stroke="#958a78" stroke-width="0.7" stroke-linejoin="round"/><polygon points="162,81 162,82 162,82 161,82 161,81 161,81 161,81 161,81 161,81 161,81 161,81 161,81 162,81 162,81 162,81 162,81 162,81 162,81 162,81" fill="url(#ptana0)" stroke="#a79c89" stroke-width="0.7" stroke-linejoin="round"/><polygon points="169,99 169,99 169,99 169,100 169,100 169,100 169,100 169,100 168,100 168,99 168,99 168,99 168,85 168,85 168,86 168,86 169,86 169,86 169,86 169,86 169,86 169,86 169,85 169,85" fill="url(#ptana1)" stroke="#958a78" stroke-width="0.7" stroke-linejoin="round"/><polygon points="169,86 169,86 169,86 169,86 168,86 168,86 168,85 168,85 168,85 168,85 168,85 169,85 169,85 169,85 169,85 169,85 169,85 169,85 169,86" fill="url(#ptana0)" stroke="#a79c89" stroke-width="0.7" stroke-linejoin="round"/><polygon points="177,103 177,104 177,104 176,104 176,104 176,104 176,104 176,104 176,104 175,104 175,104 175,103 175,90 175,90 175,90 176,90 176,90 176,90 176,90 176,90 176,90 177,90 177,90 177,90" fill="url(#ptana1)" stroke="#958a78" stroke-width="0.7" stroke-linejoin="round"/><polygon points="176,90 176,90 176,90 176,90 176,90 175,90 175,90 175,89 175,89 176,89 176,89 176,89 176,89 176,89 177,89 177,89 177,90 177,90 176,90" fill="url(#ptana0)" stroke="#a79c89" stroke-width="0.7" stroke-linejoin="round"/><polygon points="184,108 184,108 184,108 184,108 184,108 183,108 183,108 183,108 183,108 183,108 183,108 183,108 183,94 183,94 183,94 183,94 183,94 183,94 183,94 184,94 184,94 184,94 184,94 184,94" fill="url(#ptana1)" stroke="#958a78" stroke-width="0.7" stroke-linejoin="round"/><polygon points="184,94 184,94 183,94 183,94 183,94 183,94 183,94 183,94 183,94 183,93 183,93 183,93 183,93 184,93 184,93 184,94 184,94 184,94 184,94" fill="url(#ptana0)" stroke="#a79c89" stroke-width="0.7" stroke-linejoin="round"/><polygon points="191,112 191,112 191,112 191,112 191,112 191,112 190,112 190,112 190,112 190,112 190,112 190,112 190,98 190,98 190,98 190,98 190,98 190,98 191,98 191,98 191,98 191,98 191,98 191,98" fill="url(#ptana1)" stroke="#958a78" stroke-width="0.7" stroke-linejoin="round"/><polygon points="191,98 191,98 191,98 190,98 190,98 190,98 190,98 190,98 190,98 190,98 190,97 190,97 191,97 191,98 191,98 191,98 191,98 191,98 191,98" fill="url(#ptana0)" stroke="#a79c89" stroke-width="0.7" stroke-linejoin="round"/><polygon points="198,116 198,116 198,116 198,116 198,116 198,116 198,116 197,116 197,116 197,116 197,116 197,116 197,102 197,102 197,102 197,102 197,102 198,102 198,102 198,102 198,102 198,102 198,102 198,102" fill="url(#ptana1)" stroke="#958a78" stroke-width="0.7" stroke-linejoin="round"/><polygon points="198,102 198,102 198,102 198,102 197,102 197,102 197,102 197,102 197,102 197,102 197,102 198,102 198,102 198,102 198,102 198,102 198,102 198,102 198,102" fill="url(#ptana0)" stroke="#a79c89" stroke-width="0.7" stroke-linejoin="round"/><polygon points="206,120 206,120 206,120 205,120 205,120 205,121 205,121 205,120 204,120 204,120 204,120 204,120 204,106 204,106 204,106 204,106 205,107 205,107 205,107 205,107 205,106 206,106 206,106 206,106" fill="url(#ptana1)" stroke="#958a78" stroke-width="0.7" stroke-linejoin="round"/><polygon points="205,106 205,107 205,107 205,107 205,107 204,106 204,106 204,106 204,106 204,106 205,106 205,106 205,106 205,106 205,106 206,106 206,106 206,106 205,106" fill="url(#ptana0)" stroke="#a79c89" stroke-width="0.7" stroke-linejoin="round"/><polygon points="213,124 213,124 213,124 213,125 212,125 212,125 212,125 212,125 212,125 212,124 212,124 211,124 211,110 212,110 212,111 212,111 212,111 212,111 212,111 212,111 213,111 213,111 213,110 213,110" fill="url(#ptana1)" stroke="#958a78" stroke-width="0.7" stroke-linejoin="round"/><polygon points="213,111 212,111 212,111 212,111 212,111 212,111 212,110 211,110 212,110 212,110 212,110 212,110 212,110 213,110 213,110 213,110 213,110 213,111 213,111" fill="url(#ptana0)" stroke="#a79c89" stroke-width="0.7" stroke-linejoin="round"/><polygon points="220,128 220,129 220,129 220,129 220,129 219,129 219,129 219,129 219,129 219,129 219,129 219,128 219,115 219,115 219,115 219,115 219,115 219,115 219,115 220,115 220,115 220,115 220,115 220,115" fill="url(#ptana1)" stroke="#958a78" stroke-width="0.7" stroke-linejoin="round"/><polygon points="220,115 220,115 219,115 219,115 219,115 219,115 219,115 219,115 219,114 219,114 219,114 219,114 220,114 220,114 220,114 220,114 220,115 220,115 220,115" fill="url(#ptana0)" stroke="#a79c89" stroke-width="0.7" stroke-linejoin="round"/><polygon points="227,133 227,133 227,133 227,133 227,133 227,133 227,133 226,133 226,133 226,133 226,133 226,133 226,119 226,119 226,119 226,119 226,119 227,119 227,119 227,119 227,119 227,119 227,119 227,119" fill="url(#ptana1)" stroke="#958a78" stroke-width="0.7" stroke-linejoin="round"/><polygon points="227,119 227,119 227,119 226,119 226,119 226,119 226,119 226,119 226,119 226,118 226,118 227,118 227,118 227,118 227,118 227,119 227,119 227,119 227,119" fill="url(#ptana0)" stroke="#a79c89" stroke-width="0.7" stroke-linejoin="round"/><polygon points="235,137 235,137 234,137 234,137 234,137 234,137 234,137 234,137 233,137 233,137 233,137 233,137 233,123 233,123 233,123 233,123 234,123 234,123 234,123 234,123 234,123 234,123 235,123 235,123" fill="url(#ptana1)" stroke="#958a78" stroke-width="0.7" stroke-linejoin="round"/><polygon points="234,123 234,123 234,123 234,123 233,123 233,123 233,123 233,123 233,123 233,123 234,123 234,123 234,123 234,123 234,123 235,123 235,123 234,123 234,123" fill="url(#ptana0)" stroke="#a79c89" stroke-width="0.7" stroke-linejoin="round"/><polygon points="146,74 234,125 234,124 146,73" fill="url(#ptana1)" stroke="#958a78" stroke-width="0.7" stroke-linejoin="round"/><polygon points="234,125 235,124 235,123 234,124" fill="url(#ptana2)" stroke="#7a7060" stroke-width="0.7" stroke-linejoin="round"/><polygon points="147,72 235,123 234,124 146,73" fill="url(#ptana0)" stroke="#a79c89" stroke-width="0.7" stroke-linejoin="round"/><polygon points="455,277 455,278 454,278 454,278 454,278 453,278 453,278 453,278 452,278 452,278 452,278 452,277 452,222 452,222 452,222 452,222 453,222 453,223 453,223 454,222 454,222 454,222 455,222 455,222" fill="url(#pmetall1)" stroke="#a9ada9" stroke-width="0.7" stroke-linejoin="round"/><polygon points="454,222 454,222 453,223 453,223 452,222 452,222 452,222 452,222 452,221 452,221 453,221 453,221 454,221 454,221 454,221 455,221 455,222 454,222 454,222" fill="url(#pmetall0)" stroke="#bcc0bc" stroke-width="0.7" stroke-linejoin="round"/><polygon points="449,226 455,229 455,226 449,222" fill="url(#poq1)" stroke="#dbd8d1" stroke-width="0.7" stroke-linejoin="round"/><polygon points="455,229 459,228 459,224 455,226" fill="url(#poq2)" stroke="#c8c4bb" stroke-width="0.7" stroke-linejoin="round"/><polygon points="452,220 459,224 455,226 449,222" fill="url(#poq0)" stroke="#e8e6e2" stroke-width="0.7" stroke-linejoin="round"/><polygon points="455,228 460,232 463,230 459,226" fill="url(#pqoraMetall0)" stroke="#6b726d" stroke-width="0.7" stroke-linejoin="round"/><polygon points="442,214 456,216 443,224 429,221" fill="url(#pkok0)" stroke="#4c6b80" stroke-width="0.7" stroke-linejoin="round"/></svg>