<svg xmlns="http://www.w3.org/2000/svg" viewBox="0 0 640 360" width="640" height="360" role="img" aria-label="Chorvachilik fermasi"><defs><linearGradient id="poq1" x1="0" y1="0" x2="0" y2="1"><stop offset="0" stop-color="#f9f6ef"/><stop offset="1" stop-color="#dedbd4"/></linearGradient><linearGradient id="poq2" x1="0" y1="0" x2="0" y2="1"><stop offset="0" stop-color="#e6e2d9"/><stop offset="1" stop-color="#cbc7be"/></linearGradient><linearGradient id="pyer0" x1="0" y1="0" x2="0" y2="1"><stop offset="0" stop-color="#f3efe5"/><stop offset="1" stop-color="#ebe7dd"/></linearGradient><linearGradient id="psuvoq1" x1="0" y1="0" x2="0" y2="1"><stop offset="0" stop-color="#f3ede1"/><stop offset="1" stop-color="#d8d2c6"/></linearGradient><linearGradient id="psuvoq2" x1="0" y1="0" x2="0" y2="1"><stop offset="0" stop-color="#ded6c7"/><stop offset="1" stop-color="#c3bbac"/></linearGradient><linearGradient id="pshifer1" x1="0" y1="0" x2="0" y2="1"><stop offset="0" stop-color="#c1c4be"/><stop offset="1" stop-color="#a6a9a3"/></linearGradient><linearGradient id="pshifer2" x1="0" y1="0" x2="0" y2="1"><stop offset="0" stop-color="#a7aaa4"/><stop offset="1" stop-color="#8c8f89"/></linearGradient><linearGradient id="pbeton0" x1="0" y1="0" x2="0" y2="1"><stop offset="0" stop-color="#e4e1d9"/><stop offset="1" stop-color="#dcd9d1"/></linearGradient><linearGradient id="pqoraMetall1" x1="0" y1="0" x2="0" y2="1"><stop offset="0" stop-color="#787f7a"/><stop offset="1" stop-color="#5d645f"/></linearGradient><linearGradient id="pdarvoza1" x1="0" y1="0" x2="0" y2="1"><stop offset="0" stop-color="#527657"/><stop offset="1" stop-color="#375b3c"/></linearGradient><linearGradient id="pmetall1" x1="0" y1="0" x2="0" y2="1"><stop offset="0" stop-color="#c7cbc7"/><stop offset="1" stop-color="#acb0ac"/></linearGradient><linearGradient id="pmetall0" x1="0" y1="0" x2="0" y2="1"><stop offset="0" stop-color="#d4d8d4"/><stop offset="1" stop-color="#ccd0cc"/></linearGradient><linearGradient id="pkokTom1" x1="0" y1="0" x2="0" y2="1"><stop offset="0" stop-color="#829dac"/><stop offset="1" stop-color="#678291"/></linearGradient><linearGradient id="pkokTom0" x1="0" y1="0" x2="0" y2="1"><stop offset="0" stop-color="#91adbf"/><stop offset="1" stop-color="#89a5b7"/></linearGradient><linearGradient id="psariq1" x1="0" y1="0" x2="0" y2="1"><stop offset="0" stop-color="#cfa24d"/><stop offset="1" stop-color="#b48732"/></linearGradient><linearGradient id="psariq0" x1="0" y1="0" x2="0" y2="1"><stop offset="0" stop-color="#dfaf54"/><stop offset="1" stop-color="#d7a74c"/></linearGradient><linearGradient id="ptana1" x1="0" y1="0" x2="0" y2="1"><stop offset="0" stop-color="#b3a896"/><stop offset="1" stop-color="#988d7b"/></linearGradient><linearGradient id="ptana0" x1="0" y1="0" x2="0" y2="1"><stop offset="0" stop-color="#bfb4a1"/><stop offset="1" stop-color="#b7ac99"/></linearGradient><linearGradient id="ptana2" x1="0" y1="0" x2="0" y2="1"><stop offset="0" stop-color="#988e7e"/><stop offset="1" stop-color="#7d7363"/></linearGradient><linearGradient id="poq0" x1="0" y1="0" x2="0" y2="1"><stop offset="0" stop-color="#fffefa"/><stop offset="1" stop-color="#f8f6f2"/></linearGradient><linearGradient id="pqoraMetall0" x1="0" y1="0" x2="0" y2="1"><stop offset="0" stop-color="#838a85"/><stop offset="1" stop-color="#7b827d"/></linearGradient><linearGradient id="pkok0" x1="0" y1="0" x2="0" y2="1"><stop offset="0" stop-color="#648398"/><stop offset="1" stop-color="#5c7b90"/></linearGradient><filter id="soya" x="-30%" y="-30%" width="160%" height="180%"><feGaussianBlur stdDeviation="14.1"/></filter></defs><rect width="640" height="360" fill="#FFFFFF"/><g filter="url(#soya)" opacity="0.17"><polygon points="230,24 599,237 410,346 41,133" fill="#3C3A33" stroke="none" stroke-width="0" stroke-linejoin="round"/></g><polygon points="41,128 410,342 410,336 41,123" fill="url(#poq1)" stroke="#dbd8d1" stroke-width="0.6" stroke-linejoin="round"/><polygon points="410,342 599,233 599,227 410,336" fill="url(#poq2)" stroke="#c8c4bb" stroke-width="0.6" stroke-linejoin="round"/><polygon points="230,14 599,227 410,336 41,123" fill="url(#pyer0)" stroke="#dbd7cd" stroke-width="0.6" stroke-linejoin="round"/><polyline points="230,21 587,227 410,329 53,123 230,21" fill="none" stroke="#8F897C" stroke-width="0.7" opacity="0.3" stroke-dasharray="4 4"/><polygon points="203,92 422,218 422,190 203,63" fill="url(#psuvoq1)" stroke="#d5cfc3" stroke-width="0.7" stroke-linejoin="round"/><polygon points="422,218 480,185 480,156 422,190" fill="url(#psuvoq2)" stroke="#c0b8a9" stroke-width="0.7" stroke-linejoin="round"/><polygon points="194,63 422,195 456,159 227,27" fill="url(#pshifer1)" stroke="#a3a6a0" stroke-width="0.7" stroke-linejoin="round"/><polygon points="422,195 456,159 489,156" fill="url(#pshifer2)" stroke="#898c86" stroke-width="0.7" stroke-linejoin="round"/><polygon points="194,63 194,65 422,197 422,195" fill="url(#pshifer2)" stroke="#898c86" stroke-width="0.7" stroke-linejoin="round"/><polyline points="198,59 426,191" fill="none" stroke="#6F6A60" stroke-width="0.5" opacity="0.16"/><polyline points="202,54 431,186" fill="none" stroke="#6F6A60" stroke-width="0.5" opacity="0.16"/><polyline points="206,49 435,181" fill="none" stroke="#6F6A60" stroke-width="0.5" opacity="0.16"/><polyline points="211,45 439,177" fill="none" stroke="#6F6A60" stroke-width="0.5" opacity="0.16"/><polyline points="215,40 443,172" fill="none" stroke="#6F6A60" stroke-width="0.5" opacity="0.16"/><polyline points="219,36 448,168" fill="none" stroke="#6F6A60" stroke-width="0.5" opacity="0.16"/><polyline points="223,31 452,163" fill="none" stroke="#6F6A60" stroke-width="0.5" opacity="0.16"/><polygon points="225,28 455,160 455,159 225,27" fill="url(#pshifer1)" stroke="#a3a6a0" stroke-width="0.7" stroke-linejoin="round"/><polygon points="455,160 457,159 457,158 455,159" fill="url(#pshifer2)" stroke="#898c86" stroke-width="0.7" stroke-linejoin="round"/><polygon points="228,25 457,158 455,159 225,27" fill="url(#pbeton0)" stroke="#ccc9c1" stroke-width="0.7" stroke-linejoin="round"/><polygon points="214,85 227,92 227,81 214,74" fill="url(#pqoraMetall1)" stroke="#5a615c" stroke-width="0.7" stroke-linejoin="round"/><polygon points="234,96 247,104 247,93 234,85" fill="url(#pqoraMetall1)" stroke="#5a615c" stroke-width="0.7" stroke-linejoin="round"/><polygon points="254,108 267,115 267,105 254,97" fill="url(#pqoraMetall1)" stroke="#5a615c" stroke-width="0.7" stroke-linejoin="round"/><polygon points="274,119 287,127 287,116 274,109" fill="url(#pqoraMetall1)" stroke="#5a615c" stroke-width="0.7" stroke-linejoin="round"/><polygon points="294,131 307,139 307,128 294,120" fill="url(#pqoraMetall1)" stroke="#5a615c" stroke-width="0.7" stroke-linejoin="round"/><polygon points="314,143 327,150 327,139 314,132" fill="url(#pqoraMetall1)" stroke="#5a615c" stroke-width="0.7" stroke-linejoin="round"/><polygon points="334,154 347,162 347,151 334,143" fill="url(#pqoraMetall1)" stroke="#5a615c" stroke-width="0.7" stroke-linejoin="round"/><polygon points="354,166 367,173 367,163 354,155" fill="url(#pqoraMetall1)" stroke="#5a615c" stroke-width="0.7" stroke-linejoin="round"/><polygon points="374,177 387,185 387,174 374,167" fill="url(#pqoraMetall1)" stroke="#5a615c" stroke-width="0.7" stroke-linejoin="round"/><polygon points="394,189 407,196 407,186 394,178" fill="url(#pqoraMetall1)" stroke="#5a615c" stroke-width="0.7" stroke-linejoin="round"/><polygon points="414,200 427,208 427,197 414,190" fill="url(#pqoraMetall1)" stroke="#5a615c" stroke-width="0.7" stroke-linejoin="round"/><polygon points="302,149 312,155 312,133 302,126" fill="url(#pdarvoza1)" stroke="#345839" stroke-width="0.7" stroke-linejoin="round"/><polygon points="118,141 337,267 337,239 118,112" fill="url(#psuvoq1)" stroke="#d5cfc3" stroke-width="0.7" stroke-linejoin="round"/><polygon points="337,267 395,234 395,205 337,239" fill="url(#psuvoq2)" stroke="#c0b8a9" stroke-width="0.7" stroke-linejoin="round"/><polygon points="109,112 337,244 371,208 142,76" fill="url(#pshifer1)" stroke="#a3a6a0" stroke-width="0.7" stroke-linejoin="round"/><polygon points="337,244 371,208 404,205" fill="url(#pshifer2)" stroke="#898c86" stroke-width="0.7" stroke-linejoin="round"/><polygon points="109,112 109,114 337,246 337,244" fill="url(#pshifer2)" stroke="#898c86" stroke-width="0.7" stroke-linejoin="round"/><polyline points="113,108 341,240" fill="none" stroke="#6F6A60" stroke-width="0.5" opacity="0.16"/><polyline points="117,103 346,235" fill="none" stroke="#6F6A60" stroke-width="0.5" opacity="0.16"/><polyline points="121,98 350,230" fill="none" stroke="#6F6A60" stroke-width="0.5" opacity="0.16"/><polyline points="126,94 354,226" fill="none" stroke="#6F6A60" stroke-width="0.5" opacity="0.16"/><polyline points="130,89 358,221" fill="none" stroke="#6F6A60" stroke-width="0.5" opacity="0.16"/><polyline points="134,85 363,217" fill="none" stroke="#6F6A60" stroke-width="0.5" opacity="0.16"/><polyline points="138,80 367,212" fill="none" stroke="#6F6A60" stroke-width="0.5" opacity="0.16"/><polygon points="141,77 370,209 370,208 141,76" fill="url(#pshifer1)" stroke="#a3a6a0" stroke-width="0.7" stroke-linejoin="round"/><polygon points="370,209 372,208 372,207 370,208" fill="url(#pshifer2)" stroke="#898c86" stroke-width="0.7" stroke-linejoin="round"/><polygon points="143,74 372,207 370,208 141,76" fill="url(#pbeton0)" stroke="#ccc9c1" stroke-width="0.7" stroke-linejoin="round"/><polygon points="129,134 142,141 142,131 129,123" fill="url(#pqoraMetall1)" stroke="#5a615c" stroke-width="0.7" stroke-linejoin="round"/><polygon points="149,145 162,153 162,142 149,135" fill="url(#pqoraMetall1)" stroke="#5a615c" stroke-width="0.7" stroke-linejoin="round"/><polygon points="169,157 182,164 182,154 169,146" fill="url(#pqoraMetall1)" stroke="#5a615c" stroke-width="0.7" stroke-linejoin="round"/><polygon points="189,168 202,176 202,165 189,158" fill="url(#pqoraMetall1)" stroke="#5a615c" stroke-width="0.7" stroke-linejoin="round"/><polygon points="209,180 222,188 222,177 209,169" fill="url(#pqoraMetall1)" stroke="#5a615c" stroke-width="0.7" stroke-linejoin="round"/><polygon points="229,192 242,199 242,188 229,181" fill="url(#pqoraMetall1)" stroke="#5a615c" stroke-width="0.7" stroke-linejoin="round"/><polygon points="249,203 262,211 262,200 249,192" fill="url(#pqoraMetall1)" stroke="#5a615c" stroke-width="0.7" stroke-linejoin="round"/><polygon points="269,215 282,222 282,212 269,204" fill="url(#pqoraMetall1)" stroke="#5a615c" stroke-width="0.7" stroke-linejoin="round"/><polygon points="289,226 302,234 302,223 289,216" fill="url(#pqoraMetall1)" stroke="#5a615c" stroke-width="0.7" stroke-linejoin="round"/><polygon points="309,238 322,246 322,235 309,227" fill="url(#pqoraMetall1)" stroke="#5a615c" stroke-width="0.7" stroke-linejoin="round"/><polygon points="329,250 343,257 343,246 329,239" fill="url(#pqoraMetall1)" stroke="#5a615c" stroke-width="0.7" stroke-linejoin="round"/><polygon points="217,198 227,204 227,182 217,175" fill="url(#pdarvoza1)" stroke="#345839" stroke-width="0.7" stroke-linejoin="round"/><polygon points="490,221 489,221 489,221 489,221 489,222 488,222 488,222 487,222 487,221 486,221 486,221 486,221 486,154 486,154 486,154 487,155 487,155 488,155 488,155 489,155 489,155 489,154 489,154 490,154" fill="url(#pmetall1)" stroke="#a9ada9" stroke-width="0.7" stroke-linejoin="round"/><polygon points="489,154 489,155 488,155 487,155 487,155 486,154 486,154 486,154 486,153 487,153 487,153 488,153 488,153 489,153 489,153 489,153 490,154 489,154 489,154" fill="url(#pmetall0)" stroke="#bcc0bc" stroke-width="0.7" stroke-linejoin="round"/><polygon points="508,231 508,232 508,232 507,232 507,232 507,232 506,232 506,232 505,232 505,232 505,232 505,231 505,164 505,165 505,165 505,165 506,165 506,165 507,165 507,165 507,165 508,165 508,165 508,164" fill="url(#pmetall1)" stroke="#a9ada9" stroke-width="0.7" stroke-linejoin="round"/><polygon points="508,165 507,165 506,165 506,165 505,165 505,165 505,165 505,164 505,164 505,164 506,164 506,163 507,163 507,164 508,164 508,164 508,165 508,165 508,165" fill="url(#pmetall0)" stroke="#bcc0bc" stroke-width="0.7" stroke-linejoin="round"/><polygon points="471,231 471,232 471,232 470,232 470,232 470,232 469,232 469,232 468,232 468,232 468,232 468,231 468,164 468,165 468,165 468,165 469,165 469,165 470,165 470,165 470,165 471,165 471,165 471,164" fill="url(#pmetall1)" stroke="#a9ada9" stroke-width="0.7" stroke-linejoin="round"/><polygon points="470,165 470,165 469,165 469,165 468,165 468,165 468,165 468,164 468,164 468,164 469,164 469,163 470,163 470,164 471,164 471,164 471,165 471,165 470,165" fill="url(#pmetall0)" stroke="#bcc0bc" stroke-width="0.7" stroke-linejoin="round"/><polygon points="511,165 510,169 507,172 503,175 497,177 491,178 485,178 478,177 473,175 468,172 466,169 465,165 465,140 466,144 468,148 473,150 478,152 485,153 491,153 497,152 503,150 507,148 510,144 511,140" fill="url(#pmetall1)" stroke="#a9ada9" stroke-width="0.7" stroke-linejoin="round"/><polygon points="504,150 497,152 490,154 482,153 475,151 469,148 466,144 465,139 467,135 472,131 478,128 486,127 494,128 501,130 507,133 510,137 511,142 509,146 504,150" fill="url(#pmetall0)" stroke="#bcc0bc" stroke-width="0.7" stroke-linejoin="round"/><polygon points="511,140 510,144 507,148 503,150 497,152 491,153 485,153 478,152 473,150 468,148 466,144 465,140 465,139 466,143 468,147 473,149 478,152 485,153 491,153 497,152 503,149 507,147 510,143 511,139" fill="url(#pkokTom1)" stroke="#647f8e" stroke-width="0.7" stroke-linejoin="round"/><polygon points="504,149 497,151 490,153 482,152 475,150 469,147 466,143 465,138 467,134 472,130 478,127 486,126 494,127 501,129 507,132 510,136 511,141 509,145 504,149" fill="url(#pkokTom0)" stroke="#7995a7" stroke-width="0.7" stroke-linejoin="round"/><polygon points="410,273 411,271 412,269 412,265 412,262 411,259 409,255 406,252 404,250 401,249 398,248 396,249 384,256 387,255 389,255 392,257 395,259 397,262 399,265 400,269 401,272 401,275 400,278 398,279" fill="url(#psariq1)" stroke="#b1842f" stroke-width="0.7" stroke-linejoin="round"/><polygon points="401,273 400,269 399,265 396,261 393,257 390,255 386,255 384,256 382,258 382,262 382,266 384,270 386,274 390,277 393,279 396,280 399,279 400,276 401,273" fill="url(#psariq0)" stroke="#c7973c" stroke-width="0.7" stroke-linejoin="round"/><polygon points="387,286 388,284 389,282 389,279 389,275 387,272 385,269 383,266 380,263 378,262 375,262 373,262 361,269 363,268 366,269 369,270 371,272 374,275 376,279 377,282 378,286 378,289 377,291 375,293" fill="url(#psariq1)" stroke="#b1842f" stroke-width="0.7" stroke-linejoin="round"/><polygon points="378,286 377,282 376,278 373,274 370,271 366,269 363,268 361,269 359,272 358,275 359,279 361,284 363,288 366,291 370,293 373,293 376,292 377,290 378,286" fill="url(#psariq0)" stroke="#c7973c" stroke-width="0.7" stroke-linejoin="round"/><polygon points="146,85 146,85 145,85 145,85 145,85 145,85 145,85 145,85 144,85 144,85 144,85 144,85 144,72 144,72 144,72 144,72 145,72 145,72 145,72 145,72 145,72 145,72 146,72 146,72" fill="url(#ptana1)" stroke="#958a78" stroke-width="0.7" stroke-linejoin="round"/><polygon points="145,72 145,72 145,72 145,72 145,72 144,72 144,72 144,72 144,72 144,71 145,71 145,71 145,71 145,71 145,71 146,72 146,72 145,72 145,72" fill="url(#ptana0)" stroke="#a79c89" stroke-width="0.7" stroke-linejoin="round"/><polygon points="152,89 152,89 152,89 152,89 152,89 152,89 152,89 152,89 151,89 151,89 151,89 151,89 151,76 151,76 151,76 151,76 152,76 152,76 152,76 152,76 152,76 152,76 152,76 152,76" fill="url(#ptana1)" stroke="#958a78" stroke-width="0.7" stroke-linejoin="round"/><polygon points="152,76 152,76 152,76 152,76 151,76 151,76 151,76 151,76 151,76 151,75 152,75 152,75 152,75 152,75 152,75 152,76 152,76 152,76 152,76" fill="url(#ptana0)" stroke="#a79c89" stroke-width="0.7" stroke-linejoin="round"/><polygon points="159,93 159,93 159,93 159,93 159,93 159,93 159,93 159,93 158,93 158,93 158,93 158,93 158,80 158,80 158,80 158,80 159,80 159,80 159,80 159,80 159,80 159,80 159,80 159,80" fill="url(#ptana1)" stroke="#958a78" stroke-width="0.7" stroke-linejoin="round"/><polygon points="159,80 159,80 159,80 159,80 158,80 158,80 158,80 158,80 158,80 158,79 158,79 159,79 159,79 159,79 159,79 159,80 159,80 159,80 159,80" fill="url(#ptana0)" stroke="#a79c89" stroke-width="0.7" stroke-linejoin="round"/><polygon points="166,97 166,97 166,97 166,97 166,97 166,97 166,97 165,97 165,97 165,97 165,97 165,97 165,84 165,84 165,84 165,84 165,84 166,84 166,84 166,84 166,84 166,84 166,84 166,84" fill="url(#ptana1)" stroke="#958a78" stroke-width="0.7" stroke-linejoin="round"/><polygon points="166,84 166,84 166,84 166,84 165,84 165,84 165,84 165,84 165,84 165,83 165,83 166,83 166,83 166,83 166,83 166,84 166,84 166,84 166,84" fill="url(#ptana0)" stroke="#a79c89" stroke-width="0.7" stroke-linejoin="round"/><polygon points="173,101 173,101 173,101 173,101 173,101 173,101 173,101 172,101 172,101 172,101 172,101 172,101 172,88 172,88 172,88 172,88 172,88 173,88 173,88 173,88 173,88 173,88 173,88 173,88" fill="url(#ptana1)" stroke="#958a78" stroke-width="0.7" stroke-linejoin="round"/><polygon points="173,88 173,88 173,88 173,88 172,88 172,88 172,88 172,88 172,88 172,87 172,87 173,87 173,87 173,87 173,87 173,88 173,88 173,88 173,88" fill="url(#ptana0)" stroke="#a79c89" stroke-width="0.7" stroke-linejoin="round"/><polygon points="180,105 180,105 180,105 180,105 180,105 180,105 180,105 179,105 179,105 179,105 179,105 179,105 179,92 179,92 179,92 179,92 179,92 180,92 180,92 180,92 180,92 180,92 180,92 180,92" fill="url(#ptana1)" stroke="#958a78" stroke-width="0.7" stroke-linejoin="round"/><polygon points="180,92 180,92 180,92 179,92 179,92 179,92 179,92 179,92 179,92 179,91 179,91 180,91 180,91 180,91 180,92 180,92 180,92 180,92 180,92" fill="url(#ptana0)" stroke="#a79c89" stroke-width="0.7" stroke-linejoin="round"/><polygon points="187,109 187,109 187,109 187,109 187,109 187,109 186,109 186,109 186,109 186,109 186,109 186,109 186,96 186,96 186,96 186,96 186,96 186,96 187,96 187,96 187,96 187,96 187,96 187,96" fill="url(#ptana1)" stroke="#958a78" stroke-width="0.7" stroke-linejoin="round"/><polygon points="187,96 187,96 187,96 186,96 186,96 186,96 186,96 186,96 186,96 186,95 186,95 187,95 187,95 187,95 187,96 187,96 187,96 187,96 187,96" fill="url(#ptana0)" stroke="#a79c89" stroke-width="0.7" stroke-linejoin="round"/><polygon points="194,113 194,113 194,113 194,113 194,113 194,113 193,113 193,113 193,113 193,113 193,113 193,113 193,100 193,100 193,100 193,100 193,100 193,100 194,100 194,100 194,100 194,100 194,100 194,100" fill="url(#ptana1)" stroke="#958a78" stroke-width="0.7" stroke-linejoin="round"/><polygon points="194,100 194,100 194,100 193,100 193,100 193,100 193,100 193,100 193,100 193,99 193,99 193,99 194,99 194,99 194,100 194,100 194,100 194,100 194,100" fill="url(#ptana0)" stroke="#a79c89" stroke-width="0.7" stroke-linejoin="round"/><polygon points="201,117 201,117 201,117 201,117 201,117 201,118 200,118 200,117 200,117 200,117 200,117 200,117 200,104 200,104 200,104 200,104 200,104 200,104 201,104 201,104 201,104 201,104 201,104 201,104" fill="url(#ptana1)" stroke="#958a78" stroke-width="0.7" stroke-linejoin="round"/><polygon points="201,104 201,104 201,104 200,104 200,104 200,104 200,104 200,104 200,104 200,103 200,103 200,103 201,103 201,103 201,104 201,104 201,104 201,104 201,104" fill="url(#ptana0)" stroke="#a79c89" stroke-width="0.7" stroke-linejoin="round"/><polygon points="208,121 208,121 208,121 208,121 208,121 208,122 207,122 207,121 207,121 207,121 207,121 207,121 207,108 207,108 207,108 207,108 207,108 207,108 208,108 208,108 208,108 208,108 208,108 208,108" fill="url(#ptana1)" stroke="#958a78" stroke-width="0.7" stroke-linejoin="round"/><polygon points="208,108 208,108 207,108 207,108 207,108 207,108 207,108 207,108 207,108 207,108 207,107 207,107 208,107 208,107 208,108 208,108 208,108 208,108 208,108" fill="url(#ptana0)" stroke="#a79c89" stroke-width="0.7" stroke-linejoin="round"/><polygon points="215,125 215,125 215,125 215,125 215,125 214,126 214,126 214,125 214,125 214,125 214,125 214,125 214,112 214,112 214,112 214,112 214,112 214,112 214,112 215,112 215,112 215,112 215,112 215,112" fill="url(#ptana1)" stroke="#958a78" stroke-width="0.7" stroke-linejoin="round"/><polygon points="215,112 215,112 214,112 214,112 214,112 214,112 214,112 214,112 214,112 214,112 214,111 214,111 215,111 215,111 215,112 215,112 215,112 215,112 215,112" fill="url(#ptana0)" stroke="#a79c89" stroke-width="0.7" stroke-linejoin="round"/><polygon points="222,129 222,129 222,129 222,129 222,130 221,130 221,130 221,130 221,129 221,129 221,129 221,129 221,116 221,116 221,116 221,116 221,116 221,116 221,116 222,116 222,116 222,116 222,116 222,116" fill="url(#ptana1)" stroke="#958a78" stroke-width="0.7" stroke-linejoin="round"/><polygon points="222,116 222,116 221,116 221,116 221,116 221,116 221,116 221,116 221,116 221,116 221,115 221,115 221,115 222,115 222,116 222,116 222,116 222,116 222,116" fill="url(#ptana0)" stroke="#a79c89" stroke-width="0.7" stroke-linejoin="round"/><polygon points="229,133 229,133 229,133 229,133 229,134 228,134 228,134 228,134 228,133 228,133 228,133 228,133 228,120 228,120 228,120 228,120 228,120 228,120 228,120 229,120 229,120 229,120 229,120 229,120" fill="url(#ptana1)" stroke="#958a78" stroke-width="0.7" stroke-linejoin="round"/><polygon points="229,120 229,120 228,120 228,120 228,120 228,120 228,120 228,120 228,120 228,120 228,119 228,119 228,119 229,119 229,120 229,120 229,120 229,120 229,120" fill="url(#ptana0)" stroke="#a79c89" stroke-width="0.7" stroke-linejoin="round"/><polygon points="144,73 229,122 229,121 144,72" fill="url(#ptana1)" stroke="#958a78" stroke-width="0.7" stroke-linejoin="round"/><polygon points="229,122 229,121 229,120 229,121" fill="url(#ptana2)" stroke="#7a7060" stroke-width="0.7" stroke-linejoin="round"/><polygon points="145,71 229,120 229,121 144,72" fill="url(#ptana0)" stroke="#a79c89" stroke-width="0.7" stroke-linejoin="round"/><polygon points="458,279 458,279 458,279 458,279 457,279 457,279 457,279 456,279 456,279 456,279 456,279 455,279 455,225 456,225 456,226 456,226 456,226 457,226 457,226 457,226 458,226 458,226 458,225 458,225" fill="url(#pmetall1)" stroke="#a9ada9" stroke-width="0.7" stroke-linejoin="round"/><polygon points="458,226 458,226 457,226 457,226 456,226 456,226 456,225 455,225 456,225 456,224 456,224 457,224 457,224 458,224 458,225 458,225 458,225 458,225 458,226" fill="url(#pmetall0)" stroke="#bcc0bc" stroke-width="0.7" stroke-linejoin="round"/><polygon points="453,229 459,233 459,229 453,226" fill="url(#poq1)" stroke="#dbd8d1" stroke-width="0.7" stroke-linejoin="round"/><polygon points="459,233 462,231 462,227 459,229" fill="url(#poq2)" stroke="#c8c4bb" stroke-width="0.7" stroke-linejoin="round"/><polygon points="456,224 462,227 459,229 453,226" fill="url(#poq0)" stroke="#e8e6e2" stroke-width="0.7" stroke-linejoin="round"/><polygon points="459,231 463,235 467,233 462,229" fill="url(#pqoraMetall0)" stroke="#6b726d" stroke-width="0.7" stroke-linejoin="round"/><polygon points="446,217 459,220 447,227 434,225" fill="url(#pkok0)" stroke="#4c6b80" stroke-width="0.7" stroke-linejoin="round"/></svg>