<svg xmlns="http://www.w3.org/2000/svg" viewBox="0 0 320 240" width="320" height="240" role="img" aria-label="Chorvachilik fermasi"><defs><linearGradient id="psuvoq1" x1="0" y1="0" x2="0" y2="1"><stop offset="0" stop-color="#f3ede1"/><stop offset="1" stop-color="#d8d2c6"/></linearGradient><linearGradient id="psuvoq2" x1="0" y1="0" x2="0" y2="1"><stop offset="0" stop-color="#ded6c7"/><stop offset="1" stop-color="#c3bbac"/></linearGradient><linearGradient id="pshifer1" x1="0" y1="0" x2="0" y2="1"><stop offset="0" stop-color="#c1c4be"/><stop offset="1" stop-color="#a6a9a3"/></linearGradient><linearGradient id="pshifer2" x1="0" y1="0" x2="0" y2="1"><stop offset="0" stop-color="#a7aaa4"/><stop offset="1" stop-color="#8c8f89"/></linearGradient><linearGradient id="pbeton0" x1="0" y1="0" x2="0" y2="1"><stop offset="0" stop-color="#e4e1d9"/><stop offset="1" stop-color="#dcd9d1"/></linearGradient><linearGradient id="pqoraMetall1" x1="0" y1="0" x2="0" y2="1"><stop offset="0" stop-color="#787f7a"/><stop offset="1" stop-color="#5d645f"/></linearGradient><linearGradient id="pdarvoza1" x1="0" y1="0" x2="0" y2="1"><stop offset="0" stop-color="#527657"/><stop offset="1" stop-color="#375b3c"/></linearGradient><linearGradient id="pmetall1" x1="0" y1="0" x2="0" y2="1"><stop offset="0" stop-color="#c7cbc7"/><stop offset="1" stop-color="#acb0ac"/></linearGradient><linearGradient id="pmetall0" x1="0" y1="0" x2="0" y2="1"><stop offset="0" stop-color="#d4d8d4"/><stop offset="1" stop-color="#ccd0cc"/></linearGradient><linearGradient id="pkokTom1" x1="0" y1="0" x2="0" y2="1"><stop offset="0" stop-color="#829dac"/><stop offset="1" stop-color="#678291"/></linearGradient><linearGradient id="pkokTom0" x1="0" y1="0" x2="0" y2="1"><stop offset="0" stop-color="#91adbf"/><stop offset="1" stop-color="#89a5b7"/></linearGradient><linearGradient id="psariq1" x1="0" y1="0" x2="0" y2="1"><stop offset="0" stop-color="#cfa24d"/><stop offset="1" stop-color="#b48732"/></linearGradient><linearGradient id="psariq0" x1="0" y1="0" x2="0" y2="1"><stop offset="0" stop-color="#dfaf54"/><stop offset="1" stop-color="#d7a74c"/></linearGradient><linearGradient id="ptana1" x1="0" y1="0" x2="0" y2="1"><stop offset="0" stop-color="#b3a896"/><stop offset="1" stop-color="#988d7b"/></linearGradient><linearGradient id="ptana0" x1="0" y1="0" x2="0" y2="1"><stop offset="0" stop-color="#bfb4a1"/><stop offset="1" stop-color="#b7ac99"/></linearGradient><linearGradient id="ptana2" x1="0" y1="0" x2="0" y2="1"><stop offset="0" stop-color="#988e7e"/><stop offset="1" stop-color="#7d7363"/></linearGradient><linearGradient id="poq1" x1="0" y1="0" x2="0" y2="1"><stop offset="0" stop-color="#f9f6ef"/><stop offset="1" stop-color="#dedbd4"/></linearGradient><linearGradient id="poq2" x1="0" y1="0" x2="0" y2="1"><stop offset="0" stop-color="#e6e2d9"/><stop offset="1" stop-color="#cbc7be"/></linearGradient><linearGradient id="poq0" x1="0" y1="0" x2="0" y2="1"><stop offset="0" stop-color="#fffefa"/><stop offset="1" stop-color="#f8f6f2"/></linearGradient><linearGradient id="pqoraMetall0" x1="0" y1="0" x2="0" y2="1"><stop offset="0" stop-color="#838a85"/><stop offset="1" stop-color="#7b827d"/></linearGradient><linearGradient id="pkok0" x1="0" y1="0" x2="0" y2="1"><stop offset="0" stop-color="#648398"/><stop offset="1" stop-color="#5c7b90"/></linearGradient><filter id="soya" x="-30%" y="-30%" width="160%" height="180%"><feGaussianBlur stdDeviation="7.0"/></filter></defs><rect width="320" height="240" fill="#FFFFFF"/><g filter="url(#soya)" opacity="0.17"></g><polygon points="76,67 248,167 248,145 76,46" fill="url(#psuvoq1)" stroke="#d5cfc3" stroke-width="0.7" stroke-linejoin="round"/><polygon points="248,167 291,142 291,121 248,145" fill="url(#psuvoq2)" stroke="#c0b8a9" stroke-width="0.7" stroke-linejoin="round"/><polygon points="69,46 248,149 273,122 94,19" fill="url(#pshifer1)" stroke="#a3a6a0" stroke-width="0.7" stroke-linejoin="round"/><polygon points="248,149 273,122 298,121" fill="url(#pshifer2)" stroke="#898c86" stroke-width="0.7" stroke-linejoin="round"/><polygon points="69,46 69,47 248,151 248,149" fill="url(#pshifer2)" stroke="#898c86" stroke-width="0.7" stroke-linejoin="round"/><polyline points="72,43 251,146" fill="none" stroke="#6F6A60" stroke-width="0.5" opacity="0.16"/><polyline points="75,39 255,143" fill="none" stroke="#6F6A60" stroke-width="0.5" opacity="0.16"/><polyline points="79,36 258,139" fill="none" stroke="#6F6A60" stroke-width="0.5" opacity="0.16"/><polyline points="82,32 261,136" fill="none" stroke="#6F6A60" stroke-width="0.5" opacity="0.16"/><polyline points="85,29 264,132" fill="none" stroke="#6F6A60" stroke-width="0.5" opacity="0.16"/><polyline points="88,26 267,129" fill="none" stroke="#6F6A60" stroke-width="0.5" opacity="0.16"/><polyline points="91,22 270,126" fill="none" stroke="#6F6A60" stroke-width="0.5" opacity="0.16"/><polygon points="93,20 273,124 273,123 93,19" fill="url(#pshifer1)" stroke="#a3a6a0" stroke-width="0.7" stroke-linejoin="round"/><polygon points="273,124 274,122 274,122 273,123" fill="url(#pshifer2)" stroke="#898c86" stroke-width="0.7" stroke-linejoin="round"/><polygon points="95,18 274,122 273,123 93,19" fill="url(#pbeton0)" stroke="#ccc9c1" stroke-width="0.7" stroke-linejoin="round"/><polygon points="84,62 94,68 94,60 84,54" fill="url(#pqoraMetall1)" stroke="#5a615c" stroke-width="0.7" stroke-linejoin="round"/><polygon points="99,70 109,76 109,68 99,63" fill="url(#pqoraMetall1)" stroke="#5a615c" stroke-width="0.7" stroke-linejoin="round"/><polygon points="114,79 124,85 124,77 114,71" fill="url(#pqoraMetall1)" stroke="#5a615c" stroke-width="0.7" stroke-linejoin="round"/><polygon points="129,88 138,93 138,85 129,80" fill="url(#pqoraMetall1)" stroke="#5a615c" stroke-width="0.7" stroke-linejoin="round"/><polygon points="144,96 153,102 153,94 144,88" fill="url(#pqoraMetall1)" stroke="#5a615c" stroke-width="0.7" stroke-linejoin="round"/><polygon points="159,105 168,111 168,103 159,97" fill="url(#pqoraMetall1)" stroke="#5a615c" stroke-width="0.7" stroke-linejoin="round"/><polygon points="173,114 183,119 183,111 173,106" fill="url(#pqoraMetall1)" stroke="#5a615c" stroke-width="0.7" stroke-linejoin="round"/><polygon points="188,122 198,128 198,120 188,114" fill="url(#pqoraMetall1)" stroke="#5a615c" stroke-width="0.7" stroke-linejoin="round"/><polygon points="203,131 213,136 213,128 203,123" fill="url(#pqoraMetall1)" stroke="#5a615c" stroke-width="0.7" stroke-linejoin="round"/><polygon points="218,139 228,145 228,137 218,131" fill="url(#pqoraMetall1)" stroke="#5a615c" stroke-width="0.7" stroke-linejoin="round"/><polygon points="233,148 243,154 243,146 233,140" fill="url(#pqoraMetall1)" stroke="#5a615c" stroke-width="0.7" stroke-linejoin="round"/><polygon points="153,112 162,117 162,100 153,95" fill="url(#pdarvoza1)" stroke="#345839" stroke-width="0.7" stroke-linejoin="round"/><polygon points="13,104 185,203 185,182 13,82" fill="url(#psuvoq1)" stroke="#d5cfc3" stroke-width="0.7" stroke-linejoin="round"/><polygon points="185,203 228,178 228,157 185,182" fill="url(#psuvoq2)" stroke="#c0b8a9" stroke-width="0.7" stroke-linejoin="round"/><polygon points="6,82 185,186 210,159 31,55" fill="url(#pshifer1)" stroke="#a3a6a0" stroke-width="0.7" stroke-linejoin="round"/><polygon points="185,186 210,159 235,157" fill="url(#pshifer2)" stroke="#898c86" stroke-width="0.7" stroke-linejoin="round"/><polygon points="6,82 6,84 185,187 185,186" fill="url(#pshifer2)" stroke="#898c86" stroke-width="0.7" stroke-linejoin="round"/><polyline points="9,79 188,182" fill="none" stroke="#6F6A60" stroke-width="0.5" opacity="0.16"/><polyline points="12,76 191,179" fill="none" stroke="#6F6A60" stroke-width="0.5" opacity="0.16"/><polyline points="15,72 195,176" fill="none" stroke="#6F6A60" stroke-width="0.5" opacity="0.16"/><polyline points="19,69 198,172" fill="none" stroke="#6F6A60" stroke-width="0.5" opacity="0.16"/><polyline points="22,65 201,169" fill="none" stroke="#6F6A60" stroke-width="0.5" opacity="0.16"/><polyline points="25,62 204,165" fill="none" stroke="#6F6A60" stroke-width="0.5" opacity="0.16"/><polyline points="28,59 207,162" fill="none" stroke="#6F6A60" stroke-width="0.5" opacity="0.16"/><polygon points="30,56 209,160 209,159 30,55" fill="url(#pshifer1)" stroke="#a3a6a0" stroke-width="0.7" stroke-linejoin="round"/><polygon points="209,160 211,159 211,158 209,159" fill="url(#pshifer2)" stroke="#898c86" stroke-width="0.7" stroke-linejoin="round"/><polygon points="32,54 211,158 209,159 30,55" fill="url(#pbeton0)" stroke="#ccc9c1" stroke-width="0.7" stroke-linejoin="round"/><polygon points="21,98 31,104 31,96 21,90" fill="url(#pqoraMetall1)" stroke="#5a615c" stroke-width="0.7" stroke-linejoin="round"/><polygon points="36,107 46,113 46,105 36,99" fill="url(#pqoraMetall1)" stroke="#5a615c" stroke-width="0.7" stroke-linejoin="round"/><polygon points="51,116 60,121 60,113 51,108" fill="url(#pqoraMetall1)" stroke="#5a615c" stroke-width="0.7" stroke-linejoin="round"/><polygon points="66,124 75,130 75,122 66,116" fill="url(#pqoraMetall1)" stroke="#5a615c" stroke-width="0.7" stroke-linejoin="round"/><polygon points="81,133 90,138 90,130 81,125" fill="url(#pqoraMetall1)" stroke="#5a615c" stroke-width="0.7" stroke-linejoin="round"/><polygon points="95,141 105,147 105,139 95,133" fill="url(#pqoraMetall1)" stroke="#5a615c" stroke-width="0.7" stroke-linejoin="round"/><polygon points="110,150 120,156 120,148 110,142" fill="url(#pqoraMetall1)" stroke="#5a615c" stroke-width="0.7" stroke-linejoin="round"/><polygon points="125,159 135,164 135,156 125,151" fill="url(#pqoraMetall1)" stroke="#5a615c" stroke-width="0.7" stroke-linejoin="round"/><polygon points="140,167 150,173 150,165 140,159" fill="url(#pqoraMetall1)" stroke="#5a615c" stroke-width="0.7" stroke-linejoin="round"/><polygon points="155,176 165,181 165,173 155,168" fill="url(#pqoraMetall1)" stroke="#5a615c" stroke-width="0.7" stroke-linejoin="round"/><polygon points="170,184 180,190 180,182 170,176" fill="url(#pqoraMetall1)" stroke="#5a615c" stroke-width="0.7" stroke-linejoin="round"/><polygon points="90,148 98,153 98,136 90,132" fill="url(#pdarvoza1)" stroke="#345839" stroke-width="0.7" stroke-linejoin="round"/><polygon points="298,168 298,169 298,169 298,169 298,169 297,169 297,169 296,169 296,169 296,169 296,169 296,168 296,119 296,119 296,119 296,119 296,119 297,119 297,119 298,119 298,119 298,119 298,119 298,119" fill="url(#pmetall1)" stroke="#a9ada9" stroke-width="0.7" stroke-linejoin="round"/><polygon points="298,119 298,119 297,119 297,119 296,119 296,119 296,119 296,119 296,118 296,118 296,118 297,118 297,118 298,118 298,118 298,118 298,119 298,119 298,119" fill="url(#pmetall0)" stroke="#bcc0bc" stroke-width="0.7" stroke-linejoin="round"/><polygon points="312,176 312,176 312,177 312,177 311,177 311,177 311,177 310,177 310,177 310,177 309,176 309,176 309,127 309,127 310,127 310,127 310,127 311,127 311,127 311,127 312,127 312,127 312,127 312,127" fill="url(#pmetall1)" stroke="#a9ada9" stroke-width="0.7" stroke-linejoin="round"/><polygon points="312,127 311,127 311,127 310,127 310,127 310,127 309,127 309,127 310,126 310,126 310,126 311,126 311,126 311,126 312,126 312,126 312,127 312,127 312,127" fill="url(#pmetall0)" stroke="#bcc0bc" stroke-width="0.7" stroke-linejoin="round"/><polygon points="285,176 284,176 284,177 284,177 284,177 283,177 283,177 283,177 282,177 282,177 282,176 282,176 282,127 282,127 282,127 282,127 283,127 283,127 283,127 284,127 284,127 284,127 284,127 285,127" fill="url(#pmetall1)" stroke="#a9ada9" stroke-width="0.7" stroke-linejoin="round"/><polygon points="284,127 284,127 283,127 283,127 282,127 282,127 282,127 282,127 282,126 282,126 283,126 283,126 284,126 284,126 284,126 284,126 285,127 284,127 284,127" fill="url(#pmetall0)" stroke="#bcc0bc" stroke-width="0.7" stroke-linejoin="round"/><polygon points="314,127 313,130 311,133 308,135 304,136 299,137 295,137 290,136 286,135 283,133 281,130 280,127 280,109 281,111 283,114 286,116 290,118 295,118 299,118 304,118 308,116 311,114 313,111 314,109" fill="url(#pmetall1)" stroke="#a9ada9" stroke-width="0.7" stroke-linejoin="round"/><polygon points="309,116 304,118 298,118 293,118 287,117 283,114 281,111 280,108 282,105 285,102 290,100 295,99 301,99 307,101 311,103 313,106 314,110 312,113 309,116" fill="url(#pmetall0)" stroke="#bcc0bc" stroke-width="0.7" stroke-linejoin="round"/><polygon points="314,109 313,111 311,114 308,116 304,118 299,118 295,118 290,118 286,116 283,114 281,111 280,109 280,108 281,111 283,113 286,115 290,117 295,118 299,118 304,117 308,115 311,113 313,111 314,108" fill="url(#pkokTom1)" stroke="#647f8e" stroke-width="0.7" stroke-linejoin="round"/><polygon points="309,115 304,117 298,118 293,118 287,116 283,114 281,111 280,107 282,104 285,101 290,99 295,98 301,99 307,100 311,102 313,105 314,109 312,112 309,115" fill="url(#pkokTom0)" stroke="#7995a7" stroke-width="0.7" stroke-linejoin="round"/><polygon points="239,207 240,206 241,204 241,202 241,199 240,196 238,194 236,192 234,190 232,189 230,189 229,189 220,194 222,194 224,194 226,195 228,197 230,199 231,201 232,204 232,207 232,209 232,211 230,212" fill="url(#psariq1)" stroke="#b1842f" stroke-width="0.7" stroke-linejoin="round"/><polygon points="232,207 232,204 231,201 229,198 227,196 224,194 222,194 220,195 219,196 218,199 219,202 220,205 222,208 224,210 227,212 229,212 231,212 232,210 232,207" fill="url(#psariq0)" stroke="#c7973c" stroke-width="0.7" stroke-linejoin="round"/><polygon points="222,217 223,216 224,214 224,212 223,209 222,206 221,204 219,202 217,200 215,199 213,199 212,199 203,204 205,204 207,204 209,205 211,207 212,209 214,211 215,214 215,217 215,219 214,221 213,222" fill="url(#psariq1)" stroke="#b1842f" stroke-width="0.7" stroke-linejoin="round"/><polygon points="215,217 215,214 214,211 212,208 209,206 207,204 205,204 203,204 201,206 201,209 201,212 203,215 205,218 207,220 209,222 212,222 214,221 215,220 215,217" fill="url(#psariq0)" stroke="#c7973c" stroke-width="0.7" stroke-linejoin="round"/><polygon points="33,62 33,62 33,62 33,62 33,62 33,62 33,62 33,62 33,62 33,62 32,62 32,62 32,52 32,52 33,52 33,52 33,53 33,53 33,53 33,53 33,52 33,52 33,52 33,52" fill="url(#ptana1)" stroke="#958a78" stroke-width="0.7" stroke-linejoin="round"/><polygon points="33,52 33,53 33,53 33,53 33,53 33,52 32,52 32,52 33,52 33,52 33,52 33,52 33,52 33,52 33,52 33,52 33,52 33,52 33,52" fill="url(#ptana0)" stroke="#a79c89" stroke-width="0.7" stroke-linejoin="round"/><polygon points="39,65 39,65 39,65 38,65 38,65 38,65 38,65 38,65 38,65 38,65 38,65 38,65 38,55 38,55 38,55 38,55 38,56 38,56 38,56 38,56 38,55 39,55 39,55 39,55" fill="url(#ptana1)" stroke="#958a78" stroke-width="0.7" stroke-linejoin="round"/><polygon points="38,55 38,56 38,56 38,56 38,55 38,55 38,55 38,55 38,55 38,55 38,55 38,55 38,55 38,55 39,55 39,55 39,55 39,55 38,55" fill="url(#ptana0)" stroke="#a79c89" stroke-width="0.7" stroke-linejoin="round"/><polygon points="44,68 44,68 44,68 44,68 43,68 43,68 43,68 43,68 43,68 43,68 43,68 43,68 43,58 43,58 43,58 43,58 43,58 43,59 43,59 43,58 44,58 44,58 44,58 44,58" fill="url(#ptana1)" stroke="#958a78" stroke-width="0.7" stroke-linejoin="round"/><polygon points="44,58 43,58 43,59 43,59 43,58 43,58 43,58 43,58 43,58 43,58 43,58 43,58 43,58 44,58 44,58 44,58 44,58 44,58 44,58" fill="url(#ptana0)" stroke="#a79c89" stroke-width="0.7" stroke-linejoin="round"/><polygon points="49,71 49,71 49,71 49,71 49,71 49,71 48,71 48,71 48,71 48,71 48,71 48,71 48,61 48,61 48,61 48,61 48,61 48,61 49,61 49,61 49,61 49,61 49,61 49,61" fill="url(#ptana1)" stroke="#958a78" stroke-width="0.7" stroke-linejoin="round"/><polygon points="49,61 49,61 48,61 48,61 48,61 48,61 48,61 48,61 48,61 48,61 48,61 48,61 49,61 49,61 49,61 49,61 49,61 49,61 49,61" fill="url(#ptana0)" stroke="#a79c89" stroke-width="0.7" stroke-linejoin="round"/><polygon points="54,74 54,74 54,74 54,74 54,74 54,74 54,74 53,74 53,74 53,74 53,74 53,74 53,64 53,64 53,64 53,64 53,64 54,64 54,64 54,64 54,64 54,64 54,64 54,64" fill="url(#ptana1)" stroke="#958a78" stroke-width="0.7" stroke-linejoin="round"/><polygon points="54,64 54,64 54,64 53,64 53,64 53,64 53,64 53,64 53,64 53,64 53,64 54,64 54,64 54,64 54,64 54,64 54,64 54,64 54,64" fill="url(#ptana0)" stroke="#a79c89" stroke-width="0.7" stroke-linejoin="round"/><polygon points="59,77 59,77 59,77 59,77 59,77 59,77 59,77 59,77 58,77 58,77 58,77 58,77 58,67 58,67 58,67 58,67 59,67 59,67 59,67 59,67 59,67 59,67 59,67 59,67" fill="url(#ptana1)" stroke="#958a78" stroke-width="0.7" stroke-linejoin="round"/><polygon points="59,67 59,67 59,67 59,67 58,67 58,67 58,67 58,67 58,67 58,67 59,67 59,67 59,67 59,67 59,67 59,67 59,67 59,67 59,67" fill="url(#ptana0)" stroke="#a79c89" stroke-width="0.7" stroke-linejoin="round"/><polygon points="64,80 64,80 64,80 64,80 64,80 64,80 64,80 64,80 64,80 64,80 63,80 63,80 63,70 63,70 64,70 64,70 64,70 64,70 64,70 64,70 64,70 64,70 64,70 64,70" fill="url(#ptana1)" stroke="#958a78" stroke-width="0.7" stroke-linejoin="round"/><polygon points="64,70 64,70 64,70 64,70 64,70 64,70 63,70 63,70 63,70 64,70 64,70 64,70 64,70 64,70 64,70 64,70 64,70 64,70 64,70" fill="url(#ptana0)" stroke="#a79c89" stroke-width="0.7" stroke-linejoin="round"/><polygon points="70,83 70,83 69,83 69,83 69,83 69,83 69,83 69,83 69,83 69,83 69,83 69,83 69,73 69,73 69,73 69,73 69,73 69,73 69,73 69,73 69,73 69,73 70,73 70,73" fill="url(#ptana1)" stroke="#958a78" stroke-width="0.7" stroke-linejoin="round"/><polygon points="69,73 69,73 69,73 69,73 69,73 69,73 69,73 69,73 69,73 69,73 69,73 69,73 69,73 69,73 69,73 70,73 70,73 70,73 69,73" fill="url(#ptana0)" stroke="#a79c89" stroke-width="0.7" stroke-linejoin="round"/><polygon points="75,86 75,86 75,86 75,86 74,86 74,86 74,86 74,86 74,86 74,86 74,86 74,86 74,76 74,76 74,76 74,76 74,76 74,76 74,76 74,76 75,76 75,76 75,76 75,76" fill="url(#ptana1)" stroke="#958a78" stroke-width="0.7" stroke-linejoin="round"/><polygon points="75,76 74,76 74,76 74,76 74,76 74,76 74,76 74,76 74,76 74,76 74,76 74,76 74,76 75,76 75,76 75,76 75,76 75,76 75,76" fill="url(#ptana0)" stroke="#a79c89" stroke-width="0.7" stroke-linejoin="round"/><polygon points="80,89 80,89 80,89 80,89 80,89 79,89 79,89 79,89 79,89 79,89 79,89 79,89 79,79 79,79 79,79 79,79 79,79 79,79 79,79 80,79 80,79 80,79 80,79 80,79" fill="url(#ptana1)" stroke="#958a78" stroke-width="0.7" stroke-linejoin="round"/><polygon points="80,79 80,79 79,79 79,79 79,79 79,79 79,79 79,79 79,79 79,79 79,79 79,79 80,79 80,79 80,79 80,79 80,79 80,79 80,79" fill="url(#ptana0)" stroke="#a79c89" stroke-width="0.7" stroke-linejoin="round"/><polygon points="85,92 85,92 85,92 85,92 85,92 85,92 84,92 84,92 84,92 84,92 84,92 84,92 84,82 84,82 84,82 84,82 84,82 84,82 85,82 85,82 85,82 85,82 85,82 85,82" fill="url(#ptana1)" stroke="#958a78" stroke-width="0.7" stroke-linejoin="round"/><polygon points="85,82 85,82 85,82 84,82 84,82 84,82 84,82 84,82 84,82 84,82 84,82 85,82 85,82 85,82 85,82 85,82 85,82 85,82 85,82" fill="url(#ptana0)" stroke="#a79c89" stroke-width="0.7" stroke-linejoin="round"/><polygon points="90,95 90,95 90,95 90,95 90,95 90,95 90,95 90,95 89,95 89,95 89,95 89,95 89,85 89,85 89,85 89,85 90,85 90,85 90,85 90,85 90,85 90,85 90,85 90,85" fill="url(#ptana1)" stroke="#958a78" stroke-width="0.7" stroke-linejoin="round"/><polygon points="90,85 90,85 90,85 90,85 89,85 89,85 89,85 89,85 89,85 89,85 90,85 90,85 90,85 90,85 90,85 90,85 90,85 90,85 90,85" fill="url(#ptana0)" stroke="#a79c89" stroke-width="0.7" stroke-linejoin="round"/><polygon points="95,98 95,98 95,98 95,98 95,98 95,98 95,98 95,98 95,98 94,98 94,98 94,98 94,88 94,88 94,88 95,88 95,88 95,88 95,88 95,88 95,88 95,88 95,88 95,88" fill="url(#ptana1)" stroke="#958a78" stroke-width="0.7" stroke-linejoin="round"/><polygon points="95,88 95,88 95,88 95,88 95,88 94,88 94,88 94,88 94,88 95,88 95,88 95,88 95,88 95,88 95,88 95,88 95,88 95,88 95,88" fill="url(#ptana0)" stroke="#a79c89" stroke-width="0.7" stroke-linejoin="round"/><polygon points="32,53 95,89 95,89 32,52" fill="url(#ptana1)" stroke="#958a78" stroke-width="0.7" stroke-linejoin="round"/><polygon points="95,89 96,89 96,88 95,89" fill="url(#ptana2)" stroke="#7a7060" stroke-width="0.7" stroke-linejoin="round"/><polygon points="33,52 96,88 95,89 32,52" fill="url(#ptana0)" stroke="#a79c89" stroke-width="0.7" stroke-linejoin="round"/><polygon points="275,211 275,212 275,212 275,212 274,212 274,212 274,212 274,212 273,212 273,212 273,212 273,211 273,172 273,172 273,172 273,172 274,172 274,172 274,172 274,172 275,172 275,172 275,172 275,172" fill="url(#pmetall1)" stroke="#a9ada9" stroke-width="0.7" stroke-linejoin="round"/><polygon points="275,172 274,172 274,172 274,172 273,172 273,172 273,172 273,172 273,171 273,171 274,171 274,171 274,171 275,171 275,171 275,171 275,172 275,172 275,172" fill="url(#pmetall0)" stroke="#bcc0bc" stroke-width="0.7" stroke-linejoin="round"/><polygon points="271,175 276,177 276,174 271,172" fill="url(#poq1)" stroke="#dbd8d1" stroke-width="0.7" stroke-linejoin="round"/><polygon points="276,177 278,176 278,173 276,174" fill="url(#poq2)" stroke="#c8c4bb" stroke-width="0.7" stroke-linejoin="round"/><polygon points="274,171 278,173 276,174 271,172" fill="url(#poq0)" stroke="#e8e6e2" stroke-width="0.7" stroke-linejoin="round"/><polygon points="276,176 279,179 281,178 278,175" fill="url(#pqoraMetall0)" stroke="#6b726d" stroke-width="0.7" stroke-linejoin="round"/><polygon points="266,166 276,168 267,173 257,171" fill="url(#pkok0)" stroke="#4c6b80" stroke-width="0.7" stroke-linejoin="round"/></svg>