<svg xmlns="http://www.w3.org/2000/svg" viewBox="0 0 320 240" width="320" height="240" role="img" aria-label="Chorvachilik fermasi"><defs><linearGradient id="psuvoq1" x1="0" y1="0" x2="0" y2="1"><stop offset="0" stop-color="#f3ede1"/><stop offset="1" stop-color="#d8d2c6"/></linearGradient><linearGradient id="psuvoq2" x1="0" y1="0" x2="0" y2="1"><stop offset="0" stop-color="#ded6c7"/><stop offset="1" stop-color="#c3bbac"/></linearGradient><linearGradient id="pshifer1" x1="0" y1="0" x2="0" y2="1"><stop offset="0" stop-color="#c1c4be"/><stop offset="1" stop-color="#a6a9a3"/></linearGradient><linearGradient id="pshifer2" x1="0" y1="0" x2="0" y2="1"><stop offset="0" stop-color="#a7aaa4"/><stop offset="1" stop-color="#8c8f89"/></linearGradient><linearGradient id="pbeton0" x1="0" y1="0" x2="0" y2="1"><stop offset="0" stop-color="#e4e1d9"/><stop offset="1" stop-color="#dcd9d1"/></linearGradient><linearGradient id="pqoraMetall1" x1="0" y1="0" x2="0" y2="1"><stop offset="0" stop-color="#787f7a"/><stop offset="1" stop-color="#5d645f"/></linearGradient><linearGradient id="pdarvoza1" x1="0" y1="0" x2="0" y2="1"><stop offset="0" stop-color="#527657"/><stop offset="1" stop-color="#375b3c"/></linearGradient><linearGradient id="pmetall1" x1="0" y1="0" x2="0" y2="1"><stop offset="0" stop-color="#c7cbc7"/><stop offset="1" stop-color="#acb0ac"/></linearGradient><linearGradient id="pmetall0" x1="0" y1="0" x2="0" y2="1"><stop offset="0" stop-color="#d4d8d4"/><stop offset="1" stop-color="#ccd0cc"/></linearGradient><linearGradient id="pkokTom1" x1="0" y1="0" x2="0" y2="1"><stop offset="0" stop-color="#829dac"/><stop offset="1" stop-color="#678291"/></linearGradient><linearGradient id="pkokTom0" x1="0" y1="0" x2="0" y2="1"><stop offset="0" stop-color="#91adbf"/><stop offset="1" stop-color="#89a5b7"/></linearGradient><linearGradient id="psariq1" x1="0" y1="0" x2="0" y2="1"><stop offset="0" stop-color="#cfa24d"/><stop offset="1" stop-color="#b48732"/></linearGradient><linearGradient id="psariq0" x1="0" y1="0" x2="0" y2="1"><stop offset="0" stop-color="#dfaf54"/><stop offset="1" stop-color="#d7a74c"/></linearGradient><linearGradient id="ptana1" x1="0" y1="0" x2="0" y2="1"><stop offset="0" stop-color="#b3a896"/><stop offset="1" stop-color="#988d7b"/></linearGradient><linearGradient id="ptana0" x1="0" y1="0" x2="0" y2="1"><stop offset="0" stop-color="#bfb4a1"/><stop offset="1" stop-color="#b7ac99"/></linearGradient><linearGradient id="ptana2" x1="0" y1="0" x2="0" y2="1"><stop offset="0" stop-color="#988e7e"/><stop offset="1" stop-color="#7d7363"/></linearGradient><linearGradient id="poq1" x1="0" y1="0" x2="0" y2="1"><stop offset="0" stop-color="#f9f6ef"/><stop offset="1" stop-color="#dedbd4"/></linearGradient><linearGradient id="poq2" x1="0" y1="0" x2="0" y2="1"><stop offset="0" stop-color="#e6e2d9"/><stop offset="1" stop-color="#cbc7be"/></linearGradient><linearGradient id="poq0" x1="0" y1="0" x2="0" y2="1"><stop offset="0" stop-color="#fffefa"/><stop offset="1" stop-color="#f8f6f2"/></linearGradient><linearGradient id="pqoraMetall0" x1="0" y1="0" x2="0" y2="1"><stop offset="0" stop-color="#838a85"/><stop offset="1" stop-color="#7b827d"/></linearGradient><linearGradient id="pkok0" x1="0" y1="0" x2="0" y2="1"><stop offset="0" stop-color="#648398"/><stop offset="1" stop-color="#5c7b90"/></linearGradient><filter id="soya" x="-30%" y="-30%" width="160%" height="180%"><feGaussianBlur stdDeviation="7.0"/></filter></defs><rect width="320" height="240" fill="#FFFFFF"/><g filter="url(#soya)" opacity="0.17"></g><polygon points="74,66 250,168 250,147 74,46" fill="url(#psuvoq1)" stroke="#d5cfc3" stroke-width="0.7" stroke-linejoin="round"/><polygon points="250,168 292,144 292,123 250,147" fill="url(#psuvoq2)" stroke="#c0b8a9" stroke-width="0.7" stroke-linejoin="round"/><polygon points="67,46 250,151 274,125 91,19" fill="url(#pshifer1)" stroke="#a3a6a0" stroke-width="0.7" stroke-linejoin="round"/><polygon points="250,151 274,125 299,123" fill="url(#pshifer2)" stroke="#898c86" stroke-width="0.7" stroke-linejoin="round"/><polygon points="67,46 67,47 250,153 250,151" fill="url(#pshifer2)" stroke="#898c86" stroke-width="0.7" stroke-linejoin="round"/><polyline points="70,42 253,148" fill="none" stroke="#6F6A60" stroke-width="0.5" opacity="0.16"/><polyline points="73,39 256,145" fill="none" stroke="#6F6A60" stroke-width="0.5" opacity="0.16"/><polyline points="76,36 259,141" fill="none" stroke="#6F6A60" stroke-width="0.5" opacity="0.16"/><polyline points="79,32 262,138" fill="none" stroke="#6F6A60" stroke-width="0.5" opacity="0.16"/><polyline points="82,29 266,135" fill="none" stroke="#6F6A60" stroke-width="0.5" opacity="0.16"/><polyline points="86,26 269,131" fill="none" stroke="#6F6A60" stroke-width="0.5" opacity="0.16"/><polyline points="89,22 272,128" fill="none" stroke="#6F6A60" stroke-width="0.5" opacity="0.16"/><polygon points="90,20 274,126 274,125 90,19" fill="url(#pshifer1)" stroke="#a3a6a0" stroke-width="0.7" stroke-linejoin="round"/><polygon points="274,126 276,125 276,124 274,125" fill="url(#pshifer2)" stroke="#898c86" stroke-width="0.7" stroke-linejoin="round"/><polygon points="92,18 276,124 274,125 90,19" fill="url(#pbeton0)" stroke="#ccc9c1" stroke-width="0.7" stroke-linejoin="round"/><polygon points="82,61 91,66 91,59 82,53" fill="url(#pqoraMetall1)" stroke="#5a615c" stroke-width="0.7" stroke-linejoin="round"/><polygon points="96,69 106,75 106,67 96,62" fill="url(#pqoraMetall1)" stroke="#5a615c" stroke-width="0.7" stroke-linejoin="round"/><polygon points="111,78 120,83 120,75 111,70" fill="url(#pqoraMetall1)" stroke="#5a615c" stroke-width="0.7" stroke-linejoin="round"/><polygon points="125,86 134,91 134,84 125,78" fill="url(#pqoraMetall1)" stroke="#5a615c" stroke-width="0.7" stroke-linejoin="round"/><polygon points="139,94 149,100 149,92 139,87" fill="url(#pqoraMetall1)" stroke="#5a615c" stroke-width="0.7" stroke-linejoin="round"/><polygon points="154,103 163,108 163,100 154,95" fill="url(#pqoraMetall1)" stroke="#5a615c" stroke-width="0.7" stroke-linejoin="round"/><polygon points="168,111 178,116 178,109 168,103" fill="url(#pqoraMetall1)" stroke="#5a615c" stroke-width="0.7" stroke-linejoin="round"/><polygon points="183,119 192,125 192,117 183,112" fill="url(#pqoraMetall1)" stroke="#5a615c" stroke-width="0.7" stroke-linejoin="round"/><polygon points="197,128 207,133 207,125 197,120" fill="url(#pqoraMetall1)" stroke="#5a615c" stroke-width="0.7" stroke-linejoin="round"/><polygon points="212,136 221,142 221,134 212,128" fill="url(#pqoraMetall1)" stroke="#5a615c" stroke-width="0.7" stroke-linejoin="round"/><polygon points="226,144 236,150 236,142 226,137" fill="url(#pqoraMetall1)" stroke="#5a615c" stroke-width="0.7" stroke-linejoin="round"/><polygon points="241,153 250,158 250,150 241,145" fill="url(#pqoraMetall1)" stroke="#5a615c" stroke-width="0.7" stroke-linejoin="round"/><polygon points="153,112 161,116 161,100 153,96" fill="url(#pdarvoza1)" stroke="#345839" stroke-width="0.7" stroke-linejoin="round"/><polygon points="13,101 189,203 189,183 13,81" fill="url(#psuvoq1)" stroke="#d5cfc3" stroke-width="0.7" stroke-linejoin="round"/><polygon points="189,203 231,179 231,159 189,183" fill="url(#psuvoq2)" stroke="#c0b8a9" stroke-width="0.7" stroke-linejoin="round"/><polygon points="6,81 189,187 213,160 30,55" fill="url(#pshifer1)" stroke="#a3a6a0" stroke-width="0.7" stroke-linejoin="round"/><polygon points="189,187 213,160 237,159" fill="url(#pshifer2)" stroke="#898c86" stroke-width="0.7" stroke-linejoin="round"/><polygon points="6,81 6,82 189,188 189,187" fill="url(#pshifer2)" stroke="#898c86" stroke-width="0.7" stroke-linejoin="round"/><polyline points="9,78 192,183" fill="none" stroke="#6F6A60" stroke-width="0.5" opacity="0.16"/><polyline points="12,74 195,180" fill="none" stroke="#6F6A60" stroke-width="0.5" opacity="0.16"/><polyline points="15,71 198,177" fill="none" stroke="#6F6A60" stroke-width="0.5" opacity="0.16"/><polyline points="18,68 201,173" fill="none" stroke="#6F6A60" stroke-width="0.5" opacity="0.16"/><polyline points="21,64 204,170" fill="none" stroke="#6F6A60" stroke-width="0.5" opacity="0.16"/><polyline points="24,61 207,167" fill="none" stroke="#6F6A60" stroke-width="0.5" opacity="0.16"/><polyline points="27,58 210,163" fill="none" stroke="#6F6A60" stroke-width="0.5" opacity="0.16"/><polygon points="29,55 213,161 213,161 29,55" fill="url(#pshifer1)" stroke="#a3a6a0" stroke-width="0.7" stroke-linejoin="round"/><polygon points="213,161 214,160 214,160 213,161" fill="url(#pshifer2)" stroke="#898c86" stroke-width="0.7" stroke-linejoin="round"/><polygon points="31,53 214,160 213,161 29,55" fill="url(#pbeton0)" stroke="#ccc9c1" stroke-width="0.7" stroke-linejoin="round"/><polygon points="20,96 30,102 30,94 20,89" fill="url(#pqoraMetall1)" stroke="#5a615c" stroke-width="0.7" stroke-linejoin="round"/><polygon points="35,105 44,110 44,102 35,97" fill="url(#pqoraMetall1)" stroke="#5a615c" stroke-width="0.7" stroke-linejoin="round"/><polygon points="49,113 59,118 59,111 49,105" fill="url(#pqoraMetall1)" stroke="#5a615c" stroke-width="0.7" stroke-linejoin="round"/><polygon points="64,121 73,127 73,119 64,114" fill="url(#pqoraMetall1)" stroke="#5a615c" stroke-width="0.7" stroke-linejoin="round"/><polygon points="78,130 88,135 88,127 78,122" fill="url(#pqoraMetall1)" stroke="#5a615c" stroke-width="0.7" stroke-linejoin="round"/><polygon points="93,138 102,143 102,136 93,130" fill="url(#pqoraMetall1)" stroke="#5a615c" stroke-width="0.7" stroke-linejoin="round"/><polygon points="107,146 117,152 117,144 107,139" fill="url(#pqoraMetall1)" stroke="#5a615c" stroke-width="0.7" stroke-linejoin="round"/><polygon points="122,155 131,160 131,152 122,147" fill="url(#pqoraMetall1)" stroke="#5a615c" stroke-width="0.7" stroke-linejoin="round"/><polygon points="136,163 146,168 146,161 136,155" fill="url(#pqoraMetall1)" stroke="#5a615c" stroke-width="0.7" stroke-linejoin="round"/><polygon points="151,171 160,177 160,169 151,164" fill="url(#pqoraMetall1)" stroke="#5a615c" stroke-width="0.7" stroke-linejoin="round"/><polygon points="165,180 174,185 174,177 165,172" fill="url(#pqoraMetall1)" stroke="#5a615c" stroke-width="0.7" stroke-linejoin="round"/><polygon points="179,188 189,194 189,186 179,180" fill="url(#pqoraMetall1)" stroke="#5a615c" stroke-width="0.7" stroke-linejoin="round"/><polygon points="92,147 100,152 100,136 92,131" fill="url(#pdarvoza1)" stroke="#345839" stroke-width="0.7" stroke-linejoin="round"/><polygon points="299,170 299,170 299,170 298,170 298,170 298,170 297,170 297,170 297,170 296,170 296,170 296,170 296,121 296,122 296,122 297,122 297,122 297,122 298,122 298,122 298,122 299,122 299,122 299,121" fill="url(#pmetall1)" stroke="#a9ada9" stroke-width="0.7" stroke-linejoin="round"/><polygon points="298,122 298,122 298,122 297,122 297,122 296,122 296,122 296,121 296,121 297,121 297,121 297,121 298,121 298,121 299,121 299,121 299,121 299,122 298,122" fill="url(#pmetall0)" stroke="#bcc0bc" stroke-width="0.7" stroke-linejoin="round"/><polygon points="312,177 312,177 312,178 312,178 311,178 311,178 311,178 310,178 310,178 310,178 310,177 310,177 310,129 310,129 310,129 310,130 310,130 311,130 311,130 311,130 312,130 312,129 312,129 312,129" fill="url(#pmetall1)" stroke="#a9ada9" stroke-width="0.7" stroke-linejoin="round"/><polygon points="312,130 311,130 311,130 311,130 310,130 310,129 310,129 310,129 310,129 310,129 310,128 311,128 311,128 312,128 312,129 312,129 312,129 312,129 312,130" fill="url(#pmetall0)" stroke="#bcc0bc" stroke-width="0.7" stroke-linejoin="round"/><polygon points="285,177 285,177 285,178 285,178 285,178 284,178 284,178 284,178 283,178 283,178 283,177 283,177 283,129 283,129 283,129 283,130 284,130 284,130 284,130 285,130 285,130 285,129 285,129 285,129" fill="url(#pmetall1)" stroke="#a9ada9" stroke-width="0.7" stroke-linejoin="round"/><polygon points="285,130 285,130 284,130 284,130 283,130 283,129 283,129 283,129 283,129 283,129 284,128 284,128 284,128 285,128 285,129 285,129 285,129 285,129 285,130" fill="url(#pmetall0)" stroke="#bcc0bc" stroke-width="0.7" stroke-linejoin="round"/><polygon points="314,130 313,132 311,135 308,137 304,138 300,139 295,139 291,138 287,137 284,135 282,132 281,130 281,112 282,114 284,117 287,119 291,120 295,121 300,121 304,120 308,119 311,117 313,114 314,112" fill="url(#pmetall1)" stroke="#a9ada9" stroke-width="0.7" stroke-linejoin="round"/><polygon points="309,118 304,120 299,121 293,121 288,120 284,117 282,114 281,111 283,108 286,105 291,103 296,102 302,103 307,104 311,106 313,109 314,113 312,116 309,118" fill="url(#pmetall0)" stroke="#bcc0bc" stroke-width="0.7" stroke-linejoin="round"/><polygon points="314,112 313,114 311,117 308,119 304,120 300,121 295,121 291,120 287,119 284,117 282,114 281,112 281,111 282,114 284,116 287,118 291,120 295,121 300,121 304,120 308,118 311,116 313,114 314,111" fill="url(#pkokTom1)" stroke="#647f8e" stroke-width="0.7" stroke-linejoin="round"/><polygon points="309,118 304,120 299,121 293,120 288,119 284,117 282,114 281,110 283,107 286,104 291,102 296,102 302,102 307,103 311,106 313,109 314,112 312,115 309,118" fill="url(#pkokTom0)" stroke="#7995a7" stroke-width="0.7" stroke-linejoin="round"/><polygon points="241,207 242,206 243,204 243,202 243,199 242,197 240,194 239,192 237,191 235,190 233,189 231,190 223,195 225,194 227,195 228,196 230,197 232,199 234,202 235,204 235,207 235,209 234,211 233,212" fill="url(#psariq1)" stroke="#b1842f" stroke-width="0.7" stroke-linejoin="round"/><polygon points="235,207 235,204 233,201 231,198 229,196 227,195 225,194 223,195 221,197 221,199 221,202 223,205 225,208 227,210 229,212 231,212 233,211 235,210 235,207" fill="url(#psariq0)" stroke="#c7973c" stroke-width="0.7" stroke-linejoin="round"/><polygon points="225,217 226,215 226,214 227,211 226,209 225,206 224,204 222,202 220,200 218,199 216,199 215,200 206,204 208,204 210,204 212,205 214,207 215,209 217,211 218,214 218,216 218,218 217,220 216,221" fill="url(#psariq1)" stroke="#b1842f" stroke-width="0.7" stroke-linejoin="round"/><polygon points="218,217 218,214 217,211 215,208 213,206 210,204 208,204 206,205 205,206 204,209 205,212 206,215 208,218 210,220 213,221 215,222 217,221 218,219 218,217" fill="url(#psariq0)" stroke="#c7973c" stroke-width="0.7" stroke-linejoin="round"/><polygon points="33,61 33,61 33,61 32,61 32,62 32,62 32,62 32,62 32,61 32,61 32,61 32,61 32,52 32,52 32,52 32,52 32,52 32,52 32,52 32,52 32,52 33,52 33,52 33,52" fill="url(#ptana1)" stroke="#958a78" stroke-width="0.7" stroke-linejoin="round"/><polygon points="32,52 32,52 32,52 32,52 32,52 32,52 32,52 32,52 32,52 32,51 32,51 32,51 32,51 32,51 33,51 33,52 33,52 33,52 32,52" fill="url(#ptana0)" stroke="#a79c89" stroke-width="0.7" stroke-linejoin="round"/><polygon points="38,64 38,64 38,64 37,64 37,64 37,64 37,64 37,64 37,64 37,64 37,64 37,64 37,55 37,55 37,55 37,55 37,55 37,55 37,55 37,55 37,55 38,55 38,55 38,55" fill="url(#ptana1)" stroke="#958a78" stroke-width="0.7" stroke-linejoin="round"/><polygon points="37,55 37,55 37,55 37,55 37,55 37,55 37,55 37,54 37,54 37,54 37,54 37,54 37,54 37,54 38,54 38,54 38,55 38,55 37,55" fill="url(#ptana0)" stroke="#a79c89" stroke-width="0.7" stroke-linejoin="round"/><polygon points="43,67 43,67 43,67 42,67 42,67 42,67 42,67 42,67 42,67 42,67 42,67 42,67 42,57 42,57 42,58 42,58 42,58 42,58 42,58 42,58 42,58 43,58 43,57 43,57" fill="url(#ptana1)" stroke="#958a78" stroke-width="0.7" stroke-linejoin="round"/><polygon points="42,58 42,58 42,58 42,58 42,58 42,58 42,57 42,57 42,57 42,57 42,57 42,57 42,57 42,57 43,57 43,57 43,57 43,58 42,58" fill="url(#ptana0)" stroke="#a79c89" stroke-width="0.7" stroke-linejoin="round"/><polygon points="48,70 48,70 48,70 47,70 47,70 47,70 47,70 47,70 47,70 47,70 47,70 47,70 47,60 47,60 47,60 47,61 47,61 47,61 47,61 47,61 47,61 48,60 48,60 48,60" fill="url(#ptana1)" stroke="#958a78" stroke-width="0.7" stroke-linejoin="round"/><polygon points="47,60 47,61 47,61 47,61 47,61 47,60 47,60 47,60 47,60 47,60 47,60 47,60 47,60 47,60 48,60 48,60 48,60 48,60 47,60" fill="url(#ptana0)" stroke="#a79c89" stroke-width="0.7" stroke-linejoin="round"/><polygon points="53,73 53,73 53,73 52,73 52,73 52,73 52,73 52,73 52,73 52,73 52,73 52,73 52,63 52,63 52,63 52,63 52,63 52,63 52,63 52,63 52,63 53,63 53,63 53,63" fill="url(#ptana1)" stroke="#958a78" stroke-width="0.7" stroke-linejoin="round"/><polygon points="52,63 52,63 52,63 52,63 52,63 52,63 52,63 52,63 52,63 52,63 52,63 52,63 52,63 52,63 53,63 53,63 53,63 53,63 52,63" fill="url(#ptana0)" stroke="#a79c89" stroke-width="0.7" stroke-linejoin="round"/><polygon points="58,76 58,76 58,76 57,76 57,76 57,76 57,76 57,76 57,76 57,76 57,76 57,76 57,66 57,66 57,66 57,66 57,66 57,66 57,66 57,66 57,66 58,66 58,66 58,66" fill="url(#ptana1)" stroke="#958a78" stroke-width="0.7" stroke-linejoin="round"/><polygon points="57,66 57,66 57,66 57,66 57,66 57,66 57,66 57,66 57,66 57,66 57,66 57,66 57,66 57,66 58,66 58,66 58,66 58,66 57,66" fill="url(#ptana0)" stroke="#a79c89" stroke-width="0.7" stroke-linejoin="round"/><polygon points="63,79 63,79 63,79 62,79 62,79 62,79 62,79 62,79 62,79 62,79 62,79 62,79 62,69 62,69 62,69 62,69 62,69 62,69 62,69 62,69 62,69 63,69 63,69 63,69" fill="url(#ptana1)" stroke="#958a78" stroke-width="0.7" stroke-linejoin="round"/><polygon points="62,69 62,69 62,69 62,69 62,69 62,69 62,69 62,69 62,69 62,69 62,69 62,69 62,69 62,69 63,69 63,69 63,69 63,69 62,69" fill="url(#ptana0)" stroke="#a79c89" stroke-width="0.7" stroke-linejoin="round"/><polygon points="68,81 68,82 68,82 67,82 67,82 67,82 67,82 67,82 67,82 67,82 67,82 67,81 67,72 67,72 67,72 67,72 67,72 67,72 67,72 67,72 67,72 68,72 68,72 68,72" fill="url(#ptana1)" stroke="#958a78" stroke-width="0.7" stroke-linejoin="round"/><polygon points="67,72 67,72 67,72 67,72 67,72 67,72 67,72 67,72 67,72 67,72 67,72 67,72 67,72 67,72 68,72 68,72 68,72 68,72 67,72" fill="url(#ptana0)" stroke="#a79c89" stroke-width="0.7" stroke-linejoin="round"/><polygon points="73,84 73,84 73,85 72,85 72,85 72,85 72,85 72,85 72,85 72,85 72,84 72,84 72,75 72,75 72,75 72,75 72,75 72,75 72,75 72,75 72,75 73,75 73,75 73,75" fill="url(#ptana1)" stroke="#958a78" stroke-width="0.7" stroke-linejoin="round"/><polygon points="72,75 72,75 72,75 72,75 72,75 72,75 72,75 72,75 72,75 72,75 72,74 72,74 72,74 72,75 73,75 73,75 73,75 73,75 72,75" fill="url(#ptana0)" stroke="#a79c89" stroke-width="0.7" stroke-linejoin="round"/><polygon points="78,87 78,87 78,87 77,87 77,88 77,88 77,88 77,88 77,87 77,87 77,87 77,87 77,78 77,78 77,78 77,78 77,78 77,78 77,78 77,78 77,78 78,78 78,78 78,78" fill="url(#ptana1)" stroke="#958a78" stroke-width="0.7" stroke-linejoin="round"/><polygon points="77,78 77,78 77,78 77,78 77,78 77,78 77,78 77,78 77,78 77,77 77,77 77,77 77,77 77,77 78,77 78,78 78,78 78,78 77,78" fill="url(#ptana0)" stroke="#a79c89" stroke-width="0.7" stroke-linejoin="round"/><polygon points="83,90 83,90 83,90 82,90 82,90 82,90 82,90 82,90 82,90 82,90 82,90 82,90 82,81 82,81 82,81 82,81 82,81 82,81 82,81 82,81 82,81 83,81 83,81 83,81" fill="url(#ptana1)" stroke="#958a78" stroke-width="0.7" stroke-linejoin="round"/><polygon points="83,81 82,81 82,81 82,81 82,81 82,81 82,81 82,80 82,80 82,80 82,80 82,80 82,80 82,80 83,80 83,80 83,81 83,81 83,81" fill="url(#ptana0)" stroke="#a79c89" stroke-width="0.7" stroke-linejoin="round"/><polygon points="88,93 88,93 88,93 87,93 87,93 87,93 87,93 87,93 87,93 87,93 87,93 87,93 87,83 87,83 87,84 87,84 87,84 87,84 87,84 87,84 87,84 88,84 88,83 88,83" fill="url(#ptana1)" stroke="#958a78" stroke-width="0.7" stroke-linejoin="round"/><polygon points="88,84 87,84 87,84 87,84 87,84 87,84 87,83 87,83 87,83 87,83 87,83 87,83 87,83 87,83 88,83 88,83 88,83 88,84 88,84" fill="url(#ptana0)" stroke="#a79c89" stroke-width="0.7" stroke-linejoin="round"/><polygon points="93,96 93,96 93,96 92,96 92,96 92,96 92,96 92,96 92,96 92,96 92,96 92,96 92,86 92,86 92,86 92,87 92,87 92,87 92,87 92,87 92,87 93,86 93,86 93,86" fill="url(#ptana1)" stroke="#958a78" stroke-width="0.7" stroke-linejoin="round"/><polygon points="93,86 92,87 92,87 92,87 92,87 92,86 92,86 92,86 92,86 92,86 92,86 92,86 92,86 92,86 93,86 93,86 93,86 93,86 93,86" fill="url(#ptana0)" stroke="#a79c89" stroke-width="0.7" stroke-linejoin="round"/><polygon points="31,52 93,88 93,87 31,52" fill="url(#ptana1)" stroke="#958a78" stroke-width="0.7" stroke-linejoin="round"/><polygon points="93,88 93,87 93,87 93,87" fill="url(#ptana2)" stroke="#7a7060" stroke-width="0.7" stroke-linejoin="round"/><polygon points="32,51 93,87 93,87 31,52" fill="url(#ptana0)" stroke="#a79c89" stroke-width="0.7" stroke-linejoin="round"/><polygon points="276,211 276,211 276,212 276,212 276,212 275,212 275,212 275,212 275,212 274,212 274,211 274,211 274,173 274,173 274,173 275,173 275,173 275,173 275,173 276,173 276,173 276,173 276,173 276,173" fill="url(#pmetall1)" stroke="#a9ada9" stroke-width="0.7" stroke-linejoin="round"/><polygon points="276,173 276,173 275,173 275,173 275,173 274,173 274,173 274,173 274,172 275,172 275,172 275,172 276,172 276,172 276,172 276,173 276,173 276,173 276,173" fill="url(#pmetall0)" stroke="#bcc0bc" stroke-width="0.7" stroke-linejoin="round"/><polygon points="273,176 277,178 277,176 273,173" fill="url(#poq1)" stroke="#dbd8d1" stroke-width="0.7" stroke-linejoin="round"/><polygon points="277,178 279,177 279,174 277,176" fill="url(#poq2)" stroke="#c8c4bb" stroke-width="0.7" stroke-linejoin="round"/><polygon points="275,172 279,174 277,176 273,173" fill="url(#poq0)" stroke="#e8e6e2" stroke-width="0.7" stroke-linejoin="round"/><polygon points="277,177 280,180 282,179 279,176" fill="url(#pqoraMetall0)" stroke="#6b726d" stroke-width="0.7" stroke-linejoin="round"/><polygon points="267,167 277,169 268,174 259,172" fill="url(#pkok0)" stroke="#4c6b80" stroke-width="0.7" stroke-linejoin="round"/></svg>