<svg xmlns="http://www.w3.org/2000/svg" viewBox="0 0 320 240" width="320" height="240" role="img" aria-label="Issiqxona"><defs><linearGradient id="poyna1" x1="0" y1="0" x2="0" y2="1"><stop offset="0" stop-color="#b0c5ce"/><stop offset="1" stop-color="#95aab3"/></linearGradient><linearGradient id="poyna2" x1="0" y1="0" x2="0" y2="1"><stop offset="0" stop-color="#98aeb8"/><stop offset="1" stop-color="#7d939d"/></linearGradient><linearGradient id="pbeton1" x1="0" y1="0" x2="0" y2="1"><stop offset="0" stop-color="#d8d5cd"/><stop offset="1" stop-color="#bdbab2"/></linearGradient><linearGradient id="pbeton2" x1="0" y1="0" x2="0" y2="1"><stop offset="0" stop-color="#bebbb3"/><stop offset="1" stop-color="#a3a098"/></linearGradient><linearGradient id="pasfalt1" x1="0" y1="0" x2="0" y2="1"><stop offset="0" stop-color="#c1beb7"/><stop offset="1" stop-color="#a6a39c"/></linearGradient><linearGradient id="pasfalt2" x1="0" y1="0" x2="0" y2="1"><stop offset="0" stop-color="#a8a59e"/><stop offset="1" stop-color="#8d8a83"/></linearGradient><linearGradient id="pasfalt0" x1="0" y1="0" x2="0" y2="1"><stop offset="0" stop-color="#ccc9c2"/><stop offset="1" stop-color="#c4c1ba"/></linearGradient><linearGradient id="pmetall1" x1="0" y1="0" x2="0" y2="1"><stop offset="0" stop-color="#c7cbc7"/><stop offset="1" stop-color="#acb0ac"/></linearGradient><linearGradient id="pmetall0" x1="0" y1="0" x2="0" y2="1"><stop offset="0" stop-color="#d4d8d4"/><stop offset="1" stop-color="#ccd0cc"/></linearGradient><linearGradient id="poq1" x1="0" y1="0" x2="0" y2="1"><stop offset="0" stop-color="#f9f6ef"/><stop offset="1" stop-color="#dedbd4"/></linearGradient><linearGradient id="poq2" x1="0" y1="0" x2="0" y2="1"><stop offset="0" stop-color="#e6e2d9"/><stop offset="1" stop-color="#cbc7be"/></linearGradient><linearGradient id="poq0" x1="0" y1="0" x2="0" y2="1"><stop offset="0" stop-color="#fffefa"/><stop offset="1" stop-color="#f8f6f2"/></linearGradient><linearGradient id="pqoraMetall0" x1="0" y1="0" x2="0" y2="1"><stop offset="0" stop-color="#838a85"/><stop offset="1" stop-color="#7b827d"/></linearGradient><linearGradient id="pkok0" x1="0" y1="0" x2="0" y2="1"><stop offset="0" stop-color="#648398"/><stop offset="1" stop-color="#5c7b90"/></linearGradient><filter id="soya" x="-30%" y="-30%" width="160%" height="180%"><feGaussianBlur stdDeviation="7.0"/></filter></defs><rect width="320" height="240" fill="#FFFFFF"/><g filter="url(#soya)" opacity="0.17"></g><polygon points="105,48 276,147 275,155 104,56" fill="url(#poyna1)" fill-opacity="0.88" stroke="#92a7b0" stroke-width="0.7" stroke-linejoin="round"/><polygon points="108,40 279,139 276,147 105,48" fill="url(#poyna1)" fill-opacity="0.88" stroke="#92a7b0" stroke-width="0.7" stroke-linejoin="round"/><polygon points="113,33 284,131 279,139 108,40" fill="url(#poyna1)" fill-opacity="0.88" stroke="#92a7b0" stroke-width="0.7" stroke-linejoin="round"/><polygon points="119,27 290,125 284,131 113,33" fill="url(#poyna1)" fill-opacity="0.88" stroke="#92a7b0" stroke-width="0.7" stroke-linejoin="round"/><polygon points="126,23 297,122 290,125 119,27" fill="url(#poyna2)" fill-opacity="0.88" stroke="#7a909a" stroke-width="0.7" stroke-linejoin="round"/><polygon points="132,22 303,121 297,122 126,23" fill="url(#poyna2)" fill-opacity="0.88" stroke="#7a909a" stroke-width="0.7" stroke-linejoin="round"/><polygon points="137,24 308,122 303,121 132,22" fill="url(#poyna2)" fill-opacity="0.88" stroke="#7a909a" stroke-width="0.7" stroke-linejoin="round"/><polygon points="140,28 311,127 308,122 137,24" fill="url(#poyna2)" fill-opacity="0.88" stroke="#7a909a" stroke-width="0.7" stroke-linejoin="round"/><polygon points="141,35 312,133 311,127 140,28" fill="url(#poyna2)" fill-opacity="0.88" stroke="#7a909a" stroke-width="0.7" stroke-linejoin="round"/><polygon points="312,139 312,133 311,127 308,122 303,121 297,122 290,125 284,131 279,139 276,147 275,155 275,161" fill="url(#poyna2)" fill-opacity="0.9" stroke="#7a909a" stroke-width="0.7" stroke-linejoin="round"/><polyline points="154,42 153,36 150,31 145,29 139,30 132,34 126,40 121,48 118,56 117,64" fill="none" stroke="#8C9A93" stroke-width="0.6" opacity="0.28"/><polyline points="167,49 166,43 163,39 158,37 152,38 145,42 139,48 134,55 131,63 130,71" fill="none" stroke="#8C9A93" stroke-width="0.6" opacity="0.28"/><polyline points="180,57 179,50 176,46 171,44 164,45 158,49 152,55 147,63 144,71 142,79" fill="none" stroke="#8C9A93" stroke-width="0.6" opacity="0.28"/><polyline points="193,64 192,58 188,53 183,52 177,53 171,56 165,62 160,70 156,78 155,86" fill="none" stroke="#8C9A93" stroke-width="0.6" opacity="0.28"/><polyline points="206,72 205,65 201,61 196,59 190,60 184,64 178,70 173,77 169,86 168,93" fill="none" stroke="#8C9A93" stroke-width="0.6" opacity="0.28"/><polyline points="219,79 217,73 214,68 209,66 203,68 197,71 190,77 185,85 182,93 181,101" fill="none" stroke="#8C9A93" stroke-width="0.6" opacity="0.28"/><polyline points="231,87 230,80 227,76 222,74 216,75 209,79 203,85 198,92 195,100 194,108" fill="none" stroke="#8C9A93" stroke-width="0.6" opacity="0.28"/><polyline points="244,94 243,88 240,83 235,81 229,82 222,86 216,92 211,100 208,108 207,116" fill="none" stroke="#8C9A93" stroke-width="0.6" opacity="0.28"/><polyline points="257,102 256,95 253,91 248,89 242,90 235,94 229,100 224,107 221,115 220,123" fill="none" stroke="#8C9A93" stroke-width="0.6" opacity="0.28"/><polyline points="270,109 269,102 266,98 261,96 255,97 248,101 242,107 237,115 234,123 233,131" fill="none" stroke="#8C9A93" stroke-width="0.6" opacity="0.28"/><polyline points="283,116 282,110 279,105 274,104 267,105 261,108 255,115 250,122 247,130 245,138" fill="none" stroke="#8C9A93" stroke-width="0.6" opacity="0.28"/><polyline points="296,124 295,117 291,113 286,111 280,112 274,116 268,122 263,130 260,138 258,146" fill="none" stroke="#8C9A93" stroke-width="0.6" opacity="0.28"/><polyline points="309,131 308,125 304,120 299,119 293,120 287,123 281,129 276,137 272,145 271,153" fill="none" stroke="#8C9A93" stroke-width="0.6" opacity="0.28"/><polygon points="102,62 275,162 275,156 102,56" fill="url(#pbeton1)" stroke="#bab7af" stroke-width="0.7" stroke-linejoin="round"/><polygon points="275,162 314,139 314,133 275,156" fill="url(#pbeton2)" stroke="#a09d95" stroke-width="0.7" stroke-linejoin="round"/><polygon points="62,73 233,172 232,180 61,81" fill="url(#poyna1)" fill-opacity="0.88" stroke="#92a7b0" stroke-width="0.7" stroke-linejoin="round"/><polygon points="65,65 236,164 233,172 62,73" fill="url(#poyna1)" fill-opacity="0.88" stroke="#92a7b0" stroke-width="0.7" stroke-linejoin="round"/><polygon points="70,57 241,156 236,164 65,65" fill="url(#poyna1)" fill-opacity="0.88" stroke="#92a7b0" stroke-width="0.7" stroke-linejoin="round"/><polygon points="77,51 248,150 241,156 70,57" fill="url(#poyna1)" fill-opacity="0.88" stroke="#92a7b0" stroke-width="0.7" stroke-linejoin="round"/><polygon points="83,48 254,146 248,150 77,51" fill="url(#poyna2)" fill-opacity="0.88" stroke="#7a909a" stroke-width="0.7" stroke-linejoin="round"/><polygon points="89,47 260,145 254,146 83,48" fill="url(#poyna2)" fill-opacity="0.88" stroke="#7a909a" stroke-width="0.7" stroke-linejoin="round"/><polygon points="94,48 265,147 260,145 89,47" fill="url(#poyna2)" fill-opacity="0.88" stroke="#7a909a" stroke-width="0.7" stroke-linejoin="round"/><polygon points="97,53 268,151 265,147 94,48" fill="url(#poyna2)" fill-opacity="0.88" stroke="#7a909a" stroke-width="0.7" stroke-linejoin="round"/><polygon points="99,59 269,158 268,151 97,53" fill="url(#poyna2)" fill-opacity="0.88" stroke="#7a909a" stroke-width="0.7" stroke-linejoin="round"/><polygon points="269,164 269,158 268,151 265,147 260,145 254,146 248,150 241,156 236,164 233,172 232,180 232,186" fill="url(#poyna2)" fill-opacity="0.9" stroke="#7a909a" stroke-width="0.7" stroke-linejoin="round"/><polyline points="111,67 110,60 107,56 102,54 96,55 89,59 83,65 78,72 75,81 74,88" fill="none" stroke="#8C9A93" stroke-width="0.6" opacity="0.28"/><polyline points="124,74 123,68 120,63 115,61 109,62 102,66 96,72 91,80 88,88 87,96" fill="none" stroke="#8C9A93" stroke-width="0.6" opacity="0.28"/><polyline points="137,82 136,75 133,71 128,69 122,70 115,74 109,80 104,87 101,95 100,103" fill="none" stroke="#8C9A93" stroke-width="0.6" opacity="0.28"/><polyline points="150,89 149,83 146,78 141,76 135,77 128,81 122,87 117,95 114,103 113,111" fill="none" stroke="#8C9A93" stroke-width="0.6" opacity="0.28"/><polyline points="163,96 162,90 159,86 154,84 147,85 141,89 135,95 130,102 127,110 125,118" fill="none" stroke="#8C9A93" stroke-width="0.6" opacity="0.28"/><polyline points="176,104 175,97 171,93 166,91 160,92 154,96 148,102 143,110 139,118 138,126" fill="none" stroke="#8C9A93" stroke-width="0.6" opacity="0.28"/><polyline points="189,111 188,105 184,100 179,99 173,100 167,103 161,109 156,117 152,125 151,133" fill="none" stroke="#8C9A93" stroke-width="0.6" opacity="0.28"/><polyline points="202,119 200,112 197,108 192,106 186,107 180,111 173,117 168,124 165,133 164,140" fill="none" stroke="#8C9A93" stroke-width="0.6" opacity="0.28"/><polyline points="214,126 213,120 210,115 205,113 199,115 192,118 186,124 181,132 178,140 177,148" fill="none" stroke="#8C9A93" stroke-width="0.6" opacity="0.28"/><polyline points="227,134 226,127 223,123 218,121 212,122 205,126 199,132 194,139 191,147 190,155" fill="none" stroke="#8C9A93" stroke-width="0.6" opacity="0.28"/><polyline points="240,141 239,135 236,130 231,128 225,129 218,133 212,139 207,147 204,155 203,163" fill="none" stroke="#8C9A93" stroke-width="0.6" opacity="0.28"/><polyline points="253,149 252,142 249,138 244,136 238,137 231,141 225,147 220,154 217,162 216,170" fill="none" stroke="#8C9A93" stroke-width="0.6" opacity="0.28"/><polyline points="266,156 265,149 262,145 257,143 251,144 244,148 238,154 233,162 230,170 229,178" fill="none" stroke="#8C9A93" stroke-width="0.6" opacity="0.28"/><polygon points="59,87 232,187 232,181 59,81" fill="url(#pbeton1)" stroke="#bab7af" stroke-width="0.7" stroke-linejoin="round"/><polygon points="232,187 271,164 271,158 232,181" fill="url(#pbeton2)" stroke="#a09d95" stroke-width="0.7" stroke-linejoin="round"/><polygon points="19,98 190,197 189,204 18,106" fill="url(#poyna1)" fill-opacity="0.88" stroke="#92a7b0" stroke-width="0.7" stroke-linejoin="round"/><polygon points="23,90 194,188 190,197 19,98" fill="url(#poyna1)" fill-opacity="0.88" stroke="#92a7b0" stroke-width="0.7" stroke-linejoin="round"/><polygon points="28,82 199,181 194,188 23,90" fill="url(#poyna1)" fill-opacity="0.88" stroke="#92a7b0" stroke-width="0.7" stroke-linejoin="round"/><polygon points="34,76 205,175 199,181 28,82" fill="url(#poyna1)" fill-opacity="0.88" stroke="#92a7b0" stroke-width="0.7" stroke-linejoin="round"/><polygon points="40,72 211,171 205,175 34,76" fill="url(#poyna2)" fill-opacity="0.88" stroke="#7a909a" stroke-width="0.7" stroke-linejoin="round"/><polygon points="46,71 217,170 211,171 40,72" fill="url(#poyna2)" fill-opacity="0.88" stroke="#7a909a" stroke-width="0.7" stroke-linejoin="round"/><polygon points="51,73 222,172 217,170 46,71" fill="url(#poyna2)" fill-opacity="0.88" stroke="#7a909a" stroke-width="0.7" stroke-linejoin="round"/><polygon points="55,77 226,176 222,172 51,73" fill="url(#poyna2)" fill-opacity="0.88" stroke="#7a909a" stroke-width="0.7" stroke-linejoin="round"/><polygon points="56,84 227,183 226,176 55,77" fill="url(#poyna2)" fill-opacity="0.88" stroke="#7a909a" stroke-width="0.7" stroke-linejoin="round"/><polygon points="227,189 227,183 226,176 222,172 217,170 211,171 205,175 199,181 194,188 190,197 189,204 189,210" fill="url(#poyna2)" fill-opacity="0.9" stroke="#7a909a" stroke-width="0.7" stroke-linejoin="round"/><polyline points="69,91 68,85 64,80 59,79 53,80 47,83 41,89 36,97 32,105 31,113" fill="none" stroke="#8C9A93" stroke-width="0.6" opacity="0.28"/><polyline points="82,99 80,92 77,88 72,86 66,87 60,91 53,97 48,104 45,113 44,120" fill="none" stroke="#8C9A93" stroke-width="0.6" opacity="0.28"/><polyline points="94,106 93,100 90,95 85,94 79,95 72,98 66,104 61,112 58,120 57,128" fill="none" stroke="#8C9A93" stroke-width="0.6" opacity="0.28"/><polyline points="107,114 106,107 103,103 98,101 92,102 85,106 79,112 74,119 71,128 70,135" fill="none" stroke="#8C9A93" stroke-width="0.6" opacity="0.28"/><polyline points="120,121 119,115 116,110 111,108 105,109 98,113 92,119 87,127 84,135 83,143" fill="none" stroke="#8C9A93" stroke-width="0.6" opacity="0.28"/><polyline points="133,129 132,122 129,118 124,116 118,117 111,121 105,127 100,134 97,142 96,150" fill="none" stroke="#8C9A93" stroke-width="0.6" opacity="0.28"/><polyline points="146,136 145,130 142,125 137,123 130,124 124,128 118,134 113,142 110,150 108,158" fill="none" stroke="#8C9A93" stroke-width="0.6" opacity="0.28"/><polyline points="159,143 158,137 154,133 149,131 143,132 137,136 131,142 126,149 122,157 121,165" fill="none" stroke="#8C9A93" stroke-width="0.6" opacity="0.28"/><polyline points="172,151 171,144 167,140 162,138 156,139 150,143 144,149 139,157 135,165 134,173" fill="none" stroke="#8C9A93" stroke-width="0.6" opacity="0.28"/><polyline points="185,158 183,152 180,147 175,146 169,147 163,150 156,156 152,164 148,172 147,180" fill="none" stroke="#8C9A93" stroke-width="0.6" opacity="0.28"/><polyline points="197,166 196,159 193,155 188,153 182,154 175,158 169,164 164,171 161,180 160,187" fill="none" stroke="#8C9A93" stroke-width="0.6" opacity="0.28"/><polyline points="210,173 209,167 206,162 201,160 195,162 188,165 182,171 177,179 174,187 173,195" fill="none" stroke="#8C9A93" stroke-width="0.6" opacity="0.28"/><polyline points="223,181 222,174 219,170 214,168 208,169 201,173 195,179 190,186 187,194 186,202" fill="none" stroke="#8C9A93" stroke-width="0.6" opacity="0.28"/><polygon points="17,112 189,211 189,205 17,106" fill="url(#pbeton1)" stroke="#bab7af" stroke-width="0.7" stroke-linejoin="round"/><polygon points="189,211 229,189 229,183 189,205" fill="url(#pbeton2)" stroke="#a09d95" stroke-width="0.7" stroke-linejoin="round"/><polygon points="6,111 11,114 11,113 6,110" fill="url(#pasfalt1)" stroke="#a3a099" stroke-width="0.7" stroke-linejoin="round"/><polygon points="11,114 140,40 140,39 11,113" fill="url(#pasfalt2)" stroke="#8a8780" stroke-width="0.7" stroke-linejoin="round"/><polygon points="134,36 140,39 11,113 6,110" fill="url(#pasfalt0)" stroke="#b4b1aa" stroke-width="0.7" stroke-linejoin="round"/><polygon points="204,218 204,218 204,218 203,218 203,218 203,218 203,218 202,218 202,218 202,218 202,218 202,218 202,181 202,181 202,181 202,181 202,182 203,182 203,182 203,182 203,181 204,181 204,181 204,181" fill="url(#pmetall1)" stroke="#a9ada9" stroke-width="0.7" stroke-linejoin="round"/><polygon points="204,181 203,182 203,182 202,182 202,182 202,181 202,181 202,181 202,181 202,181 202,180 203,180 203,180 203,180 204,181 204,181 204,181 204,181 204,181" fill="url(#pmetall0)" stroke="#bcc0bc" stroke-width="0.7" stroke-linejoin="round"/><polygon points="200,184 204,187 204,184 200,181" fill="url(#poq1)" stroke="#dbd8d1" stroke-width="0.7" stroke-linejoin="round"/><polygon points="204,187 207,185 207,183 204,184" fill="url(#poq2)" stroke="#c8c4bb" stroke-width="0.7" stroke-linejoin="round"/><polygon points="202,180 207,183 204,184 200,181" fill="url(#poq0)" stroke="#e8e6e2" stroke-width="0.7" stroke-linejoin="round"/><polygon points="204,186 208,189 210,187 207,184" fill="url(#pqoraMetall0)" stroke="#6b726d" stroke-width="0.7" stroke-linejoin="round"/><polygon points="195,175 204,177 195,183 185,181" fill="url(#pkok0)" stroke="#4c6b80" stroke-width="0.7" stroke-linejoin="round"/></svg>