<svg xmlns="http://www.w3.org/2000/svg" viewBox="0 0 640 360" width="640" height="360" role="img" aria-label="Ko'p qavatli uydagi xonadon"><defs><linearGradient id="poq1" x1="0" y1="0" x2="0" y2="1"><stop offset="0" stop-color="#f9f6ef"/><stop offset="1" stop-color="#dedbd4"/></linearGradient><linearGradient id="poq2" x1="0" y1="0" x2="0" y2="1"><stop offset="0" stop-color="#e6e2d9"/><stop offset="1" stop-color="#cbc7be"/></linearGradient><linearGradient id="pyer0" x1="0" y1="0" x2="0" y2="1"><stop offset="0" stop-color="#f3efe5"/><stop offset="1" stop-color="#ebe7dd"/></linearGradient><linearGradient id="poq0" x1="0" y1="0" x2="0" y2="1"><stop offset="0" stop-color="#fffefa"/><stop offset="1" stop-color="#f8f6f2"/></linearGradient><linearGradient id="ptana1" x1="0" y1="0" x2="0" y2="1"><stop offset="0" stop-color="#b3a896"/><stop offset="1" stop-color="#988d7b"/></linearGradient><linearGradient id="ptana2" x1="0" y1="0" x2="0" y2="1"><stop offset="0" stop-color="#988e7e"/><stop offset="1" stop-color="#7d7363"/></linearGradient><linearGradient id="ptana0" x1="0" y1="0" x2="0" y2="1"><stop offset="0" stop-color="#bfb4a1"/><stop offset="1" stop-color="#b7ac99"/></linearGradient><linearGradient id="pbarg2" x1="0" y1="0" x2="0" y2="1"><stop offset="0" stop-color="#606e56"/><stop offset="1" stop-color="#45533b"/></linearGradient><linearGradient id="pyaproq1" x1="0" y1="0" x2="0" y2="1"><stop offset="0" stop-color="#6a795e"/><stop offset="1" stop-color="#4f5e43"/></linearGradient><linearGradient id="pasfalt0" x1="0" y1="0" x2="0" y2="1"><stop offset="0" stop-color="#ccc9c2"/><stop offset="1" stop-color="#c4c1ba"/></linearGradient><linearGradient id="ppanel1" x1="0" y1="0" x2="0" y2="1"><stop offset="0" stop-color="#e2dfd6"/><stop offset="1" stop-color="#c7c4bb"/></linearGradient><linearGradient id="ppanel2" x1="0" y1="0" x2="0" y2="1"><stop offset="0" stop-color="#c8c5bb"/><stop offset="1" stop-color="#adaaa0"/></linearGradient><linearGradient id="ppanel0" x1="0" y1="0" x2="0" y2="1"><stop offset="0" stop-color="#edeae2"/><stop offset="1" stop-color="#e5e2da"/></linearGradient><linearGradient id="pbeton1" x1="0" y1="0" x2="0" y2="1"><stop offset="0" stop-color="#d8d5cd"/><stop offset="1" stop-color="#bdbab2"/></linearGradient><linearGradient id="pbeton2" x1="0" y1="0" x2="0" y2="1"><stop offset="0" stop-color="#bebbb3"/><stop offset="1" stop-color="#a3a098"/></linearGradient><linearGradient id="pruberoid0" x1="0" y1="0" x2="0" y2="1"><stop offset="0" stop-color="#aeaca5"/><stop offset="1" stop-color="#a6a49d"/></linearGradient><linearGradient id="pbeton0" x1="0" y1="0" x2="0" y2="1"><stop offset="0" stop-color="#e4e1d9"/><stop offset="1" stop-color="#dcd9d1"/></linearGradient><linearGradient id="poyna1" x1="0" y1="0" x2="0" y2="1"><stop offset="0" stop-color="#b0c5ce"/><stop offset="1" stop-color="#95aab3"/></linearGradient><linearGradient id="poyna2" x1="0" y1="0" x2="0" y2="1"><stop offset="0" stop-color="#98aeb8"/><stop offset="1" stop-color="#7d939d"/></linearGradient><linearGradient id="ptunOyna1" x1="0" y1="0" x2="0" y2="1"><stop offset="0" stop-color="#6b7e87"/><stop offset="1" stop-color="#50636c"/></linearGradient><linearGradient id="pgisht1" x1="0" y1="0" x2="0" y2="1"><stop offset="0" stop-color="#d5b499"/><stop offset="1" stop-color="#ba997e"/></linearGradient><linearGradient id="ptsokol1" x1="0" y1="0" x2="0" y2="1"><stop offset="0" stop-color="#b1aa9e"/><stop offset="1" stop-color="#968f83"/></linearGradient><linearGradient id="ptsokol2" x1="0" y1="0" x2="0" y2="1"><stop offset="0" stop-color="#979186"/><stop offset="1" stop-color="#7c766b"/></linearGradient><linearGradient id="pmetall1" x1="0" y1="0" x2="0" y2="1"><stop offset="0" stop-color="#c7cbc7"/><stop offset="1" stop-color="#acb0ac"/></linearGradient><linearGradient id="pmetall0" x1="0" y1="0" x2="0" y2="1"><stop offset="0" stop-color="#d4d8d4"/><stop offset="1" stop-color="#ccd0cc"/></linearGradient><filter id="soya" x="-30%" y="-30%" width="160%" height="180%"><feGaussianBlur stdDeviation="14.1"/></filter></defs><rect width="640" height="360" fill="#FFFFFF"/><g filter="url(#soya)" opacity="0.17"><polygon points="272,106 528,254 368,346 112,199" fill="#3C3A33" stroke="none" stroke-width="0" stroke-linejoin="round"/></g><polygon points="112,194 368,342 368,338 112,191" fill="url(#poq1)" stroke="#dbd8d1" stroke-width="0.6" stroke-linejoin="round"/><polygon points="368,342 528,250 528,246 368,338" fill="url(#poq2)" stroke="#c8c4bb" stroke-width="0.6" stroke-linejoin="round"/><polygon points="272,98 528,246 368,338 112,191" fill="url(#pyer0)" stroke="#dbd7cd" stroke-width="0.6" stroke-linejoin="round"/><polyline points="272,105 516,246 368,331 124,190 272,105" fill="none" stroke="#8F897C" stroke-width="0.7" opacity="0.3" stroke-dasharray="4 4"/><polygon points="271,124 272,125 272,107 271,106" fill="url(#poq1)" stroke="#dbd8d1" stroke-width="0.7" stroke-linejoin="round"/><polygon points="272,125 274,124 274,106 272,107" fill="url(#poq2)" stroke="#c8c4bb" stroke-width="0.7" stroke-linejoin="round"/><polygon points="272,105 274,106 272,107 271,106" fill="url(#poq0)" stroke="#e8e6e2" stroke-width="0.7" stroke-linejoin="round"/><polygon points="271,106 272,107 272,97 271,96" fill="url(#ptana1)" stroke="#958a78" stroke-width="0.7" stroke-linejoin="round"/><polygon points="272,107 274,106 274,96 272,97" fill="url(#ptana2)" stroke="#7a7060" stroke-width="0.7" stroke-linejoin="round"/><polygon points="272,95 274,96 272,97 271,96" fill="url(#ptana0)" stroke="#a79c89" stroke-width="0.7" stroke-linejoin="round"/><polygon points="275,96 278,86 280,76 281,67 282,58 282,50 281,42 279,35 277,28 272,22 272,22 267,33 265,43 264,52 263,61 263,69 263,77 264,85 266,93 269,99" fill="url(#pbarg2)" stroke="#425038" stroke-width="0.7" stroke-linejoin="round"/><polygon points="269,96 266,86 264,76 263,67 263,58 263,50 264,42 265,35 267,28 272,22 272,22 277,33 279,43 281,52 282,61 282,69 281,77 280,85 278,93 275,99" fill="url(#pyaproq1)" stroke="#4c5b40" stroke-width="0.7" stroke-linejoin="round"/><polygon points="171,179 394,308 368,323 144,194" fill="url(#pasfalt0)" stroke="#b4b1aa" stroke-width="0.5" stroke-linejoin="round"/><polygon points="197,189 362,284 362,161 197,66" fill="url(#ppanel1)" stroke="#c4c1b8" stroke-width="0.7" stroke-linejoin="round"/><polygon points="362,284 443,238 443,115 362,161" fill="url(#ppanel2)" stroke="#aaa79d" stroke-width="0.7" stroke-linejoin="round"/><polygon points="278,20 443,115 362,161 197,66" fill="url(#ppanel0)" stroke="#d5d2ca" stroke-width="0.7" stroke-linejoin="round"/><polygon points="194,66 362,163 362,162 194,65" fill="url(#pbeton1)" stroke="#bab7af" stroke-width="0.7" stroke-linejoin="round"/><polygon points="362,163 446,115 446,113 362,162" fill="url(#pbeton2)" stroke="#a09d95" stroke-width="0.7" stroke-linejoin="round"/><polygon points="276,19 440,114 440,109 276,14" fill="url(#ppanel1)" stroke="#c4c1b8" stroke-width="0.7" stroke-linejoin="round"/><polygon points="200,66 280,19 280,14 200,61" fill="url(#ppanel2)" stroke="#aaa79d" stroke-width="0.7" stroke-linejoin="round"/><polygon points="278,21 438,113 362,157 202,65" fill="url(#pruberoid0)" stroke="#96948d" stroke-width="0.7" stroke-linejoin="round"/><polygon points="197,65 362,160 362,154 197,59" fill="url(#ppanel1)" stroke="#c4c1b8" stroke-width="0.7" stroke-linejoin="round"/><polygon points="362,160 364,158 364,153 362,154" fill="url(#ppanel2)" stroke="#aaa79d" stroke-width="0.7" stroke-linejoin="round"/><polygon points="200,58 364,153 362,154 197,59" fill="url(#pbeton0)" stroke="#ccc9c1" stroke-width="0.7" stroke-linejoin="round"/><polygon points="362,157 364,158 364,153 362,152" fill="url(#ppanel1)" stroke="#c4c1b8" stroke-width="0.7" stroke-linejoin="round"/><polygon points="364,158 443,113 443,108 364,153" fill="url(#ppanel2)" stroke="#aaa79d" stroke-width="0.7" stroke-linejoin="round"/><polygon points="440,106 443,108 364,153 362,152" fill="url(#pbeton0)" stroke="#ccc9c1" stroke-width="0.7" stroke-linejoin="round"/><polyline points="197,165 362,260" fill="none" stroke="#6F6A60" stroke-width="0.5" opacity="0.26"/><polyline points="197,140 362,235" fill="none" stroke="#6F6A60" stroke-width="0.5" opacity="0.26"/><polyline points="197,115 362,210" fill="none" stroke="#6F6A60" stroke-width="0.5" opacity="0.26"/><polyline points="197,91 362,186" fill="none" stroke="#6F6A60" stroke-width="0.5" opacity="0.26"/><polyline points="222,204 222,81" fill="none" stroke="#6F6A60" stroke-width="0.5" opacity="0.2"/><polyline points="247,218 247,95" fill="none" stroke="#6F6A60" stroke-width="0.5" opacity="0.2"/><polyline points="272,232 272,109" fill="none" stroke="#6F6A60" stroke-width="0.5" opacity="0.2"/><polyline points="297,247 297,124" fill="none" stroke="#6F6A60" stroke-width="0.5" opacity="0.2"/><polyline points="322,261 322,138" fill="none" stroke="#6F6A60" stroke-width="0.5" opacity="0.2"/><polyline points="347,276 347,153" fill="none" stroke="#6F6A60" stroke-width="0.5" opacity="0.2"/><polygon points="252,213 261,218 261,208 252,203" fill="url(#poyna1)" stroke="#92a7b0" stroke-width="0.7" stroke-linejoin="round"/><polygon points="252,213 262,219 262,218 252,212" fill="url(#poq1)" stroke="#dbd8d1" stroke-width="0.7" stroke-linejoin="round"/><polygon points="272,224 281,229 281,219 272,214" fill="url(#poyna1)" stroke="#92a7b0" stroke-width="0.7" stroke-linejoin="round"/><polygon points="271,224 281,230 281,229 271,224" fill="url(#poq1)" stroke="#dbd8d1" stroke-width="0.7" stroke-linejoin="round"/><polygon points="292,235 300,240 300,231 292,226" fill="url(#poyna1)" stroke="#92a7b0" stroke-width="0.7" stroke-linejoin="round"/><polygon points="291,236 301,242 301,241 291,235" fill="url(#poq1)" stroke="#dbd8d1" stroke-width="0.7" stroke-linejoin="round"/><polygon points="252,188 261,193 261,183 252,178" fill="url(#poyna1)" stroke="#92a7b0" stroke-width="0.7" stroke-linejoin="round"/><polygon points="252,188 262,194 262,193 252,188" fill="url(#poq1)" stroke="#dbd8d1" stroke-width="0.7" stroke-linejoin="round"/><polygon points="272,199 281,204 281,195 272,190" fill="url(#poyna1)" stroke="#92a7b0" stroke-width="0.7" stroke-linejoin="round"/><polygon points="271,200 281,206 281,205 271,199" fill="url(#poq1)" stroke="#dbd8d1" stroke-width="0.7" stroke-linejoin="round"/><polygon points="292,211 300,216 300,206 292,201" fill="url(#poyna1)" stroke="#92a7b0" stroke-width="0.7" stroke-linejoin="round"/><polygon points="291,211 301,217 301,216 291,210" fill="url(#poq1)" stroke="#dbd8d1" stroke-width="0.7" stroke-linejoin="round"/><polygon points="252,163 261,168 261,159 252,154" fill="url(#poyna1)" stroke="#92a7b0" stroke-width="0.7" stroke-linejoin="round"/><polygon points="252,164 262,170 262,169 252,163" fill="url(#poq1)" stroke="#dbd8d1" stroke-width="0.7" stroke-linejoin="round"/><polygon points="272,175 281,180 281,170 272,165" fill="url(#poyna1)" stroke="#92a7b0" stroke-width="0.7" stroke-linejoin="round"/><polygon points="271,175 281,181 281,180 271,174" fill="url(#poq1)" stroke="#dbd8d1" stroke-width="0.7" stroke-linejoin="round"/><polygon points="292,186 300,191 300,181 292,176" fill="url(#poyna1)" stroke="#92a7b0" stroke-width="0.7" stroke-linejoin="round"/><polygon points="291,187 301,192 301,192 291,186" fill="url(#poq1)" stroke="#dbd8d1" stroke-width="0.7" stroke-linejoin="round"/><polygon points="252,139 261,144 261,134 252,129" fill="url(#poyna1)" stroke="#92a7b0" stroke-width="0.7" stroke-linejoin="round"/><polygon points="252,139 262,145 262,144 252,138" fill="url(#poq1)" stroke="#dbd8d1" stroke-width="0.7" stroke-linejoin="round"/><polygon points="272,150 281,155 281,145 272,140" fill="url(#poyna1)" stroke="#92a7b0" stroke-width="0.7" stroke-linejoin="round"/><polygon points="271,151 281,156 281,156 271,150" fill="url(#poq1)" stroke="#dbd8d1" stroke-width="0.7" stroke-linejoin="round"/><polygon points="292,162 300,167 300,157 292,152" fill="url(#poyna1)" stroke="#92a7b0" stroke-width="0.7" stroke-linejoin="round"/><polygon points="291,162 301,168 301,167 291,161" fill="url(#poq1)" stroke="#dbd8d1" stroke-width="0.7" stroke-linejoin="round"/><polygon points="252,114 261,119 261,109 252,104" fill="url(#poyna1)" stroke="#92a7b0" stroke-width="0.7" stroke-linejoin="round"/><polygon points="252,115 262,120 262,120 252,114" fill="url(#poq1)" stroke="#dbd8d1" stroke-width="0.7" stroke-linejoin="round"/><polygon points="272,126 281,131 281,121 272,116" fill="url(#poyna1)" stroke="#92a7b0" stroke-width="0.7" stroke-linejoin="round"/><polygon points="271,126 281,132 281,131 271,125" fill="url(#poq1)" stroke="#dbd8d1" stroke-width="0.7" stroke-linejoin="round"/><polygon points="292,137 300,142 300,132 292,127" fill="url(#poyna1)" stroke="#92a7b0" stroke-width="0.7" stroke-linejoin="round"/><polygon points="291,137 301,143 301,142 291,137" fill="url(#poq1)" stroke="#dbd8d1" stroke-width="0.7" stroke-linejoin="round"/><polygon points="368,273 376,268 376,258 368,263" fill="url(#poyna2)" stroke="#7a909a" stroke-width="0.7" stroke-linejoin="round"/><polygon points="367,274 377,268 377,267 367,273" fill="url(#poq2)" stroke="#c8c4bb" stroke-width="0.7" stroke-linejoin="round"/><polygon points="388,261 397,256 397,246 388,251" fill="url(#poyna2)" stroke="#7a909a" stroke-width="0.7" stroke-linejoin="round"/><polygon points="387,262 397,256 397,255 387,261" fill="url(#poq2)" stroke="#c8c4bb" stroke-width="0.7" stroke-linejoin="round"/><polygon points="408,249 417,244 417,234 408,239" fill="url(#poyna2)" stroke="#7a909a" stroke-width="0.7" stroke-linejoin="round"/><polygon points="407,250 418,245 418,244 407,250" fill="url(#poq2)" stroke="#c8c4bb" stroke-width="0.7" stroke-linejoin="round"/><polygon points="428,238 437,233 437,223 428,228" fill="url(#poyna2)" stroke="#7a909a" stroke-width="0.7" stroke-linejoin="round"/><polygon points="428,239 438,233 438,232 428,238" fill="url(#poq2)" stroke="#c8c4bb" stroke-width="0.7" stroke-linejoin="round"/><polygon points="368,248 376,243 376,233 368,238" fill="url(#poyna2)" stroke="#7a909a" stroke-width="0.7" stroke-linejoin="round"/><polygon points="367,249 377,243 377,243 367,248" fill="url(#poq2)" stroke="#c8c4bb" stroke-width="0.7" stroke-linejoin="round"/><polygon points="388,236 397,231 397,221 388,227" fill="url(#poyna2)" stroke="#7a909a" stroke-width="0.7" stroke-linejoin="round"/><polygon points="387,238 397,232 397,231 387,237" fill="url(#poq2)" stroke="#c8c4bb" stroke-width="0.7" stroke-linejoin="round"/><polygon points="408,225 417,220 417,210 408,215" fill="url(#poyna2)" stroke="#7a909a" stroke-width="0.7" stroke-linejoin="round"/><polygon points="407,226 418,220 418,219 407,225" fill="url(#poq2)" stroke="#c8c4bb" stroke-width="0.7" stroke-linejoin="round"/><polygon points="428,213 437,208 437,198 428,203" fill="url(#poyna2)" stroke="#7a909a" stroke-width="0.7" stroke-linejoin="round"/><polygon points="428,214 438,208 438,208 428,213" fill="url(#poq2)" stroke="#c8c4bb" stroke-width="0.7" stroke-linejoin="round"/><polygon points="368,223 376,218 376,208 368,214" fill="url(#poyna2)" stroke="#7a909a" stroke-width="0.7" stroke-linejoin="round"/><polygon points="367,225 377,219 377,218 367,224" fill="url(#poq2)" stroke="#c8c4bb" stroke-width="0.7" stroke-linejoin="round"/><polygon points="388,212 397,207 397,197 388,202" fill="url(#poyna2)" stroke="#7a909a" stroke-width="0.7" stroke-linejoin="round"/><polygon points="387,213 397,207 397,206 387,212" fill="url(#poq2)" stroke="#c8c4bb" stroke-width="0.7" stroke-linejoin="round"/><polygon points="408,200 417,195 417,185 408,190" fill="url(#poyna2)" stroke="#7a909a" stroke-width="0.7" stroke-linejoin="round"/><polygon points="407,201 418,195 418,195 407,200" fill="url(#poq2)" stroke="#c8c4bb" stroke-width="0.7" stroke-linejoin="round"/><polygon points="428,188 437,183 437,173 428,179" fill="url(#poyna2)" stroke="#7a909a" stroke-width="0.7" stroke-linejoin="round"/><polygon points="428,190 438,184 438,183 428,189" fill="url(#poq2)" stroke="#c8c4bb" stroke-width="0.7" stroke-linejoin="round"/><polygon points="368,199 376,194 376,184 368,189" fill="url(#poyna2)" stroke="#7a909a" stroke-width="0.7" stroke-linejoin="round"/><polygon points="367,200 377,194 377,193 367,199" fill="url(#poq2)" stroke="#c8c4bb" stroke-width="0.7" stroke-linejoin="round"/><polygon points="388,187 397,182 397,172 388,177" fill="url(#poyna2)" stroke="#7a909a" stroke-width="0.7" stroke-linejoin="round"/><polygon points="387,188 397,182 397,182 387,188" fill="url(#poq2)" stroke="#c8c4bb" stroke-width="0.7" stroke-linejoin="round"/><polygon points="408,176 417,170 417,161 408,166" fill="url(#poyna2)" stroke="#7a909a" stroke-width="0.7" stroke-linejoin="round"/><polygon points="407,177 418,171 418,170 407,176" fill="url(#poq2)" stroke="#c8c4bb" stroke-width="0.7" stroke-linejoin="round"/><polygon points="428,164 437,159 437,149 428,154" fill="url(#poyna2)" stroke="#7a909a" stroke-width="0.7" stroke-linejoin="round"/><polygon points="428,165 438,159 438,158 428,164" fill="url(#poq2)" stroke="#c8c4bb" stroke-width="0.7" stroke-linejoin="round"/><polygon points="368,174 376,169 376,159 368,164" fill="url(#poyna2)" stroke="#7a909a" stroke-width="0.7" stroke-linejoin="round"/><polygon points="367,175 377,169 377,169 367,175" fill="url(#poq2)" stroke="#c8c4bb" stroke-width="0.7" stroke-linejoin="round"/><polygon points="388,163 397,157 397,148 388,153" fill="url(#poyna2)" stroke="#7a909a" stroke-width="0.7" stroke-linejoin="round"/><polygon points="387,164 397,158 397,157 387,163" fill="url(#poq2)" stroke="#c8c4bb" stroke-width="0.7" stroke-linejoin="round"/><polygon points="408,151 417,146 417,136 408,141" fill="url(#poyna2)" stroke="#7a909a" stroke-width="0.7" stroke-linejoin="round"/><polygon points="407,152 418,146 418,145 407,151" fill="url(#poq2)" stroke="#c8c4bb" stroke-width="0.7" stroke-linejoin="round"/><polygon points="428,139 437,134 437,124 428,129" fill="url(#poyna2)" stroke="#7a909a" stroke-width="0.7" stroke-linejoin="round"/><polygon points="428,140 438,134 438,134 428,140" fill="url(#poq2)" stroke="#c8c4bb" stroke-width="0.7" stroke-linejoin="round"/><polygon points="212,172 247,192 247,172 212,152" fill="url(#ptunOyna1)" stroke="#4d6069" stroke-width="0.7" stroke-linejoin="round"/><polygon points="212,172 247,192 238,197 203,177" fill="url(#pbeton0)" stroke="#ccc9c1" stroke-width="0.7" stroke-linejoin="round"/><polygon points="203,177 238,197 238,188 203,168" fill="url(#pgisht1)" stroke="#b7967b" stroke-width="0.7" stroke-linejoin="round"/><polygon points="212,172 203,177 203,168 212,163" fill="url(#ppanel2)" stroke="#aaa79d" stroke-width="0.7" stroke-linejoin="round"/><polygon points="203,168 238,188 247,183 212,163" fill="url(#pbeton0)" stroke="#ccc9c1" stroke-width="0.7" stroke-linejoin="round"/><polygon points="306,226 341,246 341,227 306,207" fill="url(#ptunOyna1)" stroke="#4d6069" stroke-width="0.7" stroke-linejoin="round"/><polygon points="306,226 341,246 332,251 297,231" fill="url(#pbeton0)" stroke="#ccc9c1" stroke-width="0.7" stroke-linejoin="round"/><polygon points="297,231 332,251 332,242 297,222" fill="url(#ppanel1)" stroke="#c4c1b8" stroke-width="0.7" stroke-linejoin="round"/><polygon points="306,226 297,231 297,222 306,217" fill="url(#ppanel2)" stroke="#aaa79d" stroke-width="0.7" stroke-linejoin="round"/><polygon points="297,222 332,242 341,237 306,217" fill="url(#pbeton0)" stroke="#ccc9c1" stroke-width="0.7" stroke-linejoin="round"/><polygon points="212,147 247,167 247,148 212,128" fill="url(#ptunOyna1)" stroke="#4d6069" stroke-width="0.7" stroke-linejoin="round"/><polygon points="212,147 247,167 238,172 203,152" fill="url(#pbeton0)" stroke="#ccc9c1" stroke-width="0.7" stroke-linejoin="round"/><polygon points="203,152 238,172 238,163 203,143" fill="url(#ppanel1)" stroke="#c4c1b8" stroke-width="0.7" stroke-linejoin="round"/><polygon points="212,147 203,152 203,143 212,138" fill="url(#ppanel2)" stroke="#aaa79d" stroke-width="0.7" stroke-linejoin="round"/><polygon points="203,143 238,163 247,158 212,138" fill="url(#pbeton0)" stroke="#ccc9c1" stroke-width="0.7" stroke-linejoin="round"/><polygon points="306,201 341,221 341,202 306,182" fill="url(#ptunOyna1)" stroke="#4d6069" stroke-width="0.7" stroke-linejoin="round"/><polygon points="306,201 341,221 332,227 297,207" fill="url(#pbeton0)" stroke="#ccc9c1" stroke-width="0.7" stroke-linejoin="round"/><polygon points="297,207 332,227 332,218 297,198" fill="url(#pgisht1)" stroke="#b7967b" stroke-width="0.7" stroke-linejoin="round"/><polygon points="306,201 297,207 297,198 306,193" fill="url(#ppanel2)" stroke="#aaa79d" stroke-width="0.7" stroke-linejoin="round"/><polygon points="297,198 332,218 341,213 306,193" fill="url(#pbeton0)" stroke="#ccc9c1" stroke-width="0.7" stroke-linejoin="round"/><polygon points="212,123 247,143 247,123 212,103" fill="url(#ptunOyna1)" stroke="#4d6069" stroke-width="0.7" stroke-linejoin="round"/><polygon points="212,123 247,143 238,148 203,128" fill="url(#pbeton0)" stroke="#ccc9c1" stroke-width="0.7" stroke-linejoin="round"/><polygon points="203,128 238,148 238,139 203,119" fill="url(#pgisht1)" stroke="#b7967b" stroke-width="0.7" stroke-linejoin="round"/><polygon points="212,123 203,128 203,119 212,114" fill="url(#ppanel2)" stroke="#aaa79d" stroke-width="0.7" stroke-linejoin="round"/><polygon points="203,119 238,139 247,134 212,114" fill="url(#pbeton0)" stroke="#ccc9c1" stroke-width="0.7" stroke-linejoin="round"/><polygon points="306,177 341,197 341,177 306,157" fill="url(#ptunOyna1)" stroke="#4d6069" stroke-width="0.7" stroke-linejoin="round"/><polygon points="306,177 341,197 332,202 297,182" fill="url(#pbeton0)" stroke="#ccc9c1" stroke-width="0.7" stroke-linejoin="round"/><polygon points="297,182 332,202 332,193 297,173" fill="url(#ppanel1)" stroke="#c4c1b8" stroke-width="0.7" stroke-linejoin="round"/><polygon points="306,177 297,182 297,173 306,168" fill="url(#ppanel2)" stroke="#aaa79d" stroke-width="0.7" stroke-linejoin="round"/><polygon points="297,173 332,193 341,188 306,168" fill="url(#pbeton0)" stroke="#ccc9c1" stroke-width="0.7" stroke-linejoin="round"/><polygon points="212,98 247,118 247,99 212,79" fill="url(#ptunOyna1)" stroke="#4d6069" stroke-width="0.7" stroke-linejoin="round"/><polygon points="212,98 247,118 238,123 203,103" fill="url(#pbeton0)" stroke="#ccc9c1" stroke-width="0.7" stroke-linejoin="round"/><polygon points="203,103 238,123 238,114 203,94" fill="url(#ppanel1)" stroke="#c4c1b8" stroke-width="0.7" stroke-linejoin="round"/><polygon points="212,98 203,103 203,94 212,89" fill="url(#ppanel2)" stroke="#aaa79d" stroke-width="0.7" stroke-linejoin="round"/><polygon points="203,94 238,114 247,109 212,89" fill="url(#pbeton0)" stroke="#ccc9c1" stroke-width="0.7" stroke-linejoin="round"/><polygon points="306,152 341,172 341,153 306,133" fill="url(#ptunOyna1)" stroke="#4d6069" stroke-width="0.7" stroke-linejoin="round"/><polygon points="306,152 341,172 332,177 297,157" fill="url(#pbeton0)" stroke="#ccc9c1" stroke-width="0.7" stroke-linejoin="round"/><polygon points="297,157 332,177 332,168 297,148" fill="url(#pgisht1)" stroke="#b7967b" stroke-width="0.7" stroke-linejoin="round"/><polygon points="306,152 297,157 297,148 306,143" fill="url(#ppanel2)" stroke="#aaa79d" stroke-width="0.7" stroke-linejoin="round"/><polygon points="297,148 332,168 341,163 306,143" fill="url(#pbeton0)" stroke="#ccc9c1" stroke-width="0.7" stroke-linejoin="round"/><polygon points="197,189 362,284 362,276 197,181" fill="url(#ptsokol1)" stroke="#938c80" stroke-width="0.7" stroke-linejoin="round"/><polygon points="362,284 443,238 443,229 362,276" fill="url(#ptsokol2)" stroke="#797368" stroke-width="0.7" stroke-linejoin="round"/><polyline points="197,181 362,276" fill="none" stroke="#6F6A60" stroke-width="0.7" opacity="0.22"/><polyline points="362,276 443,229" fill="none" stroke="#6F6A60" stroke-width="0.7" opacity="0.22"/><polygon points="270,223 280,229 280,208 270,202" fill="url(#ptunOyna1)" stroke="#4d6069" stroke-width="0.7" stroke-linejoin="round"/><polygon points="257,238 257,238 257,238 257,238 257,238 256,238 256,238 256,238 255,238 255,238 255,238 255,238 255,213 255,213 255,213 255,214 256,214 256,214 256,214 257,214 257,214 257,213 257,213 257,213" fill="url(#pmetall1)" stroke="#a9ada9" stroke-width="0.7" stroke-linejoin="round"/><polygon points="257,213 257,214 256,214 256,214 255,214 255,213 255,213 255,213 255,213 255,213 256,212 256,212 256,212 257,212 257,213 257,213 257,213 257,213 257,213" fill="url(#pmetall0)" stroke="#bcc0bc" stroke-width="0.7" stroke-linejoin="round"/><polygon points="274,247 274,248 274,248 274,248 274,248 273,248 273,248 273,248 272,248 272,248 272,248 272,247 272,223 272,223 272,223 272,223 273,223 273,223 273,223 274,223 274,223 274,223 274,223 274,223" fill="url(#pmetall1)" stroke="#a9ada9" stroke-width="0.7" stroke-linejoin="round"/><polygon points="274,223 274,223 273,223 273,223 272,223 272,223 272,223 272,223 272,222 272,222 273,222 273,222 273,222 274,222 274,222 274,223 274,223 274,223 274,223" fill="url(#pmetall0)" stroke="#bcc0bc" stroke-width="0.7" stroke-linejoin="round"/><polygon points="265,202 289,216 275,226 251,212" fill="url(#pmetall0)" stroke="#bcc0bc" stroke-width="0.7" stroke-linejoin="round"/><polygon points="263,236 277,244 277,240 263,232" fill="url(#pbeton1)" stroke="#bab7af" stroke-width="0.7" stroke-linejoin="round"/><polygon points="277,244 285,240 285,235 277,240" fill="url(#pbeton2)" stroke="#a09d95" stroke-width="0.7" stroke-linejoin="round"/><polygon points="271,227 285,235 277,240 263,232" fill="url(#pbeton0)" stroke="#ccc9c1" stroke-width="0.7" stroke-linejoin="round"/><polygon points="263,236 277,244 277,241 263,233" fill="url(#pbeton1)" stroke="#bab7af" stroke-width="0.7" stroke-linejoin="round"/><polygon points="277,244 282,241 282,238 277,241" fill="url(#pbeton2)" stroke="#a09d95" stroke-width="0.7" stroke-linejoin="round"/><polygon points="268,230 282,238 277,241 263,233" fill="url(#pbeton0)" stroke="#ccc9c1" stroke-width="0.7" stroke-linejoin="round"/><polygon points="263,236 277,244 277,243 263,235" fill="url(#pbeton1)" stroke="#bab7af" stroke-width="0.7" stroke-linejoin="round"/><polygon points="277,244 280,243 280,241 277,243" fill="url(#pbeton2)" stroke="#a09d95" stroke-width="0.7" stroke-linejoin="round"/><polygon points="266,233 280,241 277,243 263,235" fill="url(#pbeton0)" stroke="#ccc9c1" stroke-width="0.7" stroke-linejoin="round"/><polygon points="439,264 441,265 441,250 439,249" fill="url(#poq1)" stroke="#dbd8d1" stroke-width="0.7" stroke-linejoin="round"/><polygon points="441,265 442,264 442,249 441,250" fill="url(#poq2)" stroke="#c8c4bb" stroke-width="0.7" stroke-linejoin="round"/><polygon points="441,248 442,249 441,250 439,249" fill="url(#poq0)" stroke="#e8e6e2" stroke-width="0.7" stroke-linejoin="round"/><polygon points="439,249 441,250 441,241 439,240" fill="url(#ptana1)" stroke="#958a78" stroke-width="0.7" stroke-linejoin="round"/><polygon points="441,250 442,249 442,240 441,241" fill="url(#ptana2)" stroke="#7a7060" stroke-width="0.7" stroke-linejoin="round"/><polygon points="441,239 442,240 441,241 439,240" fill="url(#ptana0)" stroke="#a79c89" stroke-width="0.7" stroke-linejoin="round"/><polygon points="443,240 446,231 447,223 448,215 449,207 449,200 448,193 447,186 445,180 441,175 441,175 436,185 434,194 433,202 432,209 432,217 433,224 434,231 435,237 438,243" fill="url(#pbarg2)" stroke="#425038" stroke-width="0.7" stroke-linejoin="round"/><polygon points="438,240 435,231 434,223 433,215 432,207 432,200 433,193 434,186 436,180 441,175 441,175 445,185 447,194 448,202 449,209 449,217 448,224 447,231 446,237 443,243" fill="url(#pyaproq1)" stroke="#4c5b40" stroke-width="0.7" stroke-linejoin="round"/></svg>