<svg xmlns="http://www.w3.org/2000/svg" viewBox="0 0 320 240" width="320" height="240" role="img" aria-label="Ma'muriy bino"><defs><linearGradient id="poq1" x1="0" y1="0" x2="0" y2="1"><stop offset="0" stop-color="#f9f6ef"/><stop offset="1" stop-color="#dedbd4"/></linearGradient><linearGradient id="poq2" x1="0" y1="0" x2="0" y2="1"><stop offset="0" stop-color="#e6e2d9"/><stop offset="1" stop-color="#cbc7be"/></linearGradient><linearGradient id="poq0" x1="0" y1="0" x2="0" y2="1"><stop offset="0" stop-color="#fffefa"/><stop offset="1" stop-color="#f8f6f2"/></linearGradient><linearGradient id="ptana1" x1="0" y1="0" x2="0" y2="1"><stop offset="0" stop-color="#b3a896"/><stop offset="1" stop-color="#988d7b"/></linearGradient><linearGradient id="ptana2" x1="0" y1="0" x2="0" y2="1"><stop offset="0" stop-color="#988e7e"/><stop offset="1" stop-color="#7d7363"/></linearGradient><linearGradient id="ptana0" x1="0" y1="0" x2="0" y2="1"><stop offset="0" stop-color="#bfb4a1"/><stop offset="1" stop-color="#b7ac99"/></linearGradient><linearGradient id="pbarg2" x1="0" y1="0" x2="0" y2="1"><stop offset="0" stop-color="#606e56"/><stop offset="1" stop-color="#45533b"/></linearGradient><linearGradient id="pyaproq1" x1="0" y1="0" x2="0" y2="1"><stop offset="0" stop-color="#6a795e"/><stop offset="1" stop-color="#4f5e43"/></linearGradient><linearGradient id="pasfalt0" x1="0" y1="0" x2="0" y2="1"><stop offset="0" stop-color="#ccc9c2"/><stop offset="1" stop-color="#c4c1ba"/></linearGradient><linearGradient id="psuvoq1" x1="0" y1="0" x2="0" y2="1"><stop offset="0" stop-color="#f3ede1"/><stop offset="1" stop-color="#d8d2c6"/></linearGradient><linearGradient id="psuvoq2" x1="0" y1="0" x2="0" y2="1"><stop offset="0" stop-color="#ded6c7"/><stop offset="1" stop-color="#c3bbac"/></linearGradient><linearGradient id="psuvoq0" x1="0" y1="0" x2="0" y2="1"><stop offset="0" stop-color="#faf6ee"/><stop offset="1" stop-color="#f2eee6"/></linearGradient><linearGradient id="pbeton1" x1="0" y1="0" x2="0" y2="1"><stop offset="0" stop-color="#d8d5cd"/><stop offset="1" stop-color="#bdbab2"/></linearGradient><linearGradient id="pbeton2" x1="0" y1="0" x2="0" y2="1"><stop offset="0" stop-color="#bebbb3"/><stop offset="1" stop-color="#a3a098"/></linearGradient><linearGradient id="pruberoid0" x1="0" y1="0" x2="0" y2="1"><stop offset="0" stop-color="#aeaca5"/><stop offset="1" stop-color="#a6a49d"/></linearGradient><linearGradient id="pbeton0" x1="0" y1="0" x2="0" y2="1"><stop offset="0" stop-color="#e4e1d9"/><stop offset="1" stop-color="#dcd9d1"/></linearGradient><linearGradient id="poyna1" x1="0" y1="0" x2="0" y2="1"><stop offset="0" stop-color="#b0c5ce"/><stop offset="1" stop-color="#95aab3"/></linearGradient><linearGradient id="poyna2" x1="0" y1="0" x2="0" y2="1"><stop offset="0" stop-color="#98aeb8"/><stop offset="1" stop-color="#7d939d"/></linearGradient><linearGradient id="ptsokol1" x1="0" y1="0" x2="0" y2="1"><stop offset="0" stop-color="#b1aa9e"/><stop offset="1" stop-color="#968f83"/></linearGradient><linearGradient id="ptsokol2" x1="0" y1="0" x2="0" y2="1"><stop offset="0" stop-color="#979186"/><stop offset="1" stop-color="#7c766b"/></linearGradient><linearGradient id="ptunOyna1" x1="0" y1="0" x2="0" y2="1"><stop offset="0" stop-color="#6b7e87"/><stop offset="1" stop-color="#50636c"/></linearGradient><linearGradient id="pmetall1" x1="0" y1="0" x2="0" y2="1"><stop offset="0" stop-color="#c7cbc7"/><stop offset="1" stop-color="#acb0ac"/></linearGradient><linearGradient id="pmkb1" x1="0" y1="0" x2="0" y2="1"><stop offset="0" stop-color="#318155"/><stop offset="1" stop-color="#16663a"/></linearGradient><linearGradient id="ptunOyna2" x1="0" y1="0" x2="0" y2="1"><stop offset="0" stop-color="#596971"/><stop offset="1" stop-color="#3e4e56"/></linearGradient><linearGradient id="pmetall0" x1="0" y1="0" x2="0" y2="1"><stop offset="0" stop-color="#d4d8d4"/><stop offset="1" stop-color="#ccd0cc"/></linearGradient><linearGradient id="pqoraMetall0" x1="0" y1="0" x2="0" y2="1"><stop offset="0" stop-color="#838a85"/><stop offset="1" stop-color="#7b827d"/></linearGradient><filter id="soya" x="-30%" y="-30%" width="160%" height="180%"><feGaussianBlur stdDeviation="7.0"/></filter></defs><rect width="320" height="240" fill="#FFFFFF"/><g filter="url(#soya)" opacity="0.17"></g><polygon points="149,83 151,84 151,71 149,70" fill="url(#poq1)" stroke="#dbd8d1" stroke-width="0.7" stroke-linejoin="round"/><polygon points="151,84 153,83 153,70 151,71" fill="url(#poq2)" stroke="#c8c4bb" stroke-width="0.7" stroke-linejoin="round"/><polygon points="151,69 153,70 151,71 149,70" fill="url(#poq0)" stroke="#e8e6e2" stroke-width="0.7" stroke-linejoin="round"/><polygon points="150,70 151,71 151,63 150,62" fill="url(#ptana1)" stroke="#958a78" stroke-width="0.7" stroke-linejoin="round"/><polygon points="151,71 152,70 152,62 151,63" fill="url(#ptana2)" stroke="#7a7060" stroke-width="0.7" stroke-linejoin="round"/><polygon points="151,61 152,62 151,63 150,62" fill="url(#ptana0)" stroke="#a79c89" stroke-width="0.7" stroke-linejoin="round"/><polygon points="153,62 156,54 157,47 158,40 158,34 158,27 157,21 156,16 155,10 151,6 151,6 147,14 146,22 144,29 144,35 144,42 144,48 145,54 146,59 149,64" fill="url(#pbarg2)" stroke="#425038" stroke-width="0.7" stroke-linejoin="round"/><polygon points="149,62 146,54 145,47 144,40 144,34 144,27 144,21 146,16 147,10 151,6 151,6 155,14 156,22 157,29 158,35 158,42 158,48 157,54 156,59 153,64" fill="url(#pyaproq1)" stroke="#4c5b40" stroke-width="0.7" stroke-linejoin="round"/><polygon points="67,127 229,220 205,234 43,140" fill="url(#pasfalt0)" stroke="#b4b1aa" stroke-width="0.5" stroke-linejoin="round"/><polygon points="91,137 197,198 197,143 91,82" fill="url(#psuvoq1)" stroke="#d5cfc3" stroke-width="0.7" stroke-linejoin="round"/><polygon points="197,198 264,160 264,104 197,143" fill="url(#psuvoq2)" stroke="#c0b8a9" stroke-width="0.7" stroke-linejoin="round"/><polygon points="158,43 264,104 197,143 91,82" fill="url(#psuvoq0)" stroke="#e2ded6" stroke-width="0.7" stroke-linejoin="round"/><polygon points="88,82 197,145 197,143 88,80" fill="url(#pbeton1)" stroke="#bab7af" stroke-width="0.7" stroke-linejoin="round"/><polygon points="197,145 267,104 267,103 197,143" fill="url(#pbeton2)" stroke="#a09d95" stroke-width="0.7" stroke-linejoin="round"/><polygon points="156,43 262,104 262,99 156,38" fill="url(#psuvoq1)" stroke="#d5cfc3" stroke-width="0.7" stroke-linejoin="round"/><polygon points="94,82 160,43 160,38 94,77" fill="url(#psuvoq2)" stroke="#c0b8a9" stroke-width="0.7" stroke-linejoin="round"/><polygon points="158,44 260,103 197,139 96,80" fill="url(#pruberoid0)" stroke="#96948d" stroke-width="0.7" stroke-linejoin="round"/><polygon points="91,80 197,141 197,136 91,75" fill="url(#psuvoq1)" stroke="#d5cfc3" stroke-width="0.7" stroke-linejoin="round"/><polygon points="197,141 200,140 200,135 197,136" fill="url(#psuvoq2)" stroke="#c0b8a9" stroke-width="0.7" stroke-linejoin="round"/><polygon points="94,74 200,135 197,136 91,75" fill="url(#pbeton0)" stroke="#ccc9c1" stroke-width="0.7" stroke-linejoin="round"/><polygon points="197,139 200,140 200,135 197,134" fill="url(#psuvoq1)" stroke="#d5cfc3" stroke-width="0.7" stroke-linejoin="round"/><polygon points="200,140 264,103 264,98 200,135" fill="url(#psuvoq2)" stroke="#c0b8a9" stroke-width="0.7" stroke-linejoin="round"/><polygon points="262,97 264,98 200,135 197,134" fill="url(#pbeton0)" stroke="#ccc9c1" stroke-width="0.7" stroke-linejoin="round"/><polygon points="97,131 107,136 107,125 97,120" fill="url(#poyna1)" stroke="#92a7b0" stroke-width="0.7" stroke-linejoin="round"/><polygon points="97,131 107,137 107,137 97,131" fill="url(#poq1)" stroke="#dbd8d1" stroke-width="0.7" stroke-linejoin="round"/><polygon points="118,143 128,149 128,138 118,132" fill="url(#poyna1)" stroke="#92a7b0" stroke-width="0.7" stroke-linejoin="round"/><polygon points="118,144 128,150 128,149 118,143" fill="url(#poq1)" stroke="#dbd8d1" stroke-width="0.7" stroke-linejoin="round"/><polygon points="140,155 149,161 149,150 140,144" fill="url(#poyna1)" stroke="#92a7b0" stroke-width="0.7" stroke-linejoin="round"/><polygon points="139,156 150,162 150,161 139,155" fill="url(#poq1)" stroke="#dbd8d1" stroke-width="0.7" stroke-linejoin="round"/><polygon points="161,168 170,173 170,162 161,157" fill="url(#poyna1)" stroke="#92a7b0" stroke-width="0.7" stroke-linejoin="round"/><polygon points="160,168 171,174 171,173 160,167" fill="url(#poq1)" stroke="#dbd8d1" stroke-width="0.7" stroke-linejoin="round"/><polygon points="182,180 191,185 191,174 182,169" fill="url(#poyna1)" stroke="#92a7b0" stroke-width="0.7" stroke-linejoin="round"/><polygon points="181,180 192,186 192,186 181,180" fill="url(#poq1)" stroke="#dbd8d1" stroke-width="0.7" stroke-linejoin="round"/><polygon points="97,103 107,109 107,98 97,92" fill="url(#poyna1)" stroke="#92a7b0" stroke-width="0.7" stroke-linejoin="round"/><polygon points="97,104 107,110 107,109 97,103" fill="url(#poq1)" stroke="#dbd8d1" stroke-width="0.7" stroke-linejoin="round"/><polygon points="118,116 128,121 128,110 118,105" fill="url(#poyna1)" stroke="#92a7b0" stroke-width="0.7" stroke-linejoin="round"/><polygon points="118,116 128,122 128,121 118,115" fill="url(#poq1)" stroke="#dbd8d1" stroke-width="0.7" stroke-linejoin="round"/><polygon points="140,128 149,133 149,122 140,117" fill="url(#poyna1)" stroke="#92a7b0" stroke-width="0.7" stroke-linejoin="round"/><polygon points="139,128 150,134 150,134 139,128" fill="url(#poq1)" stroke="#dbd8d1" stroke-width="0.7" stroke-linejoin="round"/><polygon points="161,140 170,146 170,134 161,129" fill="url(#poyna1)" stroke="#92a7b0" stroke-width="0.7" stroke-linejoin="round"/><polygon points="160,140 171,147 171,146 160,140" fill="url(#poq1)" stroke="#dbd8d1" stroke-width="0.7" stroke-linejoin="round"/><polygon points="182,152 191,158 191,147 182,141" fill="url(#poyna1)" stroke="#92a7b0" stroke-width="0.7" stroke-linejoin="round"/><polygon points="181,153 192,159 192,158 181,152" fill="url(#poq1)" stroke="#dbd8d1" stroke-width="0.7" stroke-linejoin="round"/><polygon points="204,185 213,179 213,168 204,174" fill="url(#poyna2)" stroke="#7a909a" stroke-width="0.7" stroke-linejoin="round"/><polygon points="203,186 214,180 214,179 203,185" fill="url(#poq2)" stroke="#c8c4bb" stroke-width="0.7" stroke-linejoin="round"/><polygon points="226,172 236,167 236,156 226,161" fill="url(#poyna2)" stroke="#7a909a" stroke-width="0.7" stroke-linejoin="round"/><polygon points="225,173 236,167 236,166 225,173" fill="url(#poq2)" stroke="#c8c4bb" stroke-width="0.7" stroke-linejoin="round"/><polygon points="248,159 258,154 258,143 248,148" fill="url(#poyna2)" stroke="#7a909a" stroke-width="0.7" stroke-linejoin="round"/><polygon points="247,161 258,154 258,153 247,160" fill="url(#poq2)" stroke="#c8c4bb" stroke-width="0.7" stroke-linejoin="round"/><polygon points="204,158 213,152 213,141 204,147" fill="url(#poyna2)" stroke="#7a909a" stroke-width="0.7" stroke-linejoin="round"/><polygon points="203,159 214,152 214,152 203,158" fill="url(#poq2)" stroke="#c8c4bb" stroke-width="0.7" stroke-linejoin="round"/><polygon points="226,145 236,139 236,128 226,134" fill="url(#poyna2)" stroke="#7a909a" stroke-width="0.7" stroke-linejoin="round"/><polygon points="225,146 236,139 236,139 225,145" fill="url(#poq2)" stroke="#c8c4bb" stroke-width="0.7" stroke-linejoin="round"/><polygon points="248,132 258,126 258,115 248,121" fill="url(#poyna2)" stroke="#7a909a" stroke-width="0.7" stroke-linejoin="round"/><polygon points="247,133 258,127 258,126 247,132" fill="url(#poq2)" stroke="#c8c4bb" stroke-width="0.7" stroke-linejoin="round"/><polygon points="91,137 197,198 197,191 91,130" fill="url(#ptsokol1)" stroke="#938c80" stroke-width="0.7" stroke-linejoin="round"/><polygon points="197,198 264,160 264,152 197,191" fill="url(#ptsokol2)" stroke="#797368" stroke-width="0.7" stroke-linejoin="round"/><polyline points="91,130 197,191" fill="none" stroke="#6F6A60" stroke-width="0.7" opacity="0.22"/><polyline points="197,191 264,152" fill="none" stroke="#6F6A60" stroke-width="0.7" opacity="0.22"/><polygon points="166,147 171,150 171,146 166,142" fill="url(#poq1)" stroke="#dbd8d1" stroke-width="0.7" stroke-linejoin="round"/><polygon points="174,124 180,127 180,123 174,120" fill="url(#poq1)" stroke="#dbd8d1" stroke-width="0.7" stroke-linejoin="round"/><polygon points="227,148 233,144 233,140 227,143" fill="url(#poq2)" stroke="#c8c4bb" stroke-width="0.7" stroke-linejoin="round"/><polygon points="112,162 146,181 146,150 112,130" fill="url(#psuvoq1)" stroke="#d5cfc3" stroke-width="0.7" stroke-linejoin="round"/><polygon points="146,181 157,175 157,143 146,150" fill="url(#psuvoq2)" stroke="#c0b8a9" stroke-width="0.7" stroke-linejoin="round"/><polygon points="123,124 157,143 146,150 112,130" fill="url(#pbeton0)" stroke="#ccc9c1" stroke-width="0.7" stroke-linejoin="round"/><polygon points="115,157 143,173 143,153 115,137" fill="url(#ptunOyna1)" stroke="#4d6069" stroke-width="0.7" stroke-linejoin="round"/><polygon points="125,163 133,168 133,147 125,143" fill="url(#pmetall1)" stroke="#a9ada9" stroke-width="0.7" stroke-linejoin="round"/><polygon points="115,137 142,152 142,149 115,133" fill="url(#pmkb1)" stroke="#136337" stroke-width="0.7" stroke-linejoin="round"/><polygon points="148,174 154,170 154,150 148,153" fill="url(#ptunOyna2)" stroke="#3b4b53" stroke-width="0.7" stroke-linejoin="round"/><polygon points="113,171 130,180 130,176 113,167" fill="url(#pbeton1)" stroke="#bab7af" stroke-width="0.7" stroke-linejoin="round"/><polygon points="130,180 137,176 137,172 130,176" fill="url(#pbeton2)" stroke="#a09d95" stroke-width="0.7" stroke-linejoin="round"/><polygon points="121,163 137,172 130,176 113,167" fill="url(#pbeton0)" stroke="#ccc9c1" stroke-width="0.7" stroke-linejoin="round"/><polygon points="113,171 130,180 130,178 113,168" fill="url(#pbeton1)" stroke="#bab7af" stroke-width="0.7" stroke-linejoin="round"/><polygon points="130,180 134,178 134,175 130,178" fill="url(#pbeton2)" stroke="#a09d95" stroke-width="0.7" stroke-linejoin="round"/><polygon points="118,165 134,175 130,178 113,168" fill="url(#pbeton0)" stroke="#ccc9c1" stroke-width="0.7" stroke-linejoin="round"/><polygon points="113,171 130,180 130,179 113,170" fill="url(#pbeton1)" stroke="#bab7af" stroke-width="0.7" stroke-linejoin="round"/><polygon points="130,180 132,179 132,178 130,179" fill="url(#pbeton2)" stroke="#a09d95" stroke-width="0.7" stroke-linejoin="round"/><polygon points="116,168 132,178 130,179 113,170" fill="url(#pbeton0)" stroke="#ccc9c1" stroke-width="0.7" stroke-linejoin="round"/><polygon points="269,179 270,180 270,167 269,166" fill="url(#poq1)" stroke="#dbd8d1" stroke-width="0.7" stroke-linejoin="round"/><polygon points="270,180 272,179 272,166 270,167" fill="url(#poq2)" stroke="#c8c4bb" stroke-width="0.7" stroke-linejoin="round"/><polygon points="270,165 272,166 270,167 269,166" fill="url(#poq0)" stroke="#e8e6e2" stroke-width="0.7" stroke-linejoin="round"/><polygon points="269,166 270,167 270,159 269,159" fill="url(#ptana1)" stroke="#958a78" stroke-width="0.7" stroke-linejoin="round"/><polygon points="270,167 272,166 272,159 270,159" fill="url(#ptana2)" stroke="#7a7060" stroke-width="0.7" stroke-linejoin="round"/><polygon points="270,158 272,159 270,159 269,159" fill="url(#ptana0)" stroke="#a79c89" stroke-width="0.7" stroke-linejoin="round"/><polygon points="273,158 275,151 276,144 277,138 277,132 277,126 276,120 275,115 274,110 270,106 270,106 267,114 265,121 264,127 264,134 264,140 264,145 265,151 266,156 268,161" fill="url(#pbarg2)" stroke="#425038" stroke-width="0.7" stroke-linejoin="round"/><polygon points="268,158 266,151 265,144 264,138 264,132 264,126 264,120 265,115 267,110 270,106 270,106 274,114 275,121 276,127 277,134 277,140 277,145 276,151 275,156 273,161" fill="url(#pyaproq1)" stroke="#4c5b40" stroke-width="0.7" stroke-linejoin="round"/><polygon points="224,203 226,204 226,193 224,193" fill="url(#poq1)" stroke="#dbd8d1" stroke-width="0.7" stroke-linejoin="round"/><polygon points="226,204 227,203 227,193 226,193" fill="url(#poq2)" stroke="#c8c4bb" stroke-width="0.7" stroke-linejoin="round"/><polygon points="226,192 227,193 226,193 224,193" fill="url(#poq0)" stroke="#e8e6e2" stroke-width="0.7" stroke-linejoin="round"/><polygon points="224,193 226,193 226,187 224,186" fill="url(#ptana1)" stroke="#958a78" stroke-width="0.7" stroke-linejoin="round"/><polygon points="226,193 227,193 227,186 226,187" fill="url(#ptana2)" stroke="#7a7060" stroke-width="0.7" stroke-linejoin="round"/><polygon points="226,186 227,186 226,187 224,186" fill="url(#ptana0)" stroke="#a79c89" stroke-width="0.7" stroke-linejoin="round"/><polygon points="227,186 229,180 230,175 231,169 231,164 231,159 231,155 230,150 228,146 226,143 226,143 223,149 221,155 221,161 220,166 220,171 220,176 221,180 222,184 224,188" fill="url(#pbarg2)" stroke="#425038" stroke-width="0.7" stroke-linejoin="round"/><polygon points="224,186 222,180 221,175 220,169 220,164 220,159 221,155 221,150 223,146 226,143 226,143 228,149 230,155 231,161 231,166 231,171 231,176 230,180 229,184 227,188" fill="url(#pyaproq1)" stroke="#4c5b40" stroke-width="0.7" stroke-linejoin="round"/><polygon points="63,138 63,138 63,138 63,138 62,138 62,138 62,138 61,138 61,138 61,138 61,138 61,138 61,94 61,94 61,94 61,95 61,95 62,95 62,95 62,95 63,95 63,94 63,94 63,94" fill="url(#pmetall1)" stroke="#a9ada9" stroke-width="0.7" stroke-linejoin="round"/><polygon points="63,94 62,95 62,95 61,95 61,95 61,94 61,94 61,94 61,94 61,93 61,93 62,93 62,93 63,93 63,94 63,94 63,94 63,94 63,94" fill="url(#pmetall0)" stroke="#bcc0bc" stroke-width="0.7" stroke-linejoin="round"/><polygon points="58,98 64,101 64,97 58,94" fill="url(#poq1)" stroke="#dbd8d1" stroke-width="0.7" stroke-linejoin="round"/><polygon points="64,101 67,99 67,96 64,97" fill="url(#poq2)" stroke="#c8c4bb" stroke-width="0.7" stroke-linejoin="round"/><polygon points="61,93 67,96 64,97 58,94" fill="url(#poq0)" stroke="#e8e6e2" stroke-width="0.7" stroke-linejoin="round"/><polygon points="64,99 68,103 71,101 67,98" fill="url(#pqoraMetall0)" stroke="#6b726d" stroke-width="0.7" stroke-linejoin="round"/></svg>