<svg xmlns="http://www.w3.org/2000/svg" viewBox="0 0 320 240" width="320" height="240" role="img" aria-label="Ma'muriy bino"><defs><linearGradient id="poq1" x1="0" y1="0" x2="0" y2="1"><stop offset="0" stop-color="#f9f6ef"/><stop offset="1" stop-color="#dedbd4"/></linearGradient><linearGradient id="poq2" x1="0" y1="0" x2="0" y2="1"><stop offset="0" stop-color="#e6e2d9"/><stop offset="1" stop-color="#cbc7be"/></linearGradient><linearGradient id="poq0" x1="0" y1="0" x2="0" y2="1"><stop offset="0" stop-color="#fffefa"/><stop offset="1" stop-color="#f8f6f2"/></linearGradient><linearGradient id="ptana1" x1="0" y1="0" x2="0" y2="1"><stop offset="0" stop-color="#b3a896"/><stop offset="1" stop-color="#988d7b"/></linearGradient><linearGradient id="ptana2" x1="0" y1="0" x2="0" y2="1"><stop offset="0" stop-color="#988e7e"/><stop offset="1" stop-color="#7d7363"/></linearGradient><linearGradient id="ptana0" x1="0" y1="0" x2="0" y2="1"><stop offset="0" stop-color="#bfb4a1"/><stop offset="1" stop-color="#b7ac99"/></linearGradient><linearGradient id="pbarg2" x1="0" y1="0" x2="0" y2="1"><stop offset="0" stop-color="#606e56"/><stop offset="1" stop-color="#45533b"/></linearGradient><linearGradient id="pyaproq1" x1="0" y1="0" x2="0" y2="1"><stop offset="0" stop-color="#6a795e"/><stop offset="1" stop-color="#4f5e43"/></linearGradient><linearGradient id="pasfalt0" x1="0" y1="0" x2="0" y2="1"><stop offset="0" stop-color="#ccc9c2"/><stop offset="1" stop-color="#c4c1ba"/></linearGradient><linearGradient id="psuvoq1" x1="0" y1="0" x2="0" y2="1"><stop offset="0" stop-color="#f3ede1"/><stop offset="1" stop-color="#d8d2c6"/></linearGradient><linearGradient id="psuvoq2" x1="0" y1="0" x2="0" y2="1"><stop offset="0" stop-color="#ded6c7"/><stop offset="1" stop-color="#c3bbac"/></linearGradient><linearGradient id="psuvoq0" x1="0" y1="0" x2="0" y2="1"><stop offset="0" stop-color="#faf6ee"/><stop offset="1" stop-color="#f2eee6"/></linearGradient><linearGradient id="pbeton1" x1="0" y1="0" x2="0" y2="1"><stop offset="0" stop-color="#d8d5cd"/><stop offset="1" stop-color="#bdbab2"/></linearGradient><linearGradient id="pbeton2" x1="0" y1="0" x2="0" y2="1"><stop offset="0" stop-color="#bebbb3"/><stop offset="1" stop-color="#a3a098"/></linearGradient><linearGradient id="pruberoid0" x1="0" y1="0" x2="0" y2="1"><stop offset="0" stop-color="#aeaca5"/><stop offset="1" stop-color="#a6a49d"/></linearGradient><linearGradient id="pbeton0" x1="0" y1="0" x2="0" y2="1"><stop offset="0" stop-color="#e4e1d9"/><stop offset="1" stop-color="#dcd9d1"/></linearGradient><linearGradient id="poyna1" x1="0" y1="0" x2="0" y2="1"><stop offset="0" stop-color="#b0c5ce"/><stop offset="1" stop-color="#95aab3"/></linearGradient><linearGradient id="poyna2" x1="0" y1="0" x2="0" y2="1"><stop offset="0" stop-color="#98aeb8"/><stop offset="1" stop-color="#7d939d"/></linearGradient><linearGradient id="ptsokol1" x1="0" y1="0" x2="0" y2="1"><stop offset="0" stop-color="#b1aa9e"/><stop offset="1" stop-color="#968f83"/></linearGradient><linearGradient id="ptsokol2" x1="0" y1="0" x2="0" y2="1"><stop offset="0" stop-color="#979186"/><stop offset="1" stop-color="#7c766b"/></linearGradient><linearGradient id="ptunOyna1" x1="0" y1="0" x2="0" y2="1"><stop offset="0" stop-color="#6b7e87"/><stop offset="1" stop-color="#50636c"/></linearGradient><linearGradient id="pmetall1" x1="0" y1="0" x2="0" y2="1"><stop offset="0" stop-color="#c7cbc7"/><stop offset="1" stop-color="#acb0ac"/></linearGradient><linearGradient id="pmkb1" x1="0" y1="0" x2="0" y2="1"><stop offset="0" stop-color="#318155"/><stop offset="1" stop-color="#16663a"/></linearGradient><linearGradient id="ptunOyna2" x1="0" y1="0" x2="0" y2="1"><stop offset="0" stop-color="#596971"/><stop offset="1" stop-color="#3e4e56"/></linearGradient><linearGradient id="pmetall0" x1="0" y1="0" x2="0" y2="1"><stop offset="0" stop-color="#d4d8d4"/><stop offset="1" stop-color="#ccd0cc"/></linearGradient><linearGradient id="pqoraMetall0" x1="0" y1="0" x2="0" y2="1"><stop offset="0" stop-color="#838a85"/><stop offset="1" stop-color="#7b827d"/></linearGradient><filter id="soya" x="-30%" y="-30%" width="160%" height="180%"><feGaussianBlur stdDeviation="7.0"/></filter></defs><rect width="320" height="240" fill="#FFFFFF"/><g filter="url(#soya)" opacity="0.17"></g><polygon points="142,80 144,81 144,68 142,67" fill="url(#poq1)" stroke="#dbd8d1" stroke-width="0.7" stroke-linejoin="round"/><polygon points="144,81 145,80 145,67 144,68" fill="url(#poq2)" stroke="#c8c4bb" stroke-width="0.7" stroke-linejoin="round"/><polygon points="144,66 145,67 144,68 142,67" fill="url(#poq0)" stroke="#e8e6e2" stroke-width="0.7" stroke-linejoin="round"/><polygon points="142,67 144,68 144,60 142,60" fill="url(#ptana1)" stroke="#958a78" stroke-width="0.7" stroke-linejoin="round"/><polygon points="144,68 145,67 145,60 144,60" fill="url(#ptana2)" stroke="#7a7060" stroke-width="0.7" stroke-linejoin="round"/><polygon points="144,59 145,60 144,60 142,60" fill="url(#ptana0)" stroke="#a79c89" stroke-width="0.7" stroke-linejoin="round"/><polygon points="146,59 148,52 149,45 150,39 150,32 150,26 150,21 149,15 147,10 144,6 144,6 140,14 138,21 137,28 137,34 137,40 137,46 138,52 139,57 141,62" fill="url(#pbarg2)" stroke="#425038" stroke-width="0.7" stroke-linejoin="round"/><polygon points="141,59 139,52 138,45 137,39 137,32 137,26 137,21 138,15 140,10 144,6 144,6 147,14 149,21 150,28 150,34 150,40 150,46 149,52 148,57 146,62" fill="url(#pyaproq1)" stroke="#4c5b40" stroke-width="0.7" stroke-linejoin="round"/><polygon points="63,122 234,221 211,234 40,135" fill="url(#pasfalt0)" stroke="#b4b1aa" stroke-width="0.5" stroke-linejoin="round"/><polygon points="86,132 204,200 204,147 86,79" fill="url(#psuvoq1)" stroke="#d5cfc3" stroke-width="0.7" stroke-linejoin="round"/><polygon points="204,200 268,163 268,110 204,147" fill="url(#psuvoq2)" stroke="#c0b8a9" stroke-width="0.7" stroke-linejoin="round"/><polygon points="150,42 268,110 204,147 86,79" fill="url(#psuvoq0)" stroke="#e2ded6" stroke-width="0.7" stroke-linejoin="round"/><polygon points="83,79 204,148 204,147 83,77" fill="url(#pbeton1)" stroke="#bab7af" stroke-width="0.7" stroke-linejoin="round"/><polygon points="204,148 271,110 271,108 204,147" fill="url(#pbeton2)" stroke="#a09d95" stroke-width="0.7" stroke-linejoin="round"/><polygon points="148,42 266,109 266,105 148,37" fill="url(#psuvoq1)" stroke="#d5cfc3" stroke-width="0.7" stroke-linejoin="round"/><polygon points="88,79 152,42 152,37 88,74" fill="url(#psuvoq2)" stroke="#c0b8a9" stroke-width="0.7" stroke-linejoin="round"/><polygon points="150,43 263,108 204,143 91,77" fill="url(#pruberoid0)" stroke="#96948d" stroke-width="0.7" stroke-linejoin="round"/><polygon points="86,77 204,145 204,140 86,72" fill="url(#psuvoq1)" stroke="#d5cfc3" stroke-width="0.7" stroke-linejoin="round"/><polygon points="204,145 206,144 206,139 204,140" fill="url(#psuvoq2)" stroke="#c0b8a9" stroke-width="0.7" stroke-linejoin="round"/><polygon points="88,71 206,139 204,140 86,72" fill="url(#pbeton0)" stroke="#ccc9c1" stroke-width="0.7" stroke-linejoin="round"/><polygon points="204,143 206,144 206,139 204,138" fill="url(#psuvoq1)" stroke="#d5cfc3" stroke-width="0.7" stroke-linejoin="round"/><polygon points="206,144 268,108 268,103 206,139" fill="url(#psuvoq2)" stroke="#c0b8a9" stroke-width="0.7" stroke-linejoin="round"/><polygon points="266,102 268,103 206,139 204,138" fill="url(#pbeton0)" stroke="#ccc9c1" stroke-width="0.7" stroke-linejoin="round"/><polygon points="92,126 100,131 100,120 92,115" fill="url(#poyna1)" stroke="#92a7b0" stroke-width="0.7" stroke-linejoin="round"/><polygon points="91,126 101,132 101,131 91,126" fill="url(#poq1)" stroke="#dbd8d1" stroke-width="0.7" stroke-linejoin="round"/><polygon points="111,137 120,142 120,132 111,127" fill="url(#poyna1)" stroke="#92a7b0" stroke-width="0.7" stroke-linejoin="round"/><polygon points="111,138 120,143 120,143 111,137" fill="url(#poq1)" stroke="#dbd8d1" stroke-width="0.7" stroke-linejoin="round"/><polygon points="131,148 139,153 139,143 131,138" fill="url(#poyna1)" stroke="#92a7b0" stroke-width="0.7" stroke-linejoin="round"/><polygon points="130,149 140,155 140,154 130,148" fill="url(#poq1)" stroke="#dbd8d1" stroke-width="0.7" stroke-linejoin="round"/><polygon points="150,160 159,165 159,154 150,149" fill="url(#poyna1)" stroke="#92a7b0" stroke-width="0.7" stroke-linejoin="round"/><polygon points="150,160 160,166 160,165 150,159" fill="url(#poq1)" stroke="#dbd8d1" stroke-width="0.7" stroke-linejoin="round"/><polygon points="170,171 179,176 179,165 170,160" fill="url(#poyna1)" stroke="#92a7b0" stroke-width="0.7" stroke-linejoin="round"/><polygon points="169,171 179,177 179,176 169,171" fill="url(#poq1)" stroke="#dbd8d1" stroke-width="0.7" stroke-linejoin="round"/><polygon points="190,182 198,187 198,177 190,172" fill="url(#poyna1)" stroke="#92a7b0" stroke-width="0.7" stroke-linejoin="round"/><polygon points="189,183 199,188 199,188 189,182" fill="url(#poq1)" stroke="#dbd8d1" stroke-width="0.7" stroke-linejoin="round"/><polygon points="92,99 100,104 100,94 92,89" fill="url(#poyna1)" stroke="#92a7b0" stroke-width="0.7" stroke-linejoin="round"/><polygon points="91,100 101,105 101,105 91,99" fill="url(#poq1)" stroke="#dbd8d1" stroke-width="0.7" stroke-linejoin="round"/><polygon points="111,111 120,116 120,105 111,100" fill="url(#poyna1)" stroke="#92a7b0" stroke-width="0.7" stroke-linejoin="round"/><polygon points="111,111 120,117 120,116 111,110" fill="url(#poq1)" stroke="#dbd8d1" stroke-width="0.7" stroke-linejoin="round"/><polygon points="131,122 139,127 139,116 131,111" fill="url(#poyna1)" stroke="#92a7b0" stroke-width="0.7" stroke-linejoin="round"/><polygon points="130,122 140,128 140,127 130,122" fill="url(#poq1)" stroke="#dbd8d1" stroke-width="0.7" stroke-linejoin="round"/><polygon points="150,133 159,138 159,128 150,123" fill="url(#poyna1)" stroke="#92a7b0" stroke-width="0.7" stroke-linejoin="round"/><polygon points="150,134 160,139 160,139 150,133" fill="url(#poq1)" stroke="#dbd8d1" stroke-width="0.7" stroke-linejoin="round"/><polygon points="170,145 179,150 179,139 170,134" fill="url(#poyna1)" stroke="#92a7b0" stroke-width="0.7" stroke-linejoin="round"/><polygon points="169,145 179,151 179,150 169,144" fill="url(#poq1)" stroke="#dbd8d1" stroke-width="0.7" stroke-linejoin="round"/><polygon points="190,156 198,161 198,150 190,145" fill="url(#poyna1)" stroke="#92a7b0" stroke-width="0.7" stroke-linejoin="round"/><polygon points="189,156 199,162 199,161 189,156" fill="url(#poq1)" stroke="#dbd8d1" stroke-width="0.7" stroke-linejoin="round"/><polygon points="210,187 219,182 219,171 210,176" fill="url(#poyna2)" stroke="#7a909a" stroke-width="0.7" stroke-linejoin="round"/><polygon points="209,188 220,182 220,181 209,187" fill="url(#poq2)" stroke="#c8c4bb" stroke-width="0.7" stroke-linejoin="round"/><polygon points="231,175 240,169 240,159 231,164" fill="url(#poyna2)" stroke="#7a909a" stroke-width="0.7" stroke-linejoin="round"/><polygon points="230,176 241,170 241,169 230,175" fill="url(#poq2)" stroke="#c8c4bb" stroke-width="0.7" stroke-linejoin="round"/><polygon points="252,162 262,157 262,146 252,152" fill="url(#poyna2)" stroke="#7a909a" stroke-width="0.7" stroke-linejoin="round"/><polygon points="252,163 262,157 262,157 252,163" fill="url(#poq2)" stroke="#c8c4bb" stroke-width="0.7" stroke-linejoin="round"/><polygon points="210,161 219,155 219,145 210,150" fill="url(#poyna2)" stroke="#7a909a" stroke-width="0.7" stroke-linejoin="round"/><polygon points="209,162 220,156 220,155 209,161" fill="url(#poq2)" stroke="#c8c4bb" stroke-width="0.7" stroke-linejoin="round"/><polygon points="231,148 240,143 240,132 231,138" fill="url(#poyna2)" stroke="#7a909a" stroke-width="0.7" stroke-linejoin="round"/><polygon points="230,149 241,143 241,142 230,149" fill="url(#poq2)" stroke="#c8c4bb" stroke-width="0.7" stroke-linejoin="round"/><polygon points="252,136 262,131 262,120 252,125" fill="url(#poyna2)" stroke="#7a909a" stroke-width="0.7" stroke-linejoin="round"/><polygon points="252,137 262,131 262,130 252,136" fill="url(#poq2)" stroke="#c8c4bb" stroke-width="0.7" stroke-linejoin="round"/><polygon points="86,132 204,200 204,193 86,125" fill="url(#ptsokol1)" stroke="#938c80" stroke-width="0.7" stroke-linejoin="round"/><polygon points="204,200 268,163 268,156 204,193" fill="url(#ptsokol2)" stroke="#797368" stroke-width="0.7" stroke-linejoin="round"/><polyline points="86,125 204,193" fill="none" stroke="#6F6A60" stroke-width="0.7" opacity="0.22"/><polyline points="204,193 268,156" fill="none" stroke="#6F6A60" stroke-width="0.7" opacity="0.22"/><polygon points="168,147 174,150 174,146 168,143" fill="url(#poq1)" stroke="#dbd8d1" stroke-width="0.7" stroke-linejoin="round"/><polygon points="178,126 183,129 183,125 178,122" fill="url(#poq1)" stroke="#dbd8d1" stroke-width="0.7" stroke-linejoin="round"/><polygon points="232,151 238,148 238,144 232,147" fill="url(#poq2)" stroke="#c8c4bb" stroke-width="0.7" stroke-linejoin="round"/><polygon points="111,158 143,177 143,147 111,128" fill="url(#psuvoq1)" stroke="#d5cfc3" stroke-width="0.7" stroke-linejoin="round"/><polygon points="143,177 154,171 154,140 143,147" fill="url(#psuvoq2)" stroke="#c0b8a9" stroke-width="0.7" stroke-linejoin="round"/><polygon points="121,122 154,140 143,147 111,128" fill="url(#pbeton0)" stroke="#ccc9c1" stroke-width="0.7" stroke-linejoin="round"/><polygon points="113,154 140,170 140,150 113,135" fill="url(#ptunOyna1)" stroke="#4d6069" stroke-width="0.7" stroke-linejoin="round"/><polygon points="123,160 131,164 131,144 123,140" fill="url(#pmetall1)" stroke="#a9ada9" stroke-width="0.7" stroke-linejoin="round"/><polygon points="114,134 140,149 140,146 114,131" fill="url(#pmkb1)" stroke="#136337" stroke-width="0.7" stroke-linejoin="round"/><polygon points="145,170 151,166 151,147 145,150" fill="url(#ptunOyna2)" stroke="#3b4b53" stroke-width="0.7" stroke-linejoin="round"/><polygon points="112,167 128,176 128,172 112,163" fill="url(#pbeton1)" stroke="#bab7af" stroke-width="0.7" stroke-linejoin="round"/><polygon points="128,176 135,172 135,168 128,172" fill="url(#pbeton2)" stroke="#a09d95" stroke-width="0.7" stroke-linejoin="round"/><polygon points="119,159 135,168 128,172 112,163" fill="url(#pbeton0)" stroke="#ccc9c1" stroke-width="0.7" stroke-linejoin="round"/><polygon points="112,167 128,176 128,173 112,164" fill="url(#pbeton1)" stroke="#bab7af" stroke-width="0.7" stroke-linejoin="round"/><polygon points="128,176 132,173 132,171 128,173" fill="url(#pbeton2)" stroke="#a09d95" stroke-width="0.7" stroke-linejoin="round"/><polygon points="117,162 132,171 128,173 112,164" fill="url(#pbeton0)" stroke="#ccc9c1" stroke-width="0.7" stroke-linejoin="round"/><polygon points="112,167 128,176 128,175 112,166" fill="url(#pbeton1)" stroke="#bab7af" stroke-width="0.7" stroke-linejoin="round"/><polygon points="128,176 130,175 130,173 128,175" fill="url(#pbeton2)" stroke="#a09d95" stroke-width="0.7" stroke-linejoin="round"/><polygon points="114,164 130,173 128,175 112,166" fill="url(#pbeton0)" stroke="#ccc9c1" stroke-width="0.7" stroke-linejoin="round"/><polygon points="272,181 274,182 274,170 272,169" fill="url(#poq1)" stroke="#dbd8d1" stroke-width="0.7" stroke-linejoin="round"/><polygon points="274,182 275,181 275,169 274,170" fill="url(#poq2)" stroke="#c8c4bb" stroke-width="0.7" stroke-linejoin="round"/><polygon points="274,168 275,169 274,170 272,169" fill="url(#poq0)" stroke="#e8e6e2" stroke-width="0.7" stroke-linejoin="round"/><polygon points="272,169 274,170 274,162 272,162" fill="url(#ptana1)" stroke="#958a78" stroke-width="0.7" stroke-linejoin="round"/><polygon points="274,170 275,169 275,162 274,162" fill="url(#ptana2)" stroke="#7a7060" stroke-width="0.7" stroke-linejoin="round"/><polygon points="274,161 275,162 274,162 272,162" fill="url(#ptana0)" stroke="#a79c89" stroke-width="0.7" stroke-linejoin="round"/><polygon points="276,161 278,154 279,148 280,142 280,136 280,130 280,125 279,119 277,115 274,111 274,111 270,118 269,125 268,131 267,138 267,143 268,149 268,154 270,159 272,164" fill="url(#pbarg2)" stroke="#425038" stroke-width="0.7" stroke-linejoin="round"/><polygon points="272,161 270,154 268,148 268,142 267,136 267,130 268,125 269,119 270,115 274,111 274,111 277,118 279,125 280,131 280,138 280,143 280,149 279,154 278,159 276,164" fill="url(#pyaproq1)" stroke="#4c5b40" stroke-width="0.7" stroke-linejoin="round"/><polygon points="229,204 231,205 231,195 229,194" fill="url(#poq1)" stroke="#dbd8d1" stroke-width="0.7" stroke-linejoin="round"/><polygon points="231,205 232,204 232,194 231,195" fill="url(#poq2)" stroke="#c8c4bb" stroke-width="0.7" stroke-linejoin="round"/><polygon points="231,193 232,194 231,195 229,194" fill="url(#poq0)" stroke="#e8e6e2" stroke-width="0.7" stroke-linejoin="round"/><polygon points="229,194 231,195 231,189 229,188" fill="url(#ptana1)" stroke="#958a78" stroke-width="0.7" stroke-linejoin="round"/><polygon points="231,195 232,194 232,188 231,189" fill="url(#ptana2)" stroke="#7a7060" stroke-width="0.7" stroke-linejoin="round"/><polygon points="231,187 232,188 231,189 229,188" fill="url(#ptana0)" stroke="#a79c89" stroke-width="0.7" stroke-linejoin="round"/><polygon points="233,188 234,182 235,177 236,172 236,167 236,162 236,158 235,154 234,150 231,146 231,146 228,153 227,158 226,163 225,168 225,173 226,178 226,182 227,186 229,190" fill="url(#pbarg2)" stroke="#425038" stroke-width="0.7" stroke-linejoin="round"/><polygon points="229,188 227,182 226,177 226,172 225,167 225,162 226,158 227,154 228,150 231,146 231,146 234,153 235,158 236,163 236,168 236,173 236,178 235,182 234,186 233,190" fill="url(#pyaproq1)" stroke="#4c5b40" stroke-width="0.7" stroke-linejoin="round"/><polygon points="59,133 59,133 59,133 59,133 58,133 58,133 58,133 57,133 57,133 57,133 57,133 57,133 57,90 57,91 57,91 57,91 57,91 58,91 58,91 58,91 59,91 59,91 59,91 59,90" fill="url(#pmetall1)" stroke="#a9ada9" stroke-width="0.7" stroke-linejoin="round"/><polygon points="59,91 58,91 58,91 58,91 57,91 57,91 57,91 57,90 57,90 57,90 57,90 58,90 58,90 59,90 59,90 59,90 59,91 59,91 59,91" fill="url(#pmetall0)" stroke="#bcc0bc" stroke-width="0.7" stroke-linejoin="round"/><polygon points="55,94 60,97 60,94 55,91" fill="url(#poq1)" stroke="#dbd8d1" stroke-width="0.7" stroke-linejoin="round"/><polygon points="60,97 62,95 62,92 60,94" fill="url(#poq2)" stroke="#c8c4bb" stroke-width="0.7" stroke-linejoin="round"/><polygon points="57,89 62,92 60,94 55,91" fill="url(#poq0)" stroke="#e8e6e2" stroke-width="0.7" stroke-linejoin="round"/><polygon points="60,96 64,99 66,98 62,94" fill="url(#pqoraMetall0)" stroke="#6b726d" stroke-width="0.7" stroke-linejoin="round"/></svg>