<svg xmlns="http://www.w3.org/2000/svg" viewBox="0 0 640 360" width="640" height="360" role="img" aria-label="Ma'muriy bino"><defs><linearGradient id="poq1" x1="0" y1="0" x2="0" y2="1"><stop offset="0" stop-color="#f9f6ef"/><stop offset="1" stop-color="#dedbd4"/></linearGradient><linearGradient id="poq2" x1="0" y1="0" x2="0" y2="1"><stop offset="0" stop-color="#e6e2d9"/><stop offset="1" stop-color="#cbc7be"/></linearGradient><linearGradient id="pyer0" x1="0" y1="0" x2="0" y2="1"><stop offset="0" stop-color="#f3efe5"/><stop offset="1" stop-color="#ebe7dd"/></linearGradient><linearGradient id="poq0" x1="0" y1="0" x2="0" y2="1"><stop offset="0" stop-color="#fffefa"/><stop offset="1" stop-color="#f8f6f2"/></linearGradient><linearGradient id="ptana1" x1="0" y1="0" x2="0" y2="1"><stop offset="0" stop-color="#b3a896"/><stop offset="1" stop-color="#988d7b"/></linearGradient><linearGradient id="ptana2" x1="0" y1="0" x2="0" y2="1"><stop offset="0" stop-color="#988e7e"/><stop offset="1" stop-color="#7d7363"/></linearGradient><linearGradient id="ptana0" x1="0" y1="0" x2="0" y2="1"><stop offset="0" stop-color="#bfb4a1"/><stop offset="1" stop-color="#b7ac99"/></linearGradient><linearGradient id="pbarg2" x1="0" y1="0" x2="0" y2="1"><stop offset="0" stop-color="#606e56"/><stop offset="1" stop-color="#45533b"/></linearGradient><linearGradient id="pyaproq1" x1="0" y1="0" x2="0" y2="1"><stop offset="0" stop-color="#6a795e"/><stop offset="1" stop-color="#4f5e43"/></linearGradient><linearGradient id="pasfalt0" x1="0" y1="0" x2="0" y2="1"><stop offset="0" stop-color="#ccc9c2"/><stop offset="1" stop-color="#c4c1ba"/></linearGradient><linearGradient id="psuvoq1" x1="0" y1="0" x2="0" y2="1"><stop offset="0" stop-color="#f3ede1"/><stop offset="1" stop-color="#d8d2c6"/></linearGradient><linearGradient id="psuvoq2" x1="0" y1="0" x2="0" y2="1"><stop offset="0" stop-color="#ded6c7"/><stop offset="1" stop-color="#c3bbac"/></linearGradient><linearGradient id="psuvoq0" x1="0" y1="0" x2="0" y2="1"><stop offset="0" stop-color="#faf6ee"/><stop offset="1" stop-color="#f2eee6"/></linearGradient><linearGradient id="pbeton1" x1="0" y1="0" x2="0" y2="1"><stop offset="0" stop-color="#d8d5cd"/><stop offset="1" stop-color="#bdbab2"/></linearGradient><linearGradient id="pbeton2" x1="0" y1="0" x2="0" y2="1"><stop offset="0" stop-color="#bebbb3"/><stop offset="1" stop-color="#a3a098"/></linearGradient><linearGradient id="pruberoid0" x1="0" y1="0" x2="0" y2="1"><stop offset="0" stop-color="#aeaca5"/><stop offset="1" stop-color="#a6a49d"/></linearGradient><linearGradient id="pbeton0" x1="0" y1="0" x2="0" y2="1"><stop offset="0" stop-color="#e4e1d9"/><stop offset="1" stop-color="#dcd9d1"/></linearGradient><linearGradient id="poyna1" x1="0" y1="0" x2="0" y2="1"><stop offset="0" stop-color="#b0c5ce"/><stop offset="1" stop-color="#95aab3"/></linearGradient><linearGradient id="poyna2" x1="0" y1="0" x2="0" y2="1"><stop offset="0" stop-color="#98aeb8"/><stop offset="1" stop-color="#7d939d"/></linearGradient><linearGradient id="ptsokol1" x1="0" y1="0" x2="0" y2="1"><stop offset="0" stop-color="#b1aa9e"/><stop offset="1" stop-color="#968f83"/></linearGradient><linearGradient id="ptsokol2" x1="0" y1="0" x2="0" y2="1"><stop offset="0" stop-color="#979186"/><stop offset="1" stop-color="#7c766b"/></linearGradient><linearGradient id="ptunOyna1" x1="0" y1="0" x2="0" y2="1"><stop offset="0" stop-color="#6b7e87"/><stop offset="1" stop-color="#50636c"/></linearGradient><linearGradient id="pmetall1" x1="0" y1="0" x2="0" y2="1"><stop offset="0" stop-color="#c7cbc7"/><stop offset="1" stop-color="#acb0ac"/></linearGradient><linearGradient id="pmkb1" x1="0" y1="0" x2="0" y2="1"><stop offset="0" stop-color="#318155"/><stop offset="1" stop-color="#16663a"/></linearGradient><linearGradient id="ptunOyna2" x1="0" y1="0" x2="0" y2="1"><stop offset="0" stop-color="#596971"/><stop offset="1" stop-color="#3e4e56"/></linearGradient><linearGradient id="pmetall0" x1="0" y1="0" x2="0" y2="1"><stop offset="0" stop-color="#d4d8d4"/><stop offset="1" stop-color="#ccd0cc"/></linearGradient><linearGradient id="pqoraMetall0" x1="0" y1="0" x2="0" y2="1"><stop offset="0" stop-color="#838a85"/><stop offset="1" stop-color="#7b827d"/></linearGradient><filter id="soya" x="-30%" y="-30%" width="160%" height="180%"><feGaussianBlur stdDeviation="14.1"/></filter></defs><rect width="640" height="360" fill="#FFFFFF"/><g filter="url(#soya)" opacity="0.17"><polygon points="274,97 536,248 366,346 104,195" fill="#3C3A33" stroke="none" stroke-width="0" stroke-linejoin="round"/></g><polygon points="104,190 366,341 366,337 104,186" fill="url(#poq1)" stroke="#dbd8d1" stroke-width="0.6" stroke-linejoin="round"/><polygon points="366,341 536,243 536,239 366,337" fill="url(#poq2)" stroke="#c8c4bb" stroke-width="0.6" stroke-linejoin="round"/><polygon points="274,88 536,239 366,337 104,186" fill="url(#pyer0)" stroke="#dbd7cd" stroke-width="0.6" stroke-linejoin="round"/><polyline points="274,96 521,239 366,328 119,186 274,96" fill="none" stroke="#8F897C" stroke-width="0.7" opacity="0.3" stroke-dasharray="4 4"/><polygon points="272,114 274,115 274,98 272,97" fill="url(#poq1)" stroke="#dbd8d1" stroke-width="0.7" stroke-linejoin="round"/><polygon points="274,115 276,114 276,97 274,98" fill="url(#poq2)" stroke="#c8c4bb" stroke-width="0.7" stroke-linejoin="round"/><polygon points="274,95 276,97 274,98 272,97" fill="url(#poq0)" stroke="#e8e6e2" stroke-width="0.7" stroke-linejoin="round"/><polygon points="272,97 274,98 274,87 272,86" fill="url(#ptana1)" stroke="#958a78" stroke-width="0.7" stroke-linejoin="round"/><polygon points="274,98 276,97 276,86 274,87" fill="url(#ptana2)" stroke="#7a7060" stroke-width="0.7" stroke-linejoin="round"/><polygon points="274,85 276,86 274,87 272,86" fill="url(#ptana0)" stroke="#a79c89" stroke-width="0.7" stroke-linejoin="round"/><polygon points="277,86 280,76 282,67 283,58 283,50 283,41 282,34 281,26 279,19 274,14 274,14 269,25 267,34 266,43 265,52 265,60 265,68 266,76 268,83 271,89" fill="url(#pbarg2)" stroke="#425038" stroke-width="0.7" stroke-linejoin="round"/><polygon points="271,86 268,76 266,67 265,58 265,50 265,41 266,34 267,26 269,19 274,14 274,14 279,25 281,34 282,43 283,52 283,60 283,68 282,76 280,83 277,89" fill="url(#pyaproq1)" stroke="#4c5b40" stroke-width="0.7" stroke-linejoin="round"/><polygon points="165,170 397,304 366,322 134,188" fill="url(#pasfalt0)" stroke="#b4b1aa" stroke-width="0.5" stroke-linejoin="round"/><polygon points="197,183 356,275 356,168 197,76" fill="url(#psuvoq1)" stroke="#d5cfc3" stroke-width="0.7" stroke-linejoin="round"/><polygon points="356,275 442,225 442,118 356,168" fill="url(#psuvoq2)" stroke="#c0b8a9" stroke-width="0.7" stroke-linejoin="round"/><polygon points="283,27 442,118 356,168 197,76" fill="url(#psuvoq0)" stroke="#e2ded6" stroke-width="0.7" stroke-linejoin="round"/><polygon points="193,76 356,171 356,169 193,74" fill="url(#pbeton1)" stroke="#bab7af" stroke-width="0.7" stroke-linejoin="round"/><polygon points="356,171 446,118 446,116 356,169" fill="url(#pbeton2)" stroke="#a09d95" stroke-width="0.7" stroke-linejoin="round"/><polygon points="280,26 439,118 439,112 280,20" fill="url(#psuvoq1)" stroke="#d5cfc3" stroke-width="0.7" stroke-linejoin="round"/><polygon points="200,76 286,26 286,20 200,70" fill="url(#psuvoq2)" stroke="#c0b8a9" stroke-width="0.7" stroke-linejoin="round"/><polygon points="283,28 436,116 356,163 203,74" fill="url(#pruberoid0)" stroke="#96948d" stroke-width="0.7" stroke-linejoin="round"/><polygon points="197,74 356,166 356,160 197,68" fill="url(#psuvoq1)" stroke="#d5cfc3" stroke-width="0.7" stroke-linejoin="round"/><polygon points="356,166 359,165 359,158 356,160" fill="url(#psuvoq2)" stroke="#c0b8a9" stroke-width="0.7" stroke-linejoin="round"/><polygon points="200,66 359,158 356,160 197,68" fill="url(#pbeton0)" stroke="#ccc9c1" stroke-width="0.7" stroke-linejoin="round"/><polygon points="356,163 359,165 359,158 356,156" fill="url(#psuvoq1)" stroke="#d5cfc3" stroke-width="0.7" stroke-linejoin="round"/><polygon points="359,165 442,116 442,110 359,158" fill="url(#psuvoq2)" stroke="#c0b8a9" stroke-width="0.7" stroke-linejoin="round"/><polygon points="439,108 442,110 359,158 356,156" fill="url(#pbeton0)" stroke="#ccc9c1" stroke-width="0.7" stroke-linejoin="round"/><polygon points="204,175 216,182 216,168 204,161" fill="url(#poyna1)" stroke="#92a7b0" stroke-width="0.7" stroke-linejoin="round"/><polygon points="203,176 217,184 217,183 203,175" fill="url(#poq1)" stroke="#dbd8d1" stroke-width="0.7" stroke-linejoin="round"/><polygon points="231,191 242,198 242,183 231,177" fill="url(#poyna1)" stroke="#92a7b0" stroke-width="0.7" stroke-linejoin="round"/><polygon points="230,191 243,199 243,198 230,190" fill="url(#poq1)" stroke="#dbd8d1" stroke-width="0.7" stroke-linejoin="round"/><polygon points="257,206 269,213 269,199 257,192" fill="url(#poyna1)" stroke="#92a7b0" stroke-width="0.7" stroke-linejoin="round"/><polygon points="257,207 270,214 270,213 257,206" fill="url(#poq1)" stroke="#dbd8d1" stroke-width="0.7" stroke-linejoin="round"/><polygon points="284,221 296,228 296,214 284,207" fill="url(#poyna1)" stroke="#92a7b0" stroke-width="0.7" stroke-linejoin="round"/><polygon points="283,222 296,230 296,229 283,221" fill="url(#poq1)" stroke="#dbd8d1" stroke-width="0.7" stroke-linejoin="round"/><polygon points="310,237 322,243 322,229 310,222" fill="url(#poyna1)" stroke="#92a7b0" stroke-width="0.7" stroke-linejoin="round"/><polygon points="310,237 323,245 323,244 310,236" fill="url(#poq1)" stroke="#dbd8d1" stroke-width="0.7" stroke-linejoin="round"/><polygon points="337,252 349,259 349,245 337,238" fill="url(#poyna1)" stroke="#92a7b0" stroke-width="0.7" stroke-linejoin="round"/><polygon points="336,253 349,260 349,259 336,252" fill="url(#poq1)" stroke="#dbd8d1" stroke-width="0.7" stroke-linejoin="round"/><polygon points="204,140 216,147 216,132 204,126" fill="url(#poyna1)" stroke="#92a7b0" stroke-width="0.7" stroke-linejoin="round"/><polygon points="203,140 217,148 217,147 203,139" fill="url(#poq1)" stroke="#dbd8d1" stroke-width="0.7" stroke-linejoin="round"/><polygon points="231,155 242,162 242,148 231,141" fill="url(#poyna1)" stroke="#92a7b0" stroke-width="0.7" stroke-linejoin="round"/><polygon points="230,156 243,163 243,162 230,155" fill="url(#poq1)" stroke="#dbd8d1" stroke-width="0.7" stroke-linejoin="round"/><polygon points="257,170 269,177 269,163 257,156" fill="url(#poyna1)" stroke="#92a7b0" stroke-width="0.7" stroke-linejoin="round"/><polygon points="257,171 270,179 270,178 257,170" fill="url(#poq1)" stroke="#dbd8d1" stroke-width="0.7" stroke-linejoin="round"/><polygon points="284,186 296,193 296,178 284,172" fill="url(#poyna1)" stroke="#92a7b0" stroke-width="0.7" stroke-linejoin="round"/><polygon points="283,186 296,194 296,193 283,185" fill="url(#poq1)" stroke="#dbd8d1" stroke-width="0.7" stroke-linejoin="round"/><polygon points="310,201 322,208 322,194 310,187" fill="url(#poyna1)" stroke="#92a7b0" stroke-width="0.7" stroke-linejoin="round"/><polygon points="310,202 323,209 323,208 310,201" fill="url(#poq1)" stroke="#dbd8d1" stroke-width="0.7" stroke-linejoin="round"/><polygon points="337,216 349,223 349,209 337,202" fill="url(#poyna1)" stroke="#92a7b0" stroke-width="0.7" stroke-linejoin="round"/><polygon points="336,217 349,225 349,224 336,216" fill="url(#poq1)" stroke="#dbd8d1" stroke-width="0.7" stroke-linejoin="round"/><polygon points="204,104 216,111 216,97 204,90" fill="url(#poyna1)" stroke="#92a7b0" stroke-width="0.7" stroke-linejoin="round"/><polygon points="203,105 217,112 217,111 203,104" fill="url(#poq1)" stroke="#dbd8d1" stroke-width="0.7" stroke-linejoin="round"/><polygon points="231,120 242,126 242,112 231,105" fill="url(#poyna1)" stroke="#92a7b0" stroke-width="0.7" stroke-linejoin="round"/><polygon points="230,120 243,128 243,127 230,119" fill="url(#poq1)" stroke="#dbd8d1" stroke-width="0.7" stroke-linejoin="round"/><polygon points="257,135 269,142 269,127 257,121" fill="url(#poyna1)" stroke="#92a7b0" stroke-width="0.7" stroke-linejoin="round"/><polygon points="257,135 270,143 270,142 257,134" fill="url(#poq1)" stroke="#dbd8d1" stroke-width="0.7" stroke-linejoin="round"/><polygon points="284,150 296,157 296,143 284,136" fill="url(#poyna1)" stroke="#92a7b0" stroke-width="0.7" stroke-linejoin="round"/><polygon points="283,151 296,158 296,157 283,150" fill="url(#poq1)" stroke="#dbd8d1" stroke-width="0.7" stroke-linejoin="round"/><polygon points="310,165 322,172 322,158 310,151" fill="url(#poyna1)" stroke="#92a7b0" stroke-width="0.7" stroke-linejoin="round"/><polygon points="310,166 323,174 323,173 310,165" fill="url(#poq1)" stroke="#dbd8d1" stroke-width="0.7" stroke-linejoin="round"/><polygon points="337,181 349,188 349,173 337,167" fill="url(#poyna1)" stroke="#92a7b0" stroke-width="0.7" stroke-linejoin="round"/><polygon points="336,181 349,189 349,188 336,180" fill="url(#poq1)" stroke="#dbd8d1" stroke-width="0.7" stroke-linejoin="round"/><polygon points="364,258 377,251 377,237 364,244" fill="url(#poyna2)" stroke="#7a909a" stroke-width="0.7" stroke-linejoin="round"/><polygon points="363,260 378,252 378,251 363,259" fill="url(#poq2)" stroke="#c8c4bb" stroke-width="0.7" stroke-linejoin="round"/><polygon points="393,242 405,235 405,220 393,228" fill="url(#poyna2)" stroke="#7a909a" stroke-width="0.7" stroke-linejoin="round"/><polygon points="392,243 406,235 406,234 392,242" fill="url(#poq2)" stroke="#c8c4bb" stroke-width="0.7" stroke-linejoin="round"/><polygon points="422,225 434,218 434,204 422,211" fill="url(#poyna2)" stroke="#7a909a" stroke-width="0.7" stroke-linejoin="round"/><polygon points="421,227 435,218 435,217 421,226" fill="url(#poq2)" stroke="#c8c4bb" stroke-width="0.7" stroke-linejoin="round"/><polygon points="364,223 377,215 377,201 364,209" fill="url(#poyna2)" stroke="#7a909a" stroke-width="0.7" stroke-linejoin="round"/><polygon points="363,224 378,216 378,215 363,223" fill="url(#poq2)" stroke="#c8c4bb" stroke-width="0.7" stroke-linejoin="round"/><polygon points="393,206 405,199 405,185 393,192" fill="url(#poyna2)" stroke="#7a909a" stroke-width="0.7" stroke-linejoin="round"/><polygon points="392,208 406,199 406,198 392,207" fill="url(#poq2)" stroke="#c8c4bb" stroke-width="0.7" stroke-linejoin="round"/><polygon points="422,190 434,182 434,168 422,175" fill="url(#poyna2)" stroke="#7a909a" stroke-width="0.7" stroke-linejoin="round"/><polygon points="421,191 435,183 435,182 421,190" fill="url(#poq2)" stroke="#c8c4bb" stroke-width="0.7" stroke-linejoin="round"/><polygon points="364,187 377,180 377,166 364,173" fill="url(#poyna2)" stroke="#7a909a" stroke-width="0.7" stroke-linejoin="round"/><polygon points="363,189 378,180 378,179 363,188" fill="url(#poq2)" stroke="#c8c4bb" stroke-width="0.7" stroke-linejoin="round"/><polygon points="393,171 405,163 405,149 393,156" fill="url(#poyna2)" stroke="#7a909a" stroke-width="0.7" stroke-linejoin="round"/><polygon points="392,172 406,164 406,163 392,171" fill="url(#poq2)" stroke="#c8c4bb" stroke-width="0.7" stroke-linejoin="round"/><polygon points="422,154 434,147 434,132 422,140" fill="url(#poyna2)" stroke="#7a909a" stroke-width="0.7" stroke-linejoin="round"/><polygon points="421,155 435,147 435,146 421,154" fill="url(#poq2)" stroke="#c8c4bb" stroke-width="0.7" stroke-linejoin="round"/><polygon points="197,183 356,275 356,266 197,174" fill="url(#ptsokol1)" stroke="#938c80" stroke-width="0.7" stroke-linejoin="round"/><polygon points="356,275 442,225 442,216 356,266" fill="url(#ptsokol2)" stroke="#797368" stroke-width="0.7" stroke-linejoin="round"/><polyline points="197,174 356,266" fill="none" stroke="#6F6A60" stroke-width="0.7" opacity="0.22"/><polyline points="356,266 442,216" fill="none" stroke="#6F6A60" stroke-width="0.7" opacity="0.22"/><polygon points="308,205 316,209 316,204 308,199" fill="url(#poq1)" stroke="#dbd8d1" stroke-width="0.7" stroke-linejoin="round"/><polygon points="321,176 328,181 328,175 321,171" fill="url(#poq1)" stroke="#dbd8d1" stroke-width="0.7" stroke-linejoin="round"/><polygon points="395,210 402,206 402,200 395,205" fill="url(#poq2)" stroke="#c8c4bb" stroke-width="0.7" stroke-linejoin="round"/><polygon points="230,219 274,244 274,204 230,178" fill="url(#psuvoq1)" stroke="#d5cfc3" stroke-width="0.7" stroke-linejoin="round"/><polygon points="274,244 288,236 288,195 274,204" fill="url(#psuvoq2)" stroke="#c0b8a9" stroke-width="0.7" stroke-linejoin="round"/><polygon points="245,170 288,195 274,204 230,178" fill="url(#pbeton0)" stroke="#ccc9c1" stroke-width="0.7" stroke-linejoin="round"/><polygon points="234,214 270,234 270,208 234,187" fill="url(#ptunOyna1)" stroke="#4d6069" stroke-width="0.7" stroke-linejoin="round"/><polygon points="247,221 257,227 257,201 247,195" fill="url(#pmetall1)" stroke="#a9ada9" stroke-width="0.7" stroke-linejoin="round"/><polygon points="235,187 269,207 269,202 235,182" fill="url(#pmkb1)" stroke="#136337" stroke-width="0.7" stroke-linejoin="round"/><polygon points="277,235 285,230 285,204 277,209" fill="url(#ptunOyna2)" stroke="#3b4b53" stroke-width="0.7" stroke-linejoin="round"/><polygon points="232,231 253,243 253,238 232,226" fill="url(#pbeton1)" stroke="#bab7af" stroke-width="0.7" stroke-linejoin="round"/><polygon points="253,243 262,238 262,233 253,238" fill="url(#pbeton2)" stroke="#a09d95" stroke-width="0.7" stroke-linejoin="round"/><polygon points="241,220 262,233 253,238 232,226" fill="url(#pbeton0)" stroke="#ccc9c1" stroke-width="0.7" stroke-linejoin="round"/><polygon points="232,231 253,243 253,240 232,228" fill="url(#pbeton1)" stroke="#bab7af" stroke-width="0.7" stroke-linejoin="round"/><polygon points="253,243 259,240 259,236 253,240" fill="url(#pbeton2)" stroke="#a09d95" stroke-width="0.7" stroke-linejoin="round"/><polygon points="238,224 259,236 253,240 232,228" fill="url(#pbeton0)" stroke="#ccc9c1" stroke-width="0.7" stroke-linejoin="round"/><polygon points="232,231 253,243 253,241 232,229" fill="url(#pbeton1)" stroke="#bab7af" stroke-width="0.7" stroke-linejoin="round"/><polygon points="253,243 256,241 256,240 253,241" fill="url(#pbeton2)" stroke="#a09d95" stroke-width="0.7" stroke-linejoin="round"/><polygon points="235,228 256,240 253,241 232,229" fill="url(#pbeton0)" stroke="#ccc9c1" stroke-width="0.7" stroke-linejoin="round"/><polygon points="448,250 450,251 450,235 448,234" fill="url(#poq1)" stroke="#dbd8d1" stroke-width="0.7" stroke-linejoin="round"/><polygon points="450,251 452,250 452,234 450,235" fill="url(#poq2)" stroke="#c8c4bb" stroke-width="0.7" stroke-linejoin="round"/><polygon points="450,233 452,234 450,235 448,234" fill="url(#poq0)" stroke="#e8e6e2" stroke-width="0.7" stroke-linejoin="round"/><polygon points="449,234 450,235 450,225 449,224" fill="url(#ptana1)" stroke="#958a78" stroke-width="0.7" stroke-linejoin="round"/><polygon points="450,235 452,234 452,224 450,225" fill="url(#ptana2)" stroke="#7a7060" stroke-width="0.7" stroke-linejoin="round"/><polygon points="450,223 452,224 450,225 449,224" fill="url(#ptana0)" stroke="#a79c89" stroke-width="0.7" stroke-linejoin="round"/><polygon points="453,224 456,215 458,206 459,197 459,189 459,182 458,174 457,167 455,161 450,156 450,156 446,166 444,175 442,184 442,192 442,200 442,207 443,214 445,221 448,227" fill="url(#pbarg2)" stroke="#425038" stroke-width="0.7" stroke-linejoin="round"/><polygon points="448,224 445,215 443,206 442,197 442,189 442,182 442,174 444,167 446,161 450,156 450,156 455,166 457,175 458,184 459,192 459,200 459,207 458,214 456,221 453,227" fill="url(#pyaproq1)" stroke="#4c5b40" stroke-width="0.7" stroke-linejoin="round"/><polygon points="391,281 393,283 393,269 391,268" fill="url(#poq1)" stroke="#dbd8d1" stroke-width="0.7" stroke-linejoin="round"/><polygon points="393,283 395,281 395,268 393,269" fill="url(#poq2)" stroke="#c8c4bb" stroke-width="0.7" stroke-linejoin="round"/><polygon points="393,267 395,268 393,269 391,268" fill="url(#poq0)" stroke="#e8e6e2" stroke-width="0.7" stroke-linejoin="round"/><polygon points="391,268 393,269 393,261 391,260" fill="url(#ptana1)" stroke="#958a78" stroke-width="0.7" stroke-linejoin="round"/><polygon points="393,269 394,268 394,260 393,261" fill="url(#ptana2)" stroke="#7a7060" stroke-width="0.7" stroke-linejoin="round"/><polygon points="393,259 394,260 393,261 391,260" fill="url(#ptana0)" stroke="#a79c89" stroke-width="0.7" stroke-linejoin="round"/><polygon points="395,260 397,252 399,245 399,238 400,232 400,225 399,219 398,213 396,208 393,204 393,204 389,212 387,220 386,227 385,233 385,240 386,246 387,252 388,257 390,263" fill="url(#pbarg2)" stroke="#425038" stroke-width="0.7" stroke-linejoin="round"/><polygon points="390,260 388,252 387,245 386,238 385,232 385,225 386,219 387,213 389,208 393,204 393,204 396,212 398,220 399,227 400,233 400,240 399,246 399,252 397,257 395,263" fill="url(#pyaproq1)" stroke="#4c5b40" stroke-width="0.7" stroke-linejoin="round"/><polygon points="160,184 160,185 160,185 160,185 159,185 159,185 158,185 158,185 158,185 157,185 157,185 157,184 157,128 157,128 157,128 158,128 158,129 158,129 159,129 159,129 160,128 160,128 160,128 160,128" fill="url(#pmetall1)" stroke="#a9ada9" stroke-width="0.7" stroke-linejoin="round"/><polygon points="160,128 159,129 159,129 158,129 158,129 157,128 157,128 157,128 157,127 158,127 158,127 159,127 159,127 160,127 160,127 160,128 160,128 160,128 160,128" fill="url(#pmetall0)" stroke="#bcc0bc" stroke-width="0.7" stroke-linejoin="round"/><polygon points="154,133 161,137 161,132 154,128" fill="url(#poq1)" stroke="#dbd8d1" stroke-width="0.7" stroke-linejoin="round"/><polygon points="161,137 165,134 165,130 161,132" fill="url(#poq2)" stroke="#c8c4bb" stroke-width="0.7" stroke-linejoin="round"/><polygon points="158,126 165,130 161,132 154,128" fill="url(#poq0)" stroke="#e8e6e2" stroke-width="0.7" stroke-linejoin="round"/><polygon points="161,135 166,140 170,137 165,133" fill="url(#pqoraMetall0)" stroke="#6b726d" stroke-width="0.7" stroke-linejoin="round"/></svg>