<svg xmlns="http://www.w3.org/2000/svg" viewBox="0 0 640 360" width="640" height="360" role="img" aria-label="Omborxona"><defs><linearGradient id="poq1" x1="0" y1="0" x2="0" y2="1"><stop offset="0" stop-color="#f9f6ef"/><stop offset="1" stop-color="#dedbd4"/></linearGradient><linearGradient id="poq2" x1="0" y1="0" x2="0" y2="1"><stop offset="0" stop-color="#e6e2d9"/><stop offset="1" stop-color="#cbc7be"/></linearGradient><linearGradient id="pyer0" x1="0" y1="0" x2="0" y2="1"><stop offset="0" stop-color="#f3efe5"/><stop offset="1" stop-color="#ebe7dd"/></linearGradient><linearGradient id="pasfalt0" x1="0" y1="0" x2="0" y2="1"><stop offset="0" stop-color="#ccc9c2"/><stop offset="1" stop-color="#c4c1ba"/></linearGradient><linearGradient id="psilikat1" x1="0" y1="0" x2="0" y2="1"><stop offset="0" stop-color="#e6e4db"/><stop offset="1" stop-color="#cbc9c0"/></linearGradient><linearGradient id="psilikat2" x1="0" y1="0" x2="0" y2="1"><stop offset="0" stop-color="#cdcbc1"/><stop offset="1" stop-color="#b2b0a6"/></linearGradient><linearGradient id="pkokTom1" x1="0" y1="0" x2="0" y2="1"><stop offset="0" stop-color="#829dac"/><stop offset="1" stop-color="#678291"/></linearGradient><linearGradient id="pkokTom2" x1="0" y1="0" x2="0" y2="1"><stop offset="0" stop-color="#6a8393"/><stop offset="1" stop-color="#4f6878"/></linearGradient><linearGradient id="pbeton0" x1="0" y1="0" x2="0" y2="1"><stop offset="0" stop-color="#e4e1d9"/><stop offset="1" stop-color="#dcd9d1"/></linearGradient><linearGradient id="poyna2" x1="0" y1="0" x2="0" y2="1"><stop offset="0" stop-color="#98aeb8"/><stop offset="1" stop-color="#7d939d"/></linearGradient><linearGradient id="pdarvoza2" x1="0" y1="0" x2="0" y2="1"><stop offset="0" stop-color="#436248"/><stop offset="1" stop-color="#28472d"/></linearGradient><linearGradient id="pbeton1" x1="0" y1="0" x2="0" y2="1"><stop offset="0" stop-color="#d8d5cd"/><stop offset="1" stop-color="#bdbab2"/></linearGradient><linearGradient id="pqoraMetall1" x1="0" y1="0" x2="0" y2="1"><stop offset="0" stop-color="#787f7a"/><stop offset="1" stop-color="#5d645f"/></linearGradient><linearGradient id="pbeton2" x1="0" y1="0" x2="0" y2="1"><stop offset="0" stop-color="#bebbb3"/><stop offset="1" stop-color="#a3a098"/></linearGradient><linearGradient id="pqizil1" x1="0" y1="0" x2="0" y2="1"><stop offset="0" stop-color="#aa594b"/><stop offset="1" stop-color="#8f3e30"/></linearGradient><linearGradient id="pqizil2" x1="0" y1="0" x2="0" y2="1"><stop offset="0" stop-color="#914b3f"/><stop offset="1" stop-color="#763024"/></linearGradient><linearGradient id="pqizil0" x1="0" y1="0" x2="0" y2="1"><stop offset="0" stop-color="#ba5e4e"/><stop offset="1" stop-color="#b25646"/></linearGradient><linearGradient id="ptana1" x1="0" y1="0" x2="0" y2="1"><stop offset="0" stop-color="#b3a896"/><stop offset="1" stop-color="#988d7b"/></linearGradient><linearGradient id="ptana2" x1="0" y1="0" x2="0" y2="1"><stop offset="0" stop-color="#988e7e"/><stop offset="1" stop-color="#7d7363"/></linearGradient><linearGradient id="ptana0" x1="0" y1="0" x2="0" y2="1"><stop offset="0" stop-color="#bfb4a1"/><stop offset="1" stop-color="#b7ac99"/></linearGradient><linearGradient id="pmetall1" x1="0" y1="0" x2="0" y2="1"><stop offset="0" stop-color="#c7cbc7"/><stop offset="1" stop-color="#acb0ac"/></linearGradient><linearGradient id="pmetall0" x1="0" y1="0" x2="0" y2="1"><stop offset="0" stop-color="#d4d8d4"/><stop offset="1" stop-color="#ccd0cc"/></linearGradient><linearGradient id="poq0" x1="0" y1="0" x2="0" y2="1"><stop offset="0" stop-color="#fffefa"/><stop offset="1" stop-color="#f8f6f2"/></linearGradient><linearGradient id="pqoraMetall0" x1="0" y1="0" x2="0" y2="1"><stop offset="0" stop-color="#838a85"/><stop offset="1" stop-color="#7b827d"/></linearGradient><linearGradient id="pkok0" x1="0" y1="0" x2="0" y2="1"><stop offset="0" stop-color="#648398"/><stop offset="1" stop-color="#5c7b90"/></linearGradient><filter id="soya" x="-30%" y="-30%" width="160%" height="180%"><feGaussianBlur stdDeviation="14.1"/></filter></defs><rect width="640" height="360" fill="#FFFFFF"/><g filter="url(#soya)" opacity="0.17"><polygon points="272,39 585,221 368,346 55,165" fill="#3C3A33" stroke="none" stroke-width="0" stroke-linejoin="round"/></g><polygon points="55,160 368,341 368,336 55,155" fill="url(#poq1)" stroke="#dbd8d1" stroke-width="0.6" stroke-linejoin="round"/><polygon points="368,341 585,216 585,211 368,336" fill="url(#poq2)" stroke="#c8c4bb" stroke-width="0.6" stroke-linejoin="round"/><polygon points="272,30 585,211 368,336 55,155" fill="url(#pyer0)" stroke="#dbd7cd" stroke-width="0.6" stroke-linejoin="round"/><polyline points="272,38 571,211 368,328 69,155 272,38" fill="none" stroke="#8F897C" stroke-width="0.7" opacity="0.3" stroke-dasharray="4 4"/><polygon points="133,127 409,286 361,314 86,155" fill="url(#pasfalt0)" stroke="#b4b1aa" stroke-width="0.5" stroke-linejoin="round"/><polygon points="182,126 378,239 378,190 182,77" fill="url(#psilikat1)" stroke="#c8c6bd" stroke-width="0.7" stroke-linejoin="round"/><polygon points="378,239 484,178 484,128 378,190" fill="url(#psilikat2)" stroke="#afada3" stroke-width="0.7" stroke-linejoin="round"/><polygon points="170,77 378,197 437,136 229,16" fill="url(#pkokTom1)" stroke="#647f8e" stroke-width="0.7" stroke-linejoin="round"/><polygon points="378,197 437,136 497,128" fill="url(#pkokTom2)" stroke="#4c6575" stroke-width="0.7" stroke-linejoin="round"/><polygon points="170,77 170,79 378,199 378,197" fill="url(#pkokTom2)" stroke="#4c6575" stroke-width="0.7" stroke-linejoin="round"/><polyline points="175,72 383,192" fill="none" stroke="#6F6A60" stroke-width="0.5" opacity="0.16"/><polyline points="180,67 388,187" fill="none" stroke="#6F6A60" stroke-width="0.5" opacity="0.16"/><polyline points="184,62 393,182" fill="none" stroke="#6F6A60" stroke-width="0.5" opacity="0.16"/><polyline points="189,57 398,177" fill="none" stroke="#6F6A60" stroke-width="0.5" opacity="0.16"/><polyline points="194,52 402,172" fill="none" stroke="#6F6A60" stroke-width="0.5" opacity="0.16"/><polyline points="199,47 407,167" fill="none" stroke="#6F6A60" stroke-width="0.5" opacity="0.16"/><polyline points="204,42 412,162" fill="none" stroke="#6F6A60" stroke-width="0.5" opacity="0.16"/><polyline points="209,37 417,157" fill="none" stroke="#6F6A60" stroke-width="0.5" opacity="0.16"/><polyline points="214,32 422,152" fill="none" stroke="#6F6A60" stroke-width="0.5" opacity="0.16"/><polyline points="218,27 427,147" fill="none" stroke="#6F6A60" stroke-width="0.5" opacity="0.16"/><polyline points="223,22 432,142" fill="none" stroke="#6F6A60" stroke-width="0.5" opacity="0.16"/><polyline points="228,17 437,137" fill="none" stroke="#6F6A60" stroke-width="0.5" opacity="0.16"/><polygon points="227,17 436,138 436,136 227,16" fill="url(#pkokTom1)" stroke="#647f8e" stroke-width="0.7" stroke-linejoin="round"/><polygon points="436,138 439,136 439,135 436,136" fill="url(#pkokTom2)" stroke="#4c6575" stroke-width="0.7" stroke-linejoin="round"/><polygon points="230,14 439,135 436,136 227,16" fill="url(#pbeton0)" stroke="#ccc9c1" stroke-width="0.7" stroke-linejoin="round"/><polygon points="386,196 397,189 397,184 386,190" fill="url(#poyna2)" stroke="#7a909a" stroke-width="0.7" stroke-linejoin="round"/><polygon points="385,197 398,190 398,189 385,197" fill="url(#poq2)" stroke="#c8c4bb" stroke-width="0.7" stroke-linejoin="round"/><polygon points="412,181 424,174 424,168 412,175" fill="url(#poyna2)" stroke="#7a909a" stroke-width="0.7" stroke-linejoin="round"/><polygon points="411,182 425,174 425,173 411,181" fill="url(#poq2)" stroke="#c8c4bb" stroke-width="0.7" stroke-linejoin="round"/><polygon points="439,165 450,159 450,153 439,160" fill="url(#poyna2)" stroke="#7a909a" stroke-width="0.7" stroke-linejoin="round"/><polygon points="438,167 451,159 451,158 438,166" fill="url(#poq2)" stroke="#c8c4bb" stroke-width="0.7" stroke-linejoin="round"/><polygon points="465,150 477,143 477,138 465,144" fill="url(#poyna2)" stroke="#7a909a" stroke-width="0.7" stroke-linejoin="round"/><polygon points="464,151 478,144 478,143 464,150" fill="url(#poq2)" stroke="#c8c4bb" stroke-width="0.7" stroke-linejoin="round"/><polygon points="414,204 425,198 425,176 414,182" fill="url(#pdarvoza2)" stroke="#25442a" stroke-width="0.7" stroke-linejoin="round"/><polygon points="198,123 246,151 246,114 198,86" fill="url(#pbeton1)" stroke="#bab7af" stroke-width="0.7" stroke-linejoin="round"/><polygon points="200,124 244,150 244,115 200,89" fill="url(#pqoraMetall1)" stroke="#5a615c" stroke-width="0.7" stroke-linejoin="round"/><polyline points="200,121 244,146" fill="none" stroke="#CDD1CD" stroke-width="0.6" opacity="0.4"/><polyline points="200,117 244,143" fill="none" stroke="#CDD1CD" stroke-width="0.6" opacity="0.4"/><polyline points="200,114 244,139" fill="none" stroke="#CDD1CD" stroke-width="0.6" opacity="0.4"/><polyline points="200,110 244,136" fill="none" stroke="#CDD1CD" stroke-width="0.6" opacity="0.4"/><polyline points="200,107 244,132" fill="none" stroke="#CDD1CD" stroke-width="0.6" opacity="0.4"/><polyline points="200,103 244,129" fill="none" stroke="#CDD1CD" stroke-width="0.6" opacity="0.4"/><polyline points="200,100 244,125" fill="none" stroke="#CDD1CD" stroke-width="0.6" opacity="0.4"/><polyline points="200,96 244,122" fill="none" stroke="#CDD1CD" stroke-width="0.6" opacity="0.4"/><polyline points="200,93 244,119" fill="none" stroke="#CDD1CD" stroke-width="0.6" opacity="0.4"/><polygon points="294,179 342,206 342,170 294,142" fill="url(#pbeton1)" stroke="#bab7af" stroke-width="0.7" stroke-linejoin="round"/><polygon points="296,180 340,205 340,170 296,145" fill="url(#pqoraMetall1)" stroke="#5a615c" stroke-width="0.7" stroke-linejoin="round"/><polyline points="296,176 340,202" fill="none" stroke="#CDD1CD" stroke-width="0.6" opacity="0.4"/><polyline points="296,173 340,198" fill="none" stroke="#CDD1CD" stroke-width="0.6" opacity="0.4"/><polyline points="296,169 340,195" fill="none" stroke="#CDD1CD" stroke-width="0.6" opacity="0.4"/><polyline points="296,166 340,191" fill="none" stroke="#CDD1CD" stroke-width="0.6" opacity="0.4"/><polyline points="296,162 340,188" fill="none" stroke="#CDD1CD" stroke-width="0.6" opacity="0.4"/><polyline points="296,159 340,184" fill="none" stroke="#CDD1CD" stroke-width="0.6" opacity="0.4"/><polyline points="296,155 340,181" fill="none" stroke="#CDD1CD" stroke-width="0.6" opacity="0.4"/><polyline points="296,152 340,177" fill="none" stroke="#CDD1CD" stroke-width="0.6" opacity="0.4"/><polyline points="296,148 340,174" fill="none" stroke="#CDD1CD" stroke-width="0.6" opacity="0.4"/><polygon points="155,139 356,255 356,243 155,127" fill="url(#pbeton1)" stroke="#bab7af" stroke-width="0.7" stroke-linejoin="round"/><polygon points="356,255 380,240 380,228 356,243" fill="url(#pbeton2)" stroke="#a09d95" stroke-width="0.7" stroke-linejoin="round"/><polygon points="180,113 380,228 356,243 155,127" fill="url(#pbeton0)" stroke="#ccc9c1" stroke-width="0.7" stroke-linejoin="round"/><polyline points="193,161 193,149" fill="none" stroke="#6F6A60" stroke-width="0.6" opacity="0.2"/><polyline points="228,181 228,169" fill="none" stroke="#6F6A60" stroke-width="0.6" opacity="0.2"/><polyline points="264,202 264,190" fill="none" stroke="#6F6A60" stroke-width="0.6" opacity="0.2"/><polyline points="299,222 299,210" fill="none" stroke="#6F6A60" stroke-width="0.6" opacity="0.2"/><polyline points="335,242 335,231" fill="none" stroke="#6F6A60" stroke-width="0.6" opacity="0.2"/><polygon points="460,204 513,235 513,208 460,178" fill="url(#pqizil1)" stroke="#8c3b2d" stroke-width="0.7" stroke-linejoin="round"/><polygon points="513,235 535,222 535,195 513,208" fill="url(#pqizil2)" stroke="#732d21" stroke-width="0.7" stroke-linejoin="round"/><polygon points="482,165 535,195 513,208 460,178" fill="url(#pqizil0)" stroke="#a24636" stroke-width="0.7" stroke-linejoin="round"/><polyline points="467,209 467,182" fill="none" stroke="#6F6A60" stroke-width="0.6" opacity="0.28"/><polyline points="475,213 475,186" fill="none" stroke="#6F6A60" stroke-width="0.6" opacity="0.28"/><polyline points="482,217 482,191" fill="none" stroke="#6F6A60" stroke-width="0.6" opacity="0.28"/><polyline points="490,222 490,195" fill="none" stroke="#6F6A60" stroke-width="0.6" opacity="0.28"/><polyline points="497,226 497,199" fill="none" stroke="#6F6A60" stroke-width="0.6" opacity="0.28"/><polyline points="505,230 505,204" fill="none" stroke="#6F6A60" stroke-width="0.6" opacity="0.28"/><polygon points="200,184 211,190 211,180 200,173" fill="url(#ptana1)" stroke="#958a78" stroke-width="0.7" stroke-linejoin="round"/><polygon points="211,190 222,184 222,173 211,180" fill="url(#ptana2)" stroke="#7a7060" stroke-width="0.7" stroke-linejoin="round"/><polygon points="211,167 222,173 211,180 200,173" fill="url(#ptana0)" stroke="#a79c89" stroke-width="0.7" stroke-linejoin="round"/><polygon points="211,192 222,199 222,193 211,186" fill="url(#ptana1)" stroke="#958a78" stroke-width="0.7" stroke-linejoin="round"/><polygon points="222,199 233,192 233,186 222,193" fill="url(#ptana2)" stroke="#7a7060" stroke-width="0.7" stroke-linejoin="round"/><polygon points="222,180 233,186 222,193 211,186" fill="url(#ptana0)" stroke="#a79c89" stroke-width="0.7" stroke-linejoin="round"/><polygon points="389,281 389,281 388,281 388,282 388,282 387,282 387,282 386,282 386,282 386,281 385,281 385,281 385,220 385,220 386,220 386,220 386,220 387,220 387,220 388,220 388,220 388,220 389,220 389,220" fill="url(#pmetall1)" stroke="#a9ada9" stroke-width="0.7" stroke-linejoin="round"/><polygon points="388,220 388,220 387,220 387,220 386,220 386,220 385,220 385,219 385,219 386,219 386,219 387,219 387,219 388,219 388,219 389,219 389,220 388,220 388,220" fill="url(#pmetall0)" stroke="#bcc0bc" stroke-width="0.7" stroke-linejoin="round"/><polygon points="383,224 389,228 389,224 383,220" fill="url(#poq1)" stroke="#dbd8d1" stroke-width="0.7" stroke-linejoin="round"/><polygon points="389,228 393,226 393,222 389,224" fill="url(#poq2)" stroke="#c8c4bb" stroke-width="0.7" stroke-linejoin="round"/><polygon points="386,218 393,222 389,224 383,220" fill="url(#poq0)" stroke="#e8e6e2" stroke-width="0.7" stroke-linejoin="round"/><polygon points="389,226 394,231 398,229 393,224" fill="url(#pqoraMetall0)" stroke="#6b726d" stroke-width="0.7" stroke-linejoin="round"/><polygon points="375,211 390,214 375,222 360,219" fill="url(#pkok0)" stroke="#4c6b80" stroke-width="0.7" stroke-linejoin="round"/></svg>