<svg xmlns="http://www.w3.org/2000/svg" viewBox="0 0 640 360" width="640" height="360" role="img" aria-label="Ishlab chiqarish sexi"><defs><linearGradient id="poq1" x1="0" y1="0" x2="0" y2="1"><stop offset="0" stop-color="#f9f6ef"/><stop offset="1" stop-color="#dedbd4"/></linearGradient><linearGradient id="poq2" x1="0" y1="0" x2="0" y2="1"><stop offset="0" stop-color="#e6e2d9"/><stop offset="1" stop-color="#cbc7be"/></linearGradient><linearGradient id="pyer0" x1="0" y1="0" x2="0" y2="1"><stop offset="0" stop-color="#f3efe5"/><stop offset="1" stop-color="#ebe7dd"/></linearGradient><linearGradient id="psilikat1" x1="0" y1="0" x2="0" y2="1"><stop offset="0" stop-color="#e6e4db"/><stop offset="1" stop-color="#cbc9c0"/></linearGradient><linearGradient id="psilikat2" x1="0" y1="0" x2="0" y2="1"><stop offset="0" stop-color="#cdcbc1"/><stop offset="1" stop-color="#b2b0a6"/></linearGradient><linearGradient id="pkokTom0" x1="0" y1="0" x2="0" y2="1"><stop offset="0" stop-color="#91adbf"/><stop offset="1" stop-color="#89a5b7"/></linearGradient><linearGradient id="pkokTom2" x1="0" y1="0" x2="0" y2="1"><stop offset="0" stop-color="#6a8393"/><stop offset="1" stop-color="#4f6878"/></linearGradient><linearGradient id="pkokTom1" x1="0" y1="0" x2="0" y2="1"><stop offset="0" stop-color="#829dac"/><stop offset="1" stop-color="#678291"/></linearGradient><linearGradient id="ptunOyna2" x1="0" y1="0" x2="0" y2="1"><stop offset="0" stop-color="#596971"/><stop offset="1" stop-color="#3e4e56"/></linearGradient><linearGradient id="pmetall1" x1="0" y1="0" x2="0" y2="1"><stop offset="0" stop-color="#c7cbc7"/><stop offset="1" stop-color="#acb0ac"/></linearGradient><linearGradient id="pdarvoza1" x1="0" y1="0" x2="0" y2="1"><stop offset="0" stop-color="#527657"/><stop offset="1" stop-color="#375b3c"/></linearGradient><linearGradient id="poyna1" x1="0" y1="0" x2="0" y2="1"><stop offset="0" stop-color="#b0c5ce"/><stop offset="1" stop-color="#95aab3"/></linearGradient><linearGradient id="poyna2" x1="0" y1="0" x2="0" y2="1"><stop offset="0" stop-color="#98aeb8"/><stop offset="1" stop-color="#7d939d"/></linearGradient><linearGradient id="psuvoq1" x1="0" y1="0" x2="0" y2="1"><stop offset="0" stop-color="#f3ede1"/><stop offset="1" stop-color="#d8d2c6"/></linearGradient><linearGradient id="psuvoq2" x1="0" y1="0" x2="0" y2="1"><stop offset="0" stop-color="#ded6c7"/><stop offset="1" stop-color="#c3bbac"/></linearGradient><linearGradient id="pmetall0" x1="0" y1="0" x2="0" y2="1"><stop offset="0" stop-color="#d4d8d4"/><stop offset="1" stop-color="#ccd0cc"/></linearGradient><linearGradient id="pasfalt1" x1="0" y1="0" x2="0" y2="1"><stop offset="0" stop-color="#c1beb7"/><stop offset="1" stop-color="#a6a39c"/></linearGradient><linearGradient id="pasfalt2" x1="0" y1="0" x2="0" y2="1"><stop offset="0" stop-color="#a8a59e"/><stop offset="1" stop-color="#8d8a83"/></linearGradient><linearGradient id="pasfalt0" x1="0" y1="0" x2="0" y2="1"><stop offset="0" stop-color="#ccc9c2"/><stop offset="1" stop-color="#c4c1ba"/></linearGradient><linearGradient id="poq0" x1="0" y1="0" x2="0" y2="1"><stop offset="0" stop-color="#fffefa"/><stop offset="1" stop-color="#f8f6f2"/></linearGradient><linearGradient id="pqoraMetall0" x1="0" y1="0" x2="0" y2="1"><stop offset="0" stop-color="#838a85"/><stop offset="1" stop-color="#7b827d"/></linearGradient><linearGradient id="pkok0" x1="0" y1="0" x2="0" y2="1"><stop offset="0" stop-color="#648398"/><stop offset="1" stop-color="#5c7b90"/></linearGradient><filter id="soya" x="-30%" y="-30%" width="160%" height="180%"><feGaussianBlur stdDeviation="14.1"/></filter></defs><rect width="640" height="360" fill="#FFFFFF"/><g filter="url(#soya)" opacity="0.17"><polygon points="266,80 550,244 374,346 90,182" fill="#3C3A33" stroke="none" stroke-width="0" stroke-linejoin="round"/></g><polygon points="90,177 374,341 374,337 90,173" fill="url(#poq1)" stroke="#dbd8d1" stroke-width="0.6" stroke-linejoin="round"/><polygon points="374,341 550,239 550,235 374,337" fill="url(#poq2)" stroke="#c8c4bb" stroke-width="0.6" stroke-linejoin="round"/><polygon points="266,71 550,235 374,337 90,173" fill="url(#pyer0)" stroke="#dbd7cd" stroke-width="0.6" stroke-linejoin="round"/><polyline points="266,79 537,235 374,329 103,173 266,79" fill="none" stroke="#8F897C" stroke-width="0.7" opacity="0.3" stroke-dasharray="4 4"/><polygon points="172,157 361,266 361,207 172,98" fill="url(#psilikat1)" stroke="#c8c6bd" stroke-width="0.7" stroke-linejoin="round"/><polygon points="361,266 468,204 468,145 361,207" fill="url(#psilikat2)" stroke="#afada3" stroke-width="0.7" stroke-linejoin="round"/><polygon points="280,14 327,41 219,125 172,98" fill="url(#pkokTom0)" stroke="#7995a7" stroke-width="0.7" stroke-linejoin="round"/><polygon points="327,41 219,125 219,127 327,43" fill="url(#pkokTom2)" stroke="#4c6575" stroke-width="0.7" stroke-linejoin="round"/><polygon points="172,98 219,125 219,127 172,100" fill="url(#pkokTom1)" stroke="#647f8e" stroke-width="0.7" stroke-linejoin="round"/><polyline points="285,17 177,101" fill="none" stroke="#6F6A60" stroke-width="0.5" opacity="0.14"/><polyline points="290,20 182,104" fill="none" stroke="#6F6A60" stroke-width="0.5" opacity="0.14"/><polyline points="294,23 187,107" fill="none" stroke="#6F6A60" stroke-width="0.5" opacity="0.14"/><polyline points="299,25 192,110" fill="none" stroke="#6F6A60" stroke-width="0.5" opacity="0.14"/><polyline points="304,28 197,112" fill="none" stroke="#6F6A60" stroke-width="0.5" opacity="0.14"/><polyline points="309,31 202,115" fill="none" stroke="#6F6A60" stroke-width="0.5" opacity="0.14"/><polyline points="314,34 207,118" fill="none" stroke="#6F6A60" stroke-width="0.5" opacity="0.14"/><polyline points="319,37 212,121" fill="none" stroke="#6F6A60" stroke-width="0.5" opacity="0.14"/><polyline points="324,40 217,124" fill="none" stroke="#6F6A60" stroke-width="0.5" opacity="0.14"/><polygon points="172,98 172,76 219,125" fill="url(#psilikat1)" stroke="#c8c6bd" stroke-width="0.7" stroke-linejoin="round"/><polygon points="280,14 172,76 172,98 280,36" fill="url(#ptunOyna2)" stroke="#3b4b53" stroke-width="0.7" stroke-linejoin="round"/><polygon points="327,41 374,69 266,153 219,125" fill="url(#pkokTom0)" stroke="#7995a7" stroke-width="0.7" stroke-linejoin="round"/><polygon points="374,69 266,153 266,155 374,70" fill="url(#pkokTom2)" stroke="#4c6575" stroke-width="0.7" stroke-linejoin="round"/><polygon points="219,125 266,153 266,155 219,127" fill="url(#pkokTom1)" stroke="#647f8e" stroke-width="0.7" stroke-linejoin="round"/><polyline points="332,44 224,128" fill="none" stroke="#6F6A60" stroke-width="0.5" opacity="0.14"/><polyline points="337,47 229,131" fill="none" stroke="#6F6A60" stroke-width="0.5" opacity="0.14"/><polyline points="342,50 234,134" fill="none" stroke="#6F6A60" stroke-width="0.5" opacity="0.14"/><polyline points="347,53 239,137" fill="none" stroke="#6F6A60" stroke-width="0.5" opacity="0.14"/><polyline points="352,56 244,140" fill="none" stroke="#6F6A60" stroke-width="0.5" opacity="0.14"/><polyline points="357,58 249,143" fill="none" stroke="#6F6A60" stroke-width="0.5" opacity="0.14"/><polyline points="362,61 254,145" fill="none" stroke="#6F6A60" stroke-width="0.5" opacity="0.14"/><polyline points="367,64 259,148" fill="none" stroke="#6F6A60" stroke-width="0.5" opacity="0.14"/><polyline points="372,67 264,151" fill="none" stroke="#6F6A60" stroke-width="0.5" opacity="0.14"/><polygon points="219,125 219,103 266,153" fill="url(#psilikat1)" stroke="#c8c6bd" stroke-width="0.7" stroke-linejoin="round"/><polygon points="327,41 219,103 219,125 327,63" fill="url(#ptunOyna2)" stroke="#3b4b53" stroke-width="0.7" stroke-linejoin="round"/><polygon points="374,69 421,96 314,180 266,153" fill="url(#pkokTom0)" stroke="#7995a7" stroke-width="0.7" stroke-linejoin="round"/><polygon points="421,96 314,180 314,182 421,98" fill="url(#pkokTom2)" stroke="#4c6575" stroke-width="0.7" stroke-linejoin="round"/><polygon points="266,153 314,180 314,182 266,155" fill="url(#pkokTom1)" stroke="#647f8e" stroke-width="0.7" stroke-linejoin="round"/><polyline points="379,71 271,156" fill="none" stroke="#6F6A60" stroke-width="0.5" opacity="0.14"/><polyline points="384,74 276,158" fill="none" stroke="#6F6A60" stroke-width="0.5" opacity="0.14"/><polyline points="389,77 281,161" fill="none" stroke="#6F6A60" stroke-width="0.5" opacity="0.14"/><polyline points="394,80 286,164" fill="none" stroke="#6F6A60" stroke-width="0.5" opacity="0.14"/><polyline points="399,83 291,167" fill="none" stroke="#6F6A60" stroke-width="0.5" opacity="0.14"/><polyline points="404,86 296,170" fill="none" stroke="#6F6A60" stroke-width="0.5" opacity="0.14"/><polyline points="409,89 301,173" fill="none" stroke="#6F6A60" stroke-width="0.5" opacity="0.14"/><polyline points="414,91 306,176" fill="none" stroke="#6F6A60" stroke-width="0.5" opacity="0.14"/><polyline points="419,94 311,178" fill="none" stroke="#6F6A60" stroke-width="0.5" opacity="0.14"/><polygon points="266,153 266,131 314,180" fill="url(#psilikat1)" stroke="#c8c6bd" stroke-width="0.7" stroke-linejoin="round"/><polygon points="374,69 266,131 266,153 374,91" fill="url(#ptunOyna2)" stroke="#3b4b53" stroke-width="0.7" stroke-linejoin="round"/><polygon points="421,96 468,123 361,207 314,180" fill="url(#pkokTom0)" stroke="#7995a7" stroke-width="0.7" stroke-linejoin="round"/><polygon points="468,123 361,207 361,209 468,125" fill="url(#pkokTom2)" stroke="#4c6575" stroke-width="0.7" stroke-linejoin="round"/><polygon points="314,180 361,207 361,209 314,182" fill="url(#pkokTom1)" stroke="#647f8e" stroke-width="0.7" stroke-linejoin="round"/><polyline points="426,99 319,183" fill="none" stroke="#6F6A60" stroke-width="0.5" opacity="0.14"/><polyline points="431,102 324,186" fill="none" stroke="#6F6A60" stroke-width="0.5" opacity="0.14"/><polyline points="436,104 329,189" fill="none" stroke="#6F6A60" stroke-width="0.5" opacity="0.14"/><polyline points="441,107 333,191" fill="none" stroke="#6F6A60" stroke-width="0.5" opacity="0.14"/><polyline points="446,110 338,194" fill="none" stroke="#6F6A60" stroke-width="0.5" opacity="0.14"/><polyline points="451,113 343,197" fill="none" stroke="#6F6A60" stroke-width="0.5" opacity="0.14"/><polyline points="456,116 348,200" fill="none" stroke="#6F6A60" stroke-width="0.5" opacity="0.14"/><polyline points="461,119 353,203" fill="none" stroke="#6F6A60" stroke-width="0.5" opacity="0.14"/><polyline points="466,122 358,206" fill="none" stroke="#6F6A60" stroke-width="0.5" opacity="0.14"/><polygon points="314,180 314,158 361,207" fill="url(#psilikat1)" stroke="#c8c6bd" stroke-width="0.7" stroke-linejoin="round"/><polygon points="361,207 468,145 468,123" fill="url(#psilikat2)" stroke="#afada3" stroke-width="0.7" stroke-linejoin="round"/><polygon points="421,96 314,158 314,180 421,118" fill="url(#ptunOyna2)" stroke="#3b4b53" stroke-width="0.7" stroke-linejoin="round"/><polygon points="195,170 231,192 231,149 195,128" fill="url(#pmetall1)" stroke="#a9ada9" stroke-width="0.7" stroke-linejoin="round"/><polyline points="195,169 231,190" fill="none" stroke="#6F6A60" stroke-width="0.5" opacity="0.3"/><polyline points="195,165 231,186" fill="none" stroke="#6F6A60" stroke-width="0.5" opacity="0.3"/><polyline points="195,161 231,182" fill="none" stroke="#6F6A60" stroke-width="0.5" opacity="0.3"/><polyline points="195,157 231,178" fill="none" stroke="#6F6A60" stroke-width="0.5" opacity="0.3"/><polyline points="195,153 231,174" fill="none" stroke="#6F6A60" stroke-width="0.5" opacity="0.3"/><polyline points="195,149 231,170" fill="none" stroke="#6F6A60" stroke-width="0.5" opacity="0.3"/><polyline points="195,144 231,166" fill="none" stroke="#6F6A60" stroke-width="0.5" opacity="0.3"/><polyline points="195,140 231,162" fill="none" stroke="#6F6A60" stroke-width="0.5" opacity="0.3"/><polyline points="195,136 231,157" fill="none" stroke="#6F6A60" stroke-width="0.5" opacity="0.3"/><polyline points="195,132 231,153" fill="none" stroke="#6F6A60" stroke-width="0.5" opacity="0.3"/><polygon points="289,225 299,231 299,208 289,202" fill="url(#pdarvoza1)" stroke="#345839" stroke-width="0.7" stroke-linejoin="round"/><polygon points="179,112 191,119 191,113 179,106" fill="url(#poyna1)" stroke="#92a7b0" stroke-width="0.7" stroke-linejoin="round"/><polygon points="179,112 192,120 192,119 179,112" fill="url(#poq1)" stroke="#dbd8d1" stroke-width="0.7" stroke-linejoin="round"/><polygon points="206,128 218,134 218,129 206,122" fill="url(#poyna1)" stroke="#92a7b0" stroke-width="0.7" stroke-linejoin="round"/><polygon points="206,128 219,136 219,135 206,127" fill="url(#poq1)" stroke="#dbd8d1" stroke-width="0.7" stroke-linejoin="round"/><polygon points="233,143 245,150 245,144 233,137" fill="url(#poyna1)" stroke="#92a7b0" stroke-width="0.7" stroke-linejoin="round"/><polygon points="233,144 246,151 246,150 233,143" fill="url(#poq1)" stroke="#dbd8d1" stroke-width="0.7" stroke-linejoin="round"/><polygon points="260,159 272,166 272,160 260,153" fill="url(#poyna1)" stroke="#92a7b0" stroke-width="0.7" stroke-linejoin="round"/><polygon points="260,159 273,167 273,166 260,158" fill="url(#poq1)" stroke="#dbd8d1" stroke-width="0.7" stroke-linejoin="round"/><polygon points="287,174 299,181 299,175 287,169" fill="url(#poyna1)" stroke="#92a7b0" stroke-width="0.7" stroke-linejoin="round"/><polygon points="287,175 300,182 300,182 287,174" fill="url(#poq1)" stroke="#dbd8d1" stroke-width="0.7" stroke-linejoin="round"/><polygon points="314,190 326,197 326,191 314,184" fill="url(#poyna1)" stroke="#92a7b0" stroke-width="0.7" stroke-linejoin="round"/><polygon points="314,190 327,198 327,197 314,189" fill="url(#poq1)" stroke="#dbd8d1" stroke-width="0.7" stroke-linejoin="round"/><polygon points="341,205 353,212 353,207 341,200" fill="url(#poyna1)" stroke="#92a7b0" stroke-width="0.7" stroke-linejoin="round"/><polygon points="341,206 354,214 354,213 341,205" fill="url(#poq1)" stroke="#dbd8d1" stroke-width="0.7" stroke-linejoin="round"/><polygon points="368,240 380,233 380,220 368,227" fill="url(#poyna2)" stroke="#7a909a" stroke-width="0.7" stroke-linejoin="round"/><polygon points="368,241 381,233 381,232 368,240" fill="url(#poq2)" stroke="#c8c4bb" stroke-width="0.7" stroke-linejoin="round"/><polygon points="395,224 407,217 407,204 395,211" fill="url(#poyna2)" stroke="#7a909a" stroke-width="0.7" stroke-linejoin="round"/><polygon points="395,225 408,218 408,217 395,224" fill="url(#poq2)" stroke="#c8c4bb" stroke-width="0.7" stroke-linejoin="round"/><polygon points="422,209 434,202 434,189 422,196" fill="url(#poyna2)" stroke="#7a909a" stroke-width="0.7" stroke-linejoin="round"/><polygon points="421,210 435,202 435,201 421,209" fill="url(#poq2)" stroke="#c8c4bb" stroke-width="0.7" stroke-linejoin="round"/><polygon points="449,193 461,186 461,173 449,180" fill="url(#poyna2)" stroke="#7a909a" stroke-width="0.7" stroke-linejoin="round"/><polygon points="448,194 462,187 462,186 448,193" fill="url(#poq2)" stroke="#c8c4bb" stroke-width="0.7" stroke-linejoin="round"/><polygon points="432,241 469,262 469,230 432,208" fill="url(#psuvoq1)" stroke="#d5cfc3" stroke-width="0.7" stroke-linejoin="round"/><polygon points="469,262 507,241 507,208 469,230" fill="url(#psuvoq2)" stroke="#c0b8a9" stroke-width="0.7" stroke-linejoin="round"/><polygon points="469,177 510,201 469,232 429,208" fill="url(#pkokTom0)" stroke="#7995a7" stroke-width="0.7" stroke-linejoin="round"/><polygon points="510,201 469,232 469,233 510,202" fill="url(#pkokTom2)" stroke="#4c6575" stroke-width="0.7" stroke-linejoin="round"/><polygon points="429,208 469,232 469,233 429,210" fill="url(#pkokTom1)" stroke="#647f8e" stroke-width="0.7" stroke-linejoin="round"/><polyline points="474,180 434,211" fill="none" stroke="#6F6A60" stroke-width="0.5" opacity="0.14"/><polyline points="479,183 439,214" fill="none" stroke="#6F6A60" stroke-width="0.5" opacity="0.14"/><polyline points="484,186 444,217" fill="none" stroke="#6F6A60" stroke-width="0.5" opacity="0.14"/><polyline points="489,189 449,220" fill="none" stroke="#6F6A60" stroke-width="0.5" opacity="0.14"/><polyline points="494,191 454,222" fill="none" stroke="#6F6A60" stroke-width="0.5" opacity="0.14"/><polyline points="499,194 459,225" fill="none" stroke="#6F6A60" stroke-width="0.5" opacity="0.14"/><polyline points="504,197 464,228" fill="none" stroke="#6F6A60" stroke-width="0.5" opacity="0.14"/><polyline points="509,200 468,231" fill="none" stroke="#6F6A60" stroke-width="0.5" opacity="0.14"/><polygon points="423,266 423,267 422,268 421,268 420,269 419,269 417,269 416,269 415,268 414,268 413,267 413,266 413,161 413,162 414,162 415,163 416,164 417,164 419,164 420,164 421,163 422,162 423,162 423,161" fill="url(#pmetall1)" stroke="#a9ada9" stroke-width="0.7" stroke-linejoin="round"/><polygon points="422,163 420,164 418,164 417,164 415,163 414,163 413,162 413,161 413,160 414,159 416,158 418,158 419,158 421,158 422,159 423,160 423,161 423,162 422,163" fill="url(#pmetall0)" stroke="#bcc0bc" stroke-width="0.7" stroke-linejoin="round"/><polygon points="122,171 361,309 361,308 122,170" fill="url(#pasfalt1)" stroke="#a3a099" stroke-width="0.7" stroke-linejoin="round"/><polygon points="361,309 387,293 387,293 361,308" fill="url(#pasfalt2)" stroke="#8a8780" stroke-width="0.7" stroke-linejoin="round"/><polygon points="149,155 387,293 361,308 122,170" fill="url(#pasfalt0)" stroke="#b4b1aa" stroke-width="0.7" stroke-linejoin="round"/><polygon points="379,309 379,309 379,309 378,309 378,309 378,309 377,309 377,309 376,309 376,309 376,309 376,309 376,249 376,250 376,250 376,250 377,250 377,250 378,250 378,250 378,250 379,250 379,250 379,249" fill="url(#pmetall1)" stroke="#a9ada9" stroke-width="0.7" stroke-linejoin="round"/><polygon points="378,250 378,250 378,250 377,250 377,250 376,250 376,249 376,249 376,249 376,249 377,248 377,248 378,248 378,249 379,249 379,249 379,249 379,250 378,250" fill="url(#pmetall0)" stroke="#bcc0bc" stroke-width="0.7" stroke-linejoin="round"/><polygon points="373,254 380,257 380,253 373,250" fill="url(#poq1)" stroke="#dbd8d1" stroke-width="0.7" stroke-linejoin="round"/><polygon points="380,257 383,255 383,252 380,253" fill="url(#poq2)" stroke="#c8c4bb" stroke-width="0.7" stroke-linejoin="round"/><polygon points="377,248 383,252 380,253 373,250" fill="url(#poq0)" stroke="#e8e6e2" stroke-width="0.7" stroke-linejoin="round"/><polygon points="380,256 384,260 388,258 383,254" fill="url(#pqoraMetall0)" stroke="#6b726d" stroke-width="0.7" stroke-linejoin="round"/><polygon points="366,241 380,244 367,251 353,249" fill="url(#pkok0)" stroke="#4c6b80" stroke-width="0.7" stroke-linejoin="round"/></svg>