<svg xmlns="http://www.w3.org/2000/svg" viewBox="0 0 320 240" width="320" height="240" role="img" aria-label="Maxsus texnika"><defs><linearGradient id="pbeton0" x1="0" y1="0" x2="0" y2="1"><stop offset="0" stop-color="#e4e1d9"/><stop offset="1" stop-color="#dcd9d1"/></linearGradient><linearGradient id="pqoraMetall1" x1="0" y1="0" x2="0" y2="1"><stop offset="0" stop-color="#787f7a"/><stop offset="1" stop-color="#5d645f"/></linearGradient><linearGradient id="pqoraMetall0" x1="0" y1="0" x2="0" y2="1"><stop offset="0" stop-color="#838a85"/><stop offset="1" stop-color="#7b827d"/></linearGradient><linearGradient id="pmetall1" x1="0" y1="0" x2="0" y2="1"><stop offset="0" stop-color="#c7cbc7"/><stop offset="1" stop-color="#acb0ac"/></linearGradient><linearGradient id="pmetall0" x1="0" y1="0" x2="0" y2="1"><stop offset="0" stop-color="#d4d8d4"/><stop offset="1" stop-color="#ccd0cc"/></linearGradient><linearGradient id="pqoraMetall2" x1="0" y1="0" x2="0" y2="1"><stop offset="0" stop-color="#656b67"/><stop offset="1" stop-color="#4a504c"/></linearGradient><linearGradient id="psariq1" x1="0" y1="0" x2="0" y2="1"><stop offset="0" stop-color="#cfa24d"/><stop offset="1" stop-color="#b48732"/></linearGradient><linearGradient id="psariq2" x1="0" y1="0" x2="0" y2="1"><stop offset="0" stop-color="#b08940"/><stop offset="1" stop-color="#956e25"/></linearGradient><linearGradient id="psariq0" x1="0" y1="0" x2="0" y2="1"><stop offset="0" stop-color="#dfaf54"/><stop offset="1" stop-color="#d7a74c"/></linearGradient><linearGradient id="ptunOyna1" x1="0" y1="0" x2="0" y2="1"><stop offset="0" stop-color="#6b7e87"/><stop offset="1" stop-color="#50636c"/></linearGradient><linearGradient id="ptunOyna2" x1="0" y1="0" x2="0" y2="1"><stop offset="0" stop-color="#596971"/><stop offset="1" stop-color="#3e4e56"/></linearGradient><filter id="soya" x="-30%" y="-30%" width="160%" height="180%"><feGaussianBlur stdDeviation="7.0"/></filter></defs><rect width="320" height="240" fill="#FFFFFF"/><g filter="url(#soya)" opacity="0.17"></g><polygon points="93,51 314,179 227,229 6,101" fill="url(#pbeton0)" stroke="#ccc9c1" stroke-width="0.5" stroke-linejoin="round"/><polygon points="217,141 220,139 221,135 221,131 220,126 219,121 216,117 212,113 209,110 205,108 201,107 198,108 191,112 194,111 198,112 202,114 205,117 209,121 211,126 213,131 214,135 214,140 212,143 210,145" fill="url(#pqoraMetall1)" stroke="#5a615c" stroke-width="0.7" stroke-linejoin="round"/><polygon points="214,136 213,131 211,125 207,119 203,115 198,112 194,111 190,113 188,116 187,121 188,127 190,133 194,138 198,143 203,145 207,146 211,145 213,141 214,136" fill="url(#pqoraMetall0)" stroke="#6b726d" stroke-width="0.7" stroke-linejoin="round"/><polygon points="212,132 213,131 214,130 214,128 213,125 213,123 211,121 210,119 208,118 206,117 205,117 203,117 196,121 198,121 200,121 201,122 203,123 205,125 206,127 207,129 207,132 207,134 206,135 205,136" fill="url(#pmetall1)" stroke="#a9ada9" stroke-width="0.7" stroke-linejoin="round"/><polygon points="207,132 207,129 206,127 204,124 202,122 200,121 198,121 196,121 195,123 195,125 195,128 196,130 198,133 200,135 202,136 204,137 206,136 207,134 207,132" fill="url(#pmetall0)" stroke="#bcc0bc" stroke-width="0.7" stroke-linejoin="round"/><polygon points="276,172 279,169 281,165 281,159 280,153 278,146 274,140 270,135 265,131 260,129 255,128 251,129 243,134 247,133 251,134 256,136 261,140 265,145 269,151 271,158 272,164 272,170 270,174 267,177" fill="url(#pqoraMetall1)" stroke="#5a615c" stroke-width="0.7" stroke-linejoin="round"/><polygon points="272,165 271,158 268,150 264,143 258,137 252,134 246,133 242,135 239,139 238,145 239,153 242,161 246,168 252,173 258,177 264,178 268,176 271,172 272,165" fill="url(#pqoraMetall0)" stroke="#6b726d" stroke-width="0.7" stroke-linejoin="round"/><polygon points="269,160 270,159 271,157 271,154 271,152 270,149 268,146 266,144 264,142 262,141 260,140 258,141 249,146 251,145 253,145 256,146 258,148 260,151 262,154 263,156 263,159 263,162 262,164 261,165" fill="url(#pmetall1)" stroke="#a9ada9" stroke-width="0.7" stroke-linejoin="round"/><polygon points="263,160 263,157 261,153 259,150 257,147 254,145 251,145 249,146 248,148 247,151 248,154 249,158 251,161 254,164 257,165 259,166 261,165 263,163 263,160" fill="url(#pmetall0)" stroke="#bcc0bc" stroke-width="0.7" stroke-linejoin="round"/><polygon points="155,141 232,185 232,173 155,129" fill="url(#pqoraMetall1)" stroke="#5a615c" stroke-width="0.7" stroke-linejoin="round"/><polygon points="232,185 268,165 268,153 232,173" fill="url(#pqoraMetall2)" stroke="#474d49" stroke-width="0.7" stroke-linejoin="round"/><polygon points="191,108 268,153 232,173 155,129" fill="url(#pqoraMetall0)" stroke="#6b726d" stroke-width="0.7" stroke-linejoin="round"/><polygon points="172,138 213,161 213,139 172,115" fill="url(#psariq1)" stroke="#b1842f" stroke-width="0.7" stroke-linejoin="round"/><polygon points="213,161 247,142 247,119 213,139" fill="url(#psariq2)" stroke="#926b22" stroke-width="0.7" stroke-linejoin="round"/><polygon points="205,95 247,119 213,139 172,115" fill="url(#psariq0)" stroke="#c7973c" stroke-width="0.7" stroke-linejoin="round"/><polygon points="208,159 240,177 240,134 208,115" fill="url(#psariq1)" stroke="#b1842f" stroke-width="0.7" stroke-linejoin="round"/><polygon points="240,177 274,158 274,114 240,134" fill="url(#psariq2)" stroke="#926b22" stroke-width="0.7" stroke-linejoin="round"/><polygon points="210,145 238,161 238,135 210,119" fill="url(#ptunOyna1)" stroke="#4d6069" stroke-width="0.7" stroke-linejoin="round"/><polygon points="244,160 271,145 271,118 244,133" fill="url(#ptunOyna2)" stroke="#3b4b53" stroke-width="0.7" stroke-linejoin="round"/><polygon points="205,115 240,135 240,132 205,112" fill="url(#pqoraMetall1)" stroke="#5a615c" stroke-width="0.7" stroke-linejoin="round"/><polygon points="240,135 276,114 276,111 240,132" fill="url(#pqoraMetall2)" stroke="#474d49" stroke-width="0.7" stroke-linejoin="round"/><polygon points="242,91 276,111 240,132 205,112" fill="url(#pqoraMetall0)" stroke="#6b726d" stroke-width="0.7" stroke-linejoin="round"/><polygon points="194,98 207,101 160,23 149,23" fill="url(#psariq1)" stroke="#b1842f" stroke-width="0.7" stroke-linejoin="round"/><polygon points="207,101 195,107 148,30 160,23" fill="url(#psariq0)" stroke="#c7973c" stroke-width="0.7" stroke-linejoin="round"/><polygon points="182,105 195,107 148,30 137,30" fill="url(#psariq1)" stroke="#b1842f" stroke-width="0.7" stroke-linejoin="round"/><polygon points="188,78 188,77 188,77 188,76 188,75 188,75 187,74 187,73 186,73 186,72 185,72 185,72 170,81 171,80 171,81 172,81 173,81 173,82 174,83 174,84 174,84 174,85 174,86 173,86" fill="url(#pmetall1)" stroke="#a9ada9" stroke-width="0.7" stroke-linejoin="round"/><polygon points="174,85 174,84 174,83 173,82 172,81 171,81 171,80 170,81 170,81 170,82 170,83 170,84 171,85 171,86 172,86 173,86 174,86 174,85 174,85" fill="url(#pmetall0)" stroke="#bcc0bc" stroke-width="0.7" stroke-linejoin="round"/><polygon points="137,30 148,30 94,35 88,24" fill="url(#psariq1)" stroke="#b1842f" stroke-width="0.7" stroke-linejoin="round"/><polygon points="149,23 160,23 106,28 100,17" fill="url(#psariq1)" stroke="#b1842f" stroke-width="0.7" stroke-linejoin="round"/><polygon points="106,28 94,35 88,24 100,17" fill="url(#psariq0)" stroke="#c7973c" stroke-width="0.7" stroke-linejoin="round"/><polygon points="104,15 111,26 92,36 79,11" fill="url(#pqoraMetall1)" stroke="#5a615c" stroke-width="0.7" stroke-linejoin="round"/><polygon points="83,27 90,38 72,48 59,23" fill="url(#pqoraMetall1)" stroke="#5a615c" stroke-width="0.7" stroke-linejoin="round"/><polygon points="92,36 72,48 59,23 79,11" fill="url(#pqoraMetall0)" stroke="#6b726d" stroke-width="0.7" stroke-linejoin="round"/><polygon points="185,159 188,157 189,154 189,150 188,145 187,140 184,135 180,131 177,128 173,126 169,126 166,127 159,131 162,130 166,130 170,132 173,135 177,139 179,144 181,149 182,154 182,158 180,161 178,164" fill="url(#pqoraMetall1)" stroke="#5a615c" stroke-width="0.7" stroke-linejoin="round"/><polygon points="182,155 181,149 179,143 175,138 171,133 166,131 162,130 158,131 156,135 155,139 156,145 158,151 162,157 166,161 171,164 175,164 179,163 181,160 182,155" fill="url(#pqoraMetall0)" stroke="#6b726d" stroke-width="0.7" stroke-linejoin="round"/><polygon points="180,151 181,150 182,148 182,146 181,144 181,142 179,140 178,138 176,136 174,135 173,135 171,136 164,139 166,139 168,139 169,140 171,142 173,143 174,146 175,148 175,150 175,152 174,154 173,155" fill="url(#pmetall1)" stroke="#a9ada9" stroke-width="0.7" stroke-linejoin="round"/><polygon points="175,151 175,148 174,145 172,143 170,141 168,139 166,139 164,140 163,141 163,143 163,146 164,149 166,151 168,153 170,155 172,155 174,154 175,153 175,151" fill="url(#pmetall0)" stroke="#bcc0bc" stroke-width="0.7" stroke-linejoin="round"/><polygon points="243,191 246,188 247,184 248,178 247,172 244,166 241,160 237,154 232,150 227,148 222,147 218,148 210,153 213,152 218,153 223,155 228,159 232,165 236,171 238,177 239,183 239,189 237,193 234,196" fill="url(#pqoraMetall1)" stroke="#5a615c" stroke-width="0.7" stroke-linejoin="round"/><polygon points="239,185 238,177 235,169 230,162 225,157 219,153 213,152 208,154 205,158 204,165 205,172 208,180 213,187 219,193 225,196 230,197 235,195 238,191 239,185" fill="url(#pqoraMetall0)" stroke="#6b726d" stroke-width="0.7" stroke-linejoin="round"/><polygon points="236,179 237,178 238,176 238,174 238,171 237,168 235,165 233,163 231,161 229,160 226,159 225,160 216,165 218,164 220,165 223,166 225,167 227,170 228,173 229,176 230,178 230,181 229,183 228,184" fill="url(#pmetall1)" stroke="#a9ada9" stroke-width="0.7" stroke-linejoin="round"/><polygon points="230,179 229,176 228,172 226,169 223,166 221,165 218,164 216,165 214,167 214,170 214,173 216,177 218,180 221,183 223,184 226,185 228,184 229,182 230,179" fill="url(#pmetall0)" stroke="#bcc0bc" stroke-width="0.7" stroke-linejoin="round"/></svg>